<svg width="80" height="80" viewBox="0 0 80 80" fill="none" xmlns="http://www.w3.org/2000/svg">
<circle cx="40" cy="40" r="40" fill="url(#paint0_linear)" fill-opacity="0.1"/>
<circle cx="40.0006" cy="39.9997" r="36.6667" fill="url(#paint1_linear)"/>
<circle cx="40.0006" cy="39.9997" r="36.6667" fill="white" fill-opacity="0.1"/>
<path fill-rule="evenodd" clip-rule="evenodd" d="M27.03 26C27.03 25.4477 27.4778 25 28.03 25H31.4067C31.9589 25 32.4067 25.4477 32.4067 26V29.1265C34.6569 29.4776 36.7326 30.3556 38.5036 31.6304L40.6351 29.5073C41.0264 29.1175 41.6608 29.1175 42.0521 29.5073L44.437 31.8827C44.8283 32.2725 44.8283 32.9044 44.437 33.2942L42.1947 35.5276C43.1671 37.0464 43.8591 38.7621 44.1976 40.6016H47.0535C47.6058 40.6016 48.0535 41.0493 48.0535 41.6016V44.957C48.0535 45.5093 47.6058 45.957 47.0535 45.957H44.1655C43.8243 47.6926 43.1678 49.3151 42.2581 50.7624L44.3147 52.811C44.706 53.2008 44.706 53.8327 44.3147 54.2224L41.9299 56.5979C41.5386 56.9876 40.9042 56.9876 40.5129 56.5979L38.5982 54.6907C36.8487 55.9719 34.7959 56.8634 32.5675 57.2373V60.0001C32.5675 60.5523 32.1198 61.0001 31.5675 61.0001H28.1909C27.6386 61.0001 27.1909 60.5523 27.1909 60.0001V57.117C25.2934 56.7097 23.5363 55.9243 22.0022 54.8435L20.2473 56.5985C19.8567 56.9891 19.2248 56.9878 18.8358 56.5958L16.4658 54.207C16.0768 53.8149 16.078 53.1805 16.4685 52.79L18.2729 50.9857C17.2885 49.4825 16.5808 47.7819 16.222 45.9561H13C12.4477 45.9561 12 45.5084 12 44.9561V41.6007C12 41.0484 12.4477 40.6007 13 40.6007H16.1903C16.5702 38.5368 17.3951 36.6288 18.5619 34.9797L16.7404 33.1655C16.3491 32.7757 16.3491 32.1438 16.7404 31.754L19.1252 29.3786C19.5165 28.9888 20.1509 28.9888 20.5422 29.3786L22.4285 31.2574C23.8141 30.3541 25.3668 29.6856 27.03 29.3083V26Z" fill="white" fill-opacity="0.8"/>
<circle cx="30.1939" cy="43.1947" r="7.91075" fill="url(#paint2_linear)"/>
<g opacity="0.8">
<path fill-rule="evenodd" clip-rule="evenodd" d="M53.0053 20C53.0053 19.4477 53.4531 19 54.0053 19H55.5844C56.1367 19 56.5844 19.4477 56.5844 20V21.565C56.5844 21.6263 56.5789 21.6863 56.5683 21.7446C58.0741 21.9769 59.4628 22.5636 60.6467 23.4167C60.6673 23.3918 60.6893 23.3677 60.7127 23.3444L61.825 22.2364C62.2163 21.8466 62.8508 21.8466 63.242 22.2364L64.3558 23.3458C64.7471 23.7356 64.7471 24.3675 64.3558 24.7572L63.2435 25.8652C63.1954 25.9131 63.1436 25.9552 63.089 25.9913C63.742 27.0065 64.2065 28.1544 64.433 29.3856H66.0002C66.5525 29.3856 67.0002 29.8333 67.0002 30.3856V31.9505C67.0002 32.5028 66.5525 32.9505 66.0002 32.9505H64.4211C64.418 32.9505 64.4149 32.9505 64.4117 32.9505C64.1846 34.1059 63.7476 35.1861 63.142 36.1495C63.1482 36.1555 63.1545 36.1615 63.1606 36.1677L64.2744 37.2771C64.6657 37.6668 64.6657 38.2988 64.2744 38.6885L63.1606 39.7979C62.7694 40.1877 62.1349 40.1877 61.7436 39.7979L60.706 38.7643C59.5414 39.6172 58.1749 40.2107 56.6916 40.4597V41.9644C56.6916 42.5167 56.2439 42.9644 55.6916 42.9644H54.1125C53.5602 42.9644 53.1125 42.5167 53.1125 41.9644V40.3994C53.1125 40.3929 53.1126 40.3863 53.1127 40.3798C51.8493 40.1087 50.6794 39.5858 49.6581 38.8662L48.7264 39.7979C48.3358 40.1885 47.7039 40.1872 47.3149 39.7952L46.2082 38.6797C45.8192 38.2876 45.8204 37.6532 46.211 37.2627L47.1756 36.2981C46.5157 35.2904 46.0425 34.1494 45.8053 32.9242C45.7326 32.941 45.6569 32.9499 45.5791 32.9499H44C43.4477 32.9499 43 32.5022 43 31.9499V30.385C43 29.8327 43.4477 29.385 44 29.385H45.5791C45.6498 29.385 45.7188 29.3923 45.7854 29.4063C46.0365 28.0242 46.5874 26.7465 47.3682 25.6431L46.3927 24.6715C46.0014 24.2817 46.0014 23.6498 46.3927 23.2601L47.5065 22.1507C47.8978 21.7609 48.5322 21.7609 48.9235 22.1507L49.9421 23.1653C50.8767 22.5562 51.9253 22.1075 53.049 21.8582C53.0206 21.7655 53.0053 21.667 53.0053 21.565V20Z" fill="white" fill-opacity="0.8"/>
<circle cx="55.1112" cy="31.1117" r="5.266" fill="url(#paint3_linear)"/>
</g>
<defs>
<linearGradient id="paint0_linear" x1="126.374" y1="66.0956" x2="65.9555" y2="-18.7321" gradientUnits="userSpaceOnUse">
<stop stop-color="#645AFF"/>
<stop offset="0.637566" stop-color="#E40C5B"/>
<stop offset="1" stop-color="#FF4C3B"/>
</linearGradient>
<linearGradient id="paint1_linear" x1="90.4682" y1="89.1068" x2="2.62232" y2="13.4453" gradientUnits="userSpaceOnUse">
<stop stop-color="#645AFF"/>
<stop offset="0.60257" stop-color="#E40C5B"/>
<stop offset="1" stop-color="#FF4C3B"/>
</linearGradient>
<linearGradient id="paint2_linear" x1="47.2759" y1="48.3556" x2="35.3271" y2="31.5793" gradientUnits="userSpaceOnUse">
<stop stop-color="#645AFF"/>
<stop offset="0.637566" stop-color="#E40C5B"/>
<stop offset="1" stop-color="#FF4C3B"/>
</linearGradient>
<linearGradient id="paint3_linear" x1="66.4823" y1="34.5472" x2="58.5283" y2="23.3796" gradientUnits="userSpaceOnUse">
<stop stop-color="#645AFF"/>
<stop offset="0.637566" stop-color="#E40C5B"/>
<stop offset="1" stop-color="#FF4C3B"/>
</linearGradient>
</defs>
</svg>
