<svg width="89" height="75" viewBox="0 0 78 68" fill="none" xmlns="http://www.w3.org/2000/svg"><circle cx="19.726" cy="4.216" r="2.746" stroke="#645AFF" stroke-opacity="0.5"></circle><circle cx="55.592" cy="64.316" r="2.746" stroke="#645AFF" stroke-opacity="0.5"></circle><circle cx="20.357" cy="63.009" r="1.439" stroke="#645AFF" stroke-opacity="0.5"></circle><circle cx="57.418" cy="6.042" r="1.664" stroke="url(#gasfeeicon_svg__paint0_linear)"></circle><circle cx="57.418" cy="6.042" r="1.664" stroke="#fff" stroke-opacity="0.1"></circle><circle cx="75.836" cy="35.123" r="1.664" stroke="url(#gasfeeicon_svg__paint1_linear)"></circle><circle cx="75.836" cy="35.123" r="1.664" stroke="#fff" stroke-opacity="0.1"></circle><circle cx="2.164" cy="35.123" r="1.664" stroke="url(#gasfeeicon_svg__paint2_linear)"></circle><circle cx="2.164" cy="35.123" r="1.664" stroke="#fff" stroke-opacity="0.1"></circle><path d="M55.192 33.788c0 9.054-2.057 17.151-5.282 22.915-3.26 5.829-7.45 8.873-11.62 8.873-4.172 0-8.36-3.044-11.621-8.873-3.225-5.764-5.282-13.861-5.282-22.915 0-9.054 2.057-17.151 5.282-22.915C29.929 5.044 34.119 2 38.289 2c4.171 0 8.36 3.044 11.621 8.873 3.225 5.764 5.282 13.861 5.282 22.915z" stroke="url(#gasfeeicon_svg__paint3_linear)" stroke-width="4"></path><path d="M55.192 33.788c0 9.054-2.057 17.151-5.282 22.915-3.26 5.829-7.45 8.873-11.62 8.873-4.172 0-8.36-3.044-11.621-8.873-3.225-5.764-5.282-13.861-5.282-22.915 0-9.054 2.057-17.151 5.282-22.915C29.929 5.044 34.119 2 38.289 2c4.171 0 8.36 3.044 11.621 8.873 3.225 5.764 5.282 13.861 5.282 22.915z" stroke="#fff" stroke-opacity="0.1" stroke-width="4"></path><path d="M55.192 33.788c0 9.054-2.057 17.151-5.282 22.915-3.26 5.829-7.45 8.873-11.62 8.873-4.172 0-8.36-3.044-11.621-8.873-3.225-5.764-5.282-13.861-5.282-22.915 0-9.054 2.057-17.151 5.282-22.915C29.929 5.044 34.119 2 38.289 2c4.171 0 8.36 3.044 11.621 8.873 3.225 5.764 5.282 13.861 5.282 22.915z" stroke="url(#gasfeeicon_svg__paint4_linear)" stroke-width="4"></path><path d="M55.192 33.788c0 9.054-2.057 17.151-5.282 22.915-3.26 5.829-7.45 8.873-11.62 8.873-4.172 0-8.36-3.044-11.621-8.873-3.225-5.764-5.282-13.861-5.282-22.915 0-9.054 2.057-17.151 5.282-22.915C29.929 5.044 34.119 2 38.289 2c4.171 0 8.36 3.044 11.621 8.873 3.225 5.764 5.282 13.861 5.282 22.915z" stroke="#fff" stroke-opacity="0.1" stroke-width="4"></path><path d="M47.648 19.712c7.84 4.526 13.825 10.357 17.205 16.032 3.417 5.738 3.959 10.888 1.873 14.5-2.085 3.612-6.816 5.718-13.494 5.627-6.604-.09-14.646-2.356-22.486-6.883C22.905 44.46 16.92 38.63 13.54 32.956c-3.417-5.738-3.959-10.888-1.873-14.5 2.085-3.612 6.816-5.718 13.494-5.628 6.604.09 14.646 2.357 22.486 6.884z" stroke="url(#gasfeeicon_svg__paint5_linear)" stroke-width="4"></path><path d="M47.648 19.712c7.84 4.526 13.825 10.357 17.205 16.032 3.417 5.738 3.959 10.888 1.873 14.5-2.085 3.612-6.816 5.718-13.494 5.627-6.604-.09-14.646-2.356-22.486-6.883C22.905 44.46 16.92 38.63 13.54 32.956c-3.417-5.738-3.959-10.888-1.873-14.5 2.085-3.612 6.816-5.718 13.494-5.628 6.604.09 14.646 2.357 22.486 6.884z" stroke="#fff" stroke-opacity="0.1" stroke-width="4"></path><path d="M47.648 19.712c7.84 4.526 13.825 10.357 17.205 16.032 3.417 5.738 3.959 10.888 1.873 14.5-2.085 3.612-6.816 5.718-13.494 5.627-6.604-.09-14.646-2.356-22.486-6.883C22.905 44.46 16.92 38.63 13.54 32.956c-3.417-5.738-3.959-10.888-1.873-14.5 2.085-3.612 6.816-5.718 13.494-5.628 6.604.09 14.646 2.357 22.486 6.884z" stroke="url(#gasfeeicon_svg__paint6_linear)" stroke-width="4"></path><path d="M47.648 19.712c7.84 4.526 13.825 10.357 17.205 16.032 3.417 5.738 3.959 10.888 1.873 14.5-2.085 3.612-6.816 5.718-13.494 5.627-6.604-.09-14.646-2.356-22.486-6.883C22.905 44.46 16.92 38.63 13.54 32.956c-3.417-5.738-3.959-10.888-1.873-14.5 2.085-3.612 6.816-5.718 13.494-5.628 6.604.09 14.646 2.357 22.486 6.884z" stroke="#fff" stroke-opacity="0.1" stroke-width="4"></path><path d="M48.416 48.518c-7.59 4.937-15.499 7.629-22.089 8.07-6.664.445-11.5-1.406-13.774-4.902-2.275-3.496-2.008-8.668 1.1-14.58C16.724 31.26 22.39 25.12 29.98 20.182c7.588-4.937 15.498-7.63 22.088-8.07 6.664-.445 11.5 1.406 13.774 4.902 2.275 3.496 2.008 8.667-1.1 14.58-3.072 5.846-8.738 11.986-16.327 16.924z" stroke="url(#gasfeeicon_svg__paint7_linear)" stroke-width="4"></path><path d="M48.416 48.518c-7.59 4.937-15.499 7.629-22.089 8.07-6.664.445-11.5-1.406-13.774-4.902-2.275-3.496-2.008-8.668 1.1-14.58C16.724 31.26 22.39 25.12 29.98 20.182c7.588-4.937 15.498-7.63 22.088-8.07 6.664-.445 11.5 1.406 13.774 4.902 2.275 3.496 2.008 8.667-1.1 14.58-3.072 5.846-8.738 11.986-16.327 16.924z" stroke="#fff" stroke-opacity="0.1" stroke-width="4"></path><path d="M48.416 48.518c-7.59 4.937-15.499 7.629-22.089 8.07-6.664.445-11.5-1.406-13.774-4.902-2.275-3.496-2.008-8.668 1.1-14.58C16.724 31.26 22.39 25.12 29.98 20.182c7.588-4.937 15.498-7.63 22.088-8.07 6.664-.445 11.5 1.406 13.774 4.902 2.275 3.496 2.008 8.667-1.1 14.58-3.072 5.846-8.738 11.986-16.327 16.924z" stroke="url(#gasfeeicon_svg__paint8_linear)" stroke-width="4"></path><path d="M48.416 48.518c-7.59 4.937-15.499 7.629-22.089 8.07-6.664.445-11.5-1.406-13.774-4.902-2.275-3.496-2.008-8.668 1.1-14.58C16.724 31.26 22.39 25.12 29.98 20.182c7.588-4.937 15.498-7.63 22.088-8.07 6.664-.445 11.5 1.406 13.774 4.902 2.275 3.496 2.008 8.667-1.1 14.58-3.072 5.846-8.738 11.986-16.327 16.924z" stroke="#fff" stroke-opacity="0.1" stroke-width="4"></path><circle cx="38.724" cy="34.587" r="7.724" fill="#645AFF" stroke="#E0E0E0" stroke-width="2"></circle><path d="M38.577 37.98c-.623 0-1.231-.066-1.826-.196-.594-.14-1.068-.31-1.42-.515l.724-1.372c.334.188.738.343 1.212.466.474.114.938.171 1.393.171.92 0 1.38-.2 1.38-.6 0-.188-.126-.322-.377-.404-.25-.082-.636-.151-1.156-.208a12.522 12.522 0 01-1.519-.282 2.48 2.48 0 01-1.045-.563c-.288-.27-.432-.654-.432-1.152 0-.416.135-.784.404-1.102.279-.327.678-.58 1.199-.76.529-.18 1.151-.269 1.867-.269.53 0 1.054.053 1.574.16.53.097.966.236 1.31.416l-.725 1.36a4.799 4.799 0 00-2.16-.49c-.464 0-.812.056-1.044.17-.233.115-.349.262-.349.442 0 .204.126.347.377.428.25.082.65.16 1.198.233.613.09 1.114.188 1.505.294.39.098.729.282 1.017.551.288.27.432.645.432 1.127 0 .408-.14.772-.418 1.09-.279.319-.688.568-1.227.747-.529.172-1.16.258-1.894.258z" fill="#E0E0E0"></path><path stroke="#E0E0E0" stroke-width="2" d="M38.853 32.325v-2.262M38.853 39.111v-2.262"></path><defs><linearGradient id="gasfeeicon_svg__paint0_linear" x1="60.397" y1="8.94" x2="55.212" y2="4.474" gradientUnits="userSpaceOnUse"><stop stop-color="#645AFF"></stop><stop offset="0.603" stop-color="#E40C5B"></stop><stop offset="1" stop-color="#FF4C3B"></stop></linearGradient><linearGradient id="gasfeeicon_svg__paint1_linear" x1="78.815" y1="38.021" x2="73.63" y2="33.555" gradientUnits="userSpaceOnUse"><stop stop-color="#645AFF"></stop><stop offset="0.603" stop-color="#E40C5B"></stop><stop offset="1" stop-color="#FF4C3B"></stop></linearGradient><linearGradient id="gasfeeicon_svg__paint2_linear" x1="5.143" y1="38.021" x2="-0.042" y2="33.555" gradientUnits="userSpaceOnUse"><stop stop-color="#645AFF"></stop><stop offset="0.603" stop-color="#E40C5B"></stop><stop offset="1" stop-color="#FF4C3B"></stop></linearGradient><linearGradient id="gasfeeicon_svg__paint3_linear" x1="64.307" y1="79.04" x2="0.288" y2="48.193" gradientUnits="userSpaceOnUse"><stop stop-color="#645AFF"></stop><stop offset="0.603" stop-color="#E40C5B"></stop><stop offset="1" stop-color="#FF4C3B"></stop></linearGradient><linearGradient id="gasfeeicon_svg__paint4_linear" x1="64.307" y1="79.04" x2="0.288" y2="48.193" gradientUnits="userSpaceOnUse"><stop stop-color="#645AFF"></stop><stop offset="0.603" stop-color="#E40C5B"></stop><stop offset="1" stop-color="#FF4C3B"></stop></linearGradient><linearGradient id="gasfeeicon_svg__paint5_linear" x1="91.395" y1="34.444" x2="32.671" y2="74.462" gradientUnits="userSpaceOnUse"><stop stop-color="#645AFF"></stop><stop offset="0.603" stop-color="#E40C5B"></stop><stop offset="1" stop-color="#FF4C3B"></stop></linearGradient><linearGradient id="gasfeeicon_svg__paint6_linear" x1="91.395" y1="34.444" x2="32.671" y2="74.462" gradientUnits="userSpaceOnUse"><stop stop-color="#645AFF"></stop><stop offset="0.603" stop-color="#E40C5B"></stop><stop offset="1" stop-color="#FF4C3B"></stop></linearGradient><linearGradient id="gasfeeicon_svg__paint7_linear" x1="15.456" y1="80.836" x2="6.399" y2="10.353" gradientUnits="userSpaceOnUse"><stop stop-color="#645AFF"></stop><stop offset="0.603" stop-color="#E40C5B"></stop><stop offset="1" stop-color="#FF4C3B"></stop></linearGradient><linearGradient id="gasfeeicon_svg__paint8_linear" x1="15.456" y1="80.836" x2="6.399" y2="10.353" gradientUnits="userSpaceOnUse"><stop stop-color="#645AFF"></stop><stop offset="0.603" stop-color="#E40C5B"></stop><stop offset="1" stop-color="#FF4C3B"></stop></linearGradient></defs></svg>