<svg width="72" height="72" fill="none" xmlns="http://www.w3.org/2000/svg"><rect width="72" height="72" rx="8" fill="url(#karura-icon-4-5_svg__paint0_linear)"></rect><circle cx="36.307" cy="36.307" r="25.182" stroke="#fff" stroke-width="2"></circle><path fill-rule="evenodd" clip-rule="evenodd" d="M26.193 18.14a1 1 0 00-.366.005c-.55.11-1.05.28-1.458.567-.436.306-.721.713-.863 1.193-.132.447-.126.908-.082 1.324.044.42.137.878.233 1.34a1 1 0 00.554.699l7.172 3.368-1.595.93a.999.999 0 00-.361.363c-1.042 1.796-1.02 3.38-.667 4.961-1.839-.902-3.996-2.259-5.968-3.906a1 1 0 00-.622-.232c-1.31-.025-2.52.107-3.288.889-.792.804-.812 1.977-.716 3.069a1 1 0 00.38.7c1.36 1.064 2.257 1.878 2.948 2.697.684.81 1.194 1.659 1.746 2.819a1 1 0 00.206.287c4.573 4.445 7.818 7.074 13.098 10.813l1.581 5.5a1 1 0 001.417.614l13.283-6.808a1 1 0 00.396-1.413l-2.911-4.74c.264-2.026-.15-3.677-.687-5.209-.161-.46-.327-.895-.49-1.324-.419-1.097-.817-2.142-1.055-3.38 0-.036 0-.08-.002-.133a9.313 9.313 0 00-.038-.615 12.336 12.336 0 00-.38-2.07 12.366 12.366 0 00-3.367-5.71 1 1 0 00-.64-.278l-5.309-.285c-.4-1.225-.887-2.44-1.559-3.527a1 1 0 00-.609-.445c-4.187-1.044-6.304-1.432-9.981-2.064zm12.75 8.07l.22.805v.001c.369 1.362.713 2.633 1.178 3.773a1 1 0 01-1.852.755c-.516-1.265-.903-2.696-1.277-4.076-.1-.369-.198-.733-.298-1.09-.447-1.597-.927-3.083-1.63-4.335-3.784-.935-5.826-1.313-9.237-1.9-.294.073-.45.15-.529.206-.065.046-.08.075-.094.124-.025.082-.043.242-.011.547.02.19.055.403.103.651l7.142 3.354a1 1 0 01.539.64l.154.554c.408 1.463.771 2.766.925 4.104.177 1.545.077 3.12-.465 5.12a1 1 0 01-1.93-.523c.482-1.78.553-3.1.408-4.369a15.34 15.34 0 00-.362-1.917l-.893.52c-.846 1.62-.49 2.925.213 5.182a1 1 0 01-1.291 1.24c-2.28-.814-5.39-2.56-8.167-4.826-1.054.012-1.378.188-1.482.294-.079.08-.204.303-.176 1.069 1.226.978 2.142 1.816 2.891 2.705.792.937 1.372 1.9 1.946 3.085 4.5 4.365 7.687 6.93 13.016 10.692a1 1 0 01.385.54l1.342 4.671 11.24-5.761-2.536-4.13a1 1 0 01-.134-.69c.291-1.727-.027-3.117-.545-4.593-.127-.362-.271-.74-.421-1.134-.447-1.172-.95-2.488-1.22-3.96a1 1 0 01-.017-.21v-.001c0-.001 0-.002 1 .03l-1-.032v.001-.024l-.001-.116a7.322 7.322 0 00-.03-.482 10.33 10.33 0 00-.319-1.732 10.383 10.383 0 00-2.565-4.535l-4.22-.227z" fill="#fff"></path><path d="M28.831 34.086c1.06.624 2.38 1.297 4.197 1.095" stroke="#fff" stroke-width="2"></path><circle cx="23.358" cy="26.241" r="1.372" stroke="#fff" stroke-width="2"></circle><rect width="72" height="72" rx="8" fill="url(#karura-icon-4-5_svg__paint1_linear)"></rect><mask id="karura-icon-4-5_svg__a" fill="#fff"><path fill-rule="evenodd" clip-rule="evenodd" d="M11.818 47.652a2 2 0 00-2 2v4.59c0 .25.047.49.131.712-.084.22-.13.46-.13.71v2.872a2 2 0 002 2h4.591a2 2 0 002-2V56.24h12.886v2.295a2 2 0 002 2h4.591a2 2 0 002-2V56.24h12.886v2.295a2 2 0 002 2h4.591a2 2 0 002-2v-2.872c0-.25-.046-.49-.13-.712.084-.22.13-.46.13-.71v-4.59a2 2 0 00-2-2H11.818z"></path></mask><path d="M9.95 54.954l1.869.71.27-.711-.271-.712-1.869.713zm8.46 1.287v-2h-2v2h2zm12.886 0h2v-2h-2v2zm8.591 0v-2h-2v2h2zm12.886 0h2v-2h-2v2zm8.46-1.289l-1.868-.711-.272.712.272.712 1.869-.713zm-49.415-5.3v-4a4 4 0 00-4 4h4zm0 4.59v-4.59h-4v4.59h4zm0-.001h-4c0 .499.093.98.263 1.426l3.737-1.426zm.001 1.423l-3.74-1.42c-.168.444-.26.924-.26 1.42h4zm0 2.872v-2.872h-4v2.872h4zm0 0h-4a4 4 0 004 4v-4zm4.591 0h-4.59v4h4.59v-4zm0 0v4a4 4 0 004-4h-4zm0-2.295v2.295h4V56.24h-4zm14.886-2H18.41v4h12.886v-4zm2 4.295V56.24h-4v2.295h4zm0 0h-4a4 4 0 004 4v-4zm4.591 0h-4.59v4h4.59v-4zm0 0v4a4 4 0 004-4h-4zm0-2.295v2.295h4V56.24h-4zm14.886-2H39.887v4h12.886v-4zm2 4.295V56.24h-4v2.295h4zm0 0h-4a4 4 0 004 4v-4zm4.591 0h-4.59v4h4.59v-4zm0 0v4a4 4 0 004-4h-4zm0-2.872v2.872h4v-2.872h-4zm0 0h4c0-.498-.092-.979-.261-1.424l-3.738 1.425zm0-1.423l3.739 1.423c.17-.445.26-.925.26-1.423h-4zm0-4.59v4.59h4v-4.59h-4zm0 0h4a4 4 0 00-4-4v4zm-47.546 0h47.546v-4H11.818v4z" fill="#fff" mask="url(#karura-icon-4-5_svg__a)"></path><path stroke="#fff" stroke-width="2" stroke-linecap="round" d="M36.471 18.468v-8.307M33.198 13.111l3.949-3.948 3.797 3.796"></path><mask id="karura-icon-4-5_svg__b" fill="#fff"><path fill-rule="evenodd" clip-rule="evenodd" d="M23.875 34.768h-5.03a2 2 0 00-2 2v7.127a2 2 0 002 2h15.33a2 2 0 002-2v-7.127a2 2 0 00-2-2h-4.443v1.756a2.929 2.929 0 01-5.857 0v-1.756z"></path></mask><path d="M23.875 34.768h2v-2h-2v2zm5.857 0v-2h-2v2h2zm-10.886 2h5.029v-4h-5.03v4zm0 0v-4a4 4 0 00-4 4h4zm0 7.127v-7.127h-4v7.127h4zm0 0h-4a4 4 0 004 4v-4zm15.33 0h-15.33v4h15.33v-4zm0 0v4a4 4 0 004-4h-4zm0-7.127v7.127h4v-7.127h-4zm0 0h4a4 4 0 00-4-4v4zm-4.444 0h4.443v-4h-4.443v4zm-2-2v1.756h4v-1.756h-4zm0 1.756a.929.929 0 01-.929.929v4a4.929 4.929 0 004.93-4.929h-4zm-.929.929a.929.929 0 01-.928-.929h-4a4.929 4.929 0 004.928 4.929v-4zm-.928-.929v-1.756h-4v1.756h4z" fill="#fff" mask="url(#karura-icon-4-5_svg__b)"></path><mask id="karura-icon-4-5_svg__c" fill="#fff"><path fill-rule="evenodd" clip-rule="evenodd" d="M34.42 21.298h-5.028a2 2 0 00-2 2v7.127a2 2 0 002 2h15.33a2 2 0 002-2v-7.127a2 2 0 00-2-2h-4.444v1.757a2.929 2.929 0 01-5.858 0v-1.757z"></path></mask><path fill-rule="evenodd" clip-rule="evenodd" d="M34.42 21.298h-5.028a2 2 0 00-2 2v7.127a2 2 0 002 2h15.33a2 2 0 002-2v-7.127a2 2 0 00-2-2h-4.444v1.757a2.929 2.929 0 01-5.858 0v-1.757z" fill="url(#karura-icon-4-5_svg__paint2_linear)"></path><path d="M34.42 21.298h2v-2h-2v2zm5.858 0v-2h-2v2h2zm-10.886 2h5.028v-4h-5.028v4zm0 0v-4a4 4 0 00-4 4h4zm0 7.127v-7.127h-4v7.127h4zm0 0h-4a4 4 0 004 4v-4zm15.33 0h-15.33v4h15.33v-4zm0 0v4a4 4 0 004-4h-4zm0-7.127v7.127h4v-7.127h-4zm0 0h4a4 4 0 00-4-4v4zm-4.444 0h4.443v-4h-4.443v4zm-2-2v1.757h4v-1.757h-4zm0 1.757a.929.929 0 01-.929.928v4a4.929 4.929 0 004.929-4.928h-4zm-.929.928a.929.929 0 01-.928-.928h-4a4.929 4.929 0 004.928 4.928v-4zm-.928-.928v-1.757h-4v1.757h4z" fill="#fff" mask="url(#karura-icon-4-5_svg__c)"></path><mask id="karura-icon-4-5_svg__d" fill="#fff"><path fill-rule="evenodd" clip-rule="evenodd" d="M45.548 34.768H40.52a2 2 0 00-2 2v7.127a2 2 0 002 2h15.33a2 2 0 002-2v-7.127a2 2 0 00-2-2h-4.443v1.756a2.929 2.929 0 11-5.858 0v-1.756z"></path></mask><path d="M45.548 34.768h2v-2h-2v2zm5.858 0v-2h-2v2h2zm-10.886 2h5.028v-4H40.52v4zm0 0v-4a4 4 0 00-4 4h4zm0 7.127v-7.127h-4v7.127h4zm0 0h-4a4 4 0 004 4v-4zm15.33 0H40.52v4h15.33v-4zm0 0v4a4 4 0 004-4h-4zm0-7.127v7.127h4v-7.127h-4zm0 0h4a4 4 0 00-4-4v4zm-4.444 0h4.443v-4h-4.443v4zm-2-2v1.756h4v-1.756h-4zm0 1.756a.929.929 0 01-.929.929v4a4.929 4.929 0 004.929-4.929h-4zm-.929.929a.929.929 0 01-.928-.929h-4a4.929 4.929 0 004.928 4.929v-4zm-.928-.929v-1.756h-4v1.756h4z" fill="#fff" mask="url(#karura-icon-4-5_svg__d)"></path><defs><linearGradient id="karura-icon-4-5_svg__paint0_linear" x1="108.197" y1="47.108" x2="53.301" y2="-17.119" gradientUnits="userSpaceOnUse"><stop stop-color="#E40C5B"></stop><stop offset="1" stop-color="#FF4C3B"></stop></linearGradient><linearGradient id="karura-icon-4-5_svg__paint1_linear" x1="108.197" y1="47.108" x2="53.301" y2="-17.119" gradientUnits="userSpaceOnUse"><stop stop-color="#E40C5B"></stop><stop offset="1" stop-color="#FF4C3B"></stop></linearGradient><linearGradient id="karura-icon-4-5_svg__paint2_linear" x1="56.439" y1="28.579" x2="49.635" y2="14.749" gradientUnits="userSpaceOnUse"><stop stop-color="#E40C5B"></stop><stop offset="1" stop-color="#FF4C3B"></stop></linearGradient></defs></svg>