<svg width="72" height="72" fill="none" xmlns="http://www.w3.org/2000/svg"><rect width="72" height="72" rx="8" fill="url(#karura-icon-4-3_svg__paint0_linear)"></rect><circle cx="36.307" cy="36.307" r="25.182" stroke="#fff" stroke-width="2"></circle><path fill-rule="evenodd" clip-rule="evenodd" d="M26.193 18.14a1 1 0 00-.366.005c-.55.11-1.05.28-1.458.567-.436.306-.721.713-.863 1.193-.132.447-.126.908-.082 1.324.044.42.137.878.233 1.34a1 1 0 00.554.699l7.172 3.368-1.595.93a.999.999 0 00-.361.363c-1.042 1.796-1.02 3.38-.667 4.961-1.839-.902-3.996-2.259-5.968-3.906a1 1 0 00-.622-.232c-1.31-.025-2.52.107-3.288.889-.792.804-.812 1.977-.716 3.069a1 1 0 00.38.7c1.36 1.064 2.257 1.878 2.948 2.697.684.81 1.194 1.659 1.746 2.819a1 1 0 00.206.287c4.573 4.445 7.818 7.074 13.098 10.813l1.581 5.5a1 1 0 001.417.614l13.283-6.808a1 1 0 00.396-1.413l-2.911-4.74c.264-2.026-.15-3.677-.687-5.209-.161-.46-.327-.895-.49-1.324-.419-1.097-.817-2.142-1.055-3.38 0-.036 0-.08-.002-.133a9.313 9.313 0 00-.038-.615 12.336 12.336 0 00-.38-2.07 12.366 12.366 0 00-3.367-5.71 1 1 0 00-.64-.278l-5.309-.285c-.4-1.225-.887-2.44-1.559-3.527a1 1 0 00-.609-.445c-4.187-1.044-6.304-1.432-9.981-2.064zm12.75 8.07l.22.805v.001c.369 1.362.713 2.633 1.178 3.773a1 1 0 01-1.852.755c-.516-1.265-.903-2.696-1.277-4.076-.1-.369-.198-.733-.298-1.09-.447-1.597-.927-3.083-1.63-4.335-3.784-.935-5.826-1.313-9.237-1.9-.294.073-.45.15-.529.206-.065.046-.08.075-.094.124-.025.082-.043.242-.011.547.02.19.055.403.103.651l7.142 3.354a1 1 0 01.539.64l.154.554c.408 1.463.771 2.766.925 4.104.177 1.545.077 3.12-.465 5.12a1 1 0 01-1.93-.523c.482-1.78.553-3.1.408-4.369a15.34 15.34 0 00-.362-1.917l-.893.52c-.846 1.62-.49 2.925.213 5.182a1 1 0 01-1.291 1.24c-2.28-.814-5.39-2.56-8.167-4.826-1.054.012-1.378.188-1.482.294-.079.08-.204.303-.176 1.069 1.226.978 2.142 1.816 2.891 2.705.792.937 1.372 1.9 1.946 3.085 4.5 4.365 7.687 6.93 13.016 10.692a1 1 0 01.385.54l1.342 4.671 11.24-5.761-2.536-4.13a1 1 0 01-.134-.69c.291-1.727-.027-3.117-.545-4.593-.127-.362-.271-.74-.421-1.134-.447-1.172-.95-2.488-1.22-3.96a1 1 0 01-.017-.21v-.001c0-.001 0-.002 1 .03l-1-.032v.001-.024l-.001-.116a7.322 7.322 0 00-.03-.482 10.33 10.33 0 00-.319-1.732 10.383 10.383 0 00-2.565-4.535l-4.22-.227z" fill="#fff"></path><path d="M28.831 34.086c1.06.624 2.38 1.297 4.197 1.095" stroke="#fff" stroke-width="2"></path><circle cx="23.358" cy="26.241" r="1.372" stroke="#fff" stroke-width="2"></circle><rect width="72" height="72" rx="8" fill="url(#karura-icon-4-3_svg__paint1_linear)"></rect><path d="M26.519 38.742c0 4.4-3.525 7.947-7.85 7.947-4.326 0-7.85-3.548-7.85-7.947s3.524-7.946 7.85-7.946c4.325 0 7.85 3.547 7.85 7.946z" stroke="#fff" stroke-width="2"></path><path d="M20.619 36.878c0 1.105-.883 1.982-1.95 1.982s-1.95-.877-1.95-1.982.883-1.982 1.95-1.982 1.95.877 1.95 1.982z" fill="url(#karura-icon-4-3_svg__paint2_linear)" stroke="#fff" stroke-width="2"></path><mask id="karura-icon-4-3_svg__a" fill="#fff"><path fill-rule="evenodd" clip-rule="evenodd" d="M14.291 46.519a4.455 4.455 0 01-.047-.646v-.096a4.425 4.425 0 018.85 0v.096c0 .22-.016.435-.047.646a8.736 8.736 0 01-4.378 1.17 8.736 8.736 0 01-4.378-1.17z"></path></mask><path d="M14.291 46.519l-1.979.29.14.959.84.484.999-1.733zm8.756 0l1 1.733.839-.484.14-.959-1.979-.29zm-6.777-.29a2.457 2.457 0 01-.026-.356h-4c0 .317.023.63.068.936l3.958-.58zm-.026-.356v-.096h-4v.096h4zm0-.096a2.425 2.425 0 012.425-2.426v-4a6.425 6.425 0 00-6.425 6.425h4zm2.425-2.426a2.425 2.425 0 012.425 2.425h4a6.425 6.425 0 00-6.425-6.425v4zm2.425 2.425v.097h4v-.096h-4zm0 .097c0 .122-.009.241-.026.357l3.958.58c.045-.308.068-.62.068-.937h-4zm.955-1.086a6.737 6.737 0 01-3.38.902v4c1.954 0 3.791-.523 5.377-1.437l-1.997-3.465zm-3.38.902a6.736 6.736 0 01-3.379-.903l-1.998 3.466a10.736 10.736 0 005.377 1.437v-4z" fill="#fff" mask="url(#karura-icon-4-3_svg__a)"></path><path d="M61.18 47.689c0 4.399-3.524 7.946-7.85 7.946-4.325 0-7.85-3.547-7.85-7.946 0-4.4 3.525-7.947 7.85-7.947 4.326 0 7.85 3.548 7.85 7.947z" stroke="#fff" stroke-width="2"></path><path d="M55.279 45.825c0 1.105-.883 1.982-1.95 1.982s-1.95-.877-1.95-1.982.883-1.982 1.95-1.982 1.95.877 1.95 1.982z" fill="url(#karura-icon-4-3_svg__paint3_linear)" stroke="#fff" stroke-width="2"></path><mask id="karura-icon-4-3_svg__b" fill="#fff"><path fill-rule="evenodd" clip-rule="evenodd" d="M48.951 55.465a4.468 4.468 0 01-.047-.646v-.096a4.425 4.425 0 018.85 0v.096c0 .22-.015.436-.046.647a8.736 8.736 0 01-4.378 1.17 8.736 8.736 0 01-4.379-1.17z"></path></mask><path d="M48.951 55.465l-1.979.29.14.959.84.484 1-1.733zm8.757.001l.998 1.733.84-.484.14-.96-1.978-.289zm-6.778-.29a2.456 2.456 0 01-.026-.357h-4c0 .317.023.63.068.936l3.958-.58zm-.026-.357v-.096h-4v.096h4zm0-.096a2.425 2.425 0 012.425-2.425v-4a6.425 6.425 0 00-6.425 6.425h4zm2.425-2.425a2.425 2.425 0 012.425 2.425h4a6.425 6.425 0 00-6.425-6.425v4zm2.425 2.425v.096h4v-.096h-4zm0 .096c0 .123-.008.242-.025.357l3.958.58c.044-.307.068-.62.068-.937h-4zm.955-1.086a6.737 6.737 0 01-3.38.902v4c1.954 0 3.792-.522 5.377-1.436l-1.997-3.466zm-3.38.902a6.737 6.737 0 01-3.379-.902l-1.998 3.465a10.737 10.737 0 005.378 1.437v-4z" fill="#fff" mask="url(#karura-icon-4-3_svg__b)"></path><path d="M24.694 32.977l8.628-8.422M44.331 25.295L56.53 39.894" stroke="#fff" stroke-width="2"></path><path stroke="#fff" stroke-width="2" stroke-linecap="round" d="M17.928 29.312v-2.931"></path><path d="M20.433 23.104c0 1.12-.895 2.008-1.975 2.008-1.081 0-1.976-.889-1.976-2.008s.895-2.007 1.976-2.007c1.08 0 1.975.888 1.975 2.007zM46.75 18.765c0 4.399-3.526 7.946-7.851 7.946s-7.85-3.547-7.85-7.946c0-4.4 3.525-7.947 7.85-7.947 4.325 0 7.85 3.548 7.85 7.947z" stroke="#fff" stroke-width="2"></path><path d="M40.85 16.901c0 1.105-.884 1.982-1.95 1.982-1.067 0-1.95-.877-1.95-1.982s.883-1.982 1.95-1.982c1.066 0 1.95.877 1.95 1.982z" fill="url(#karura-icon-4-3_svg__paint4_linear)" stroke="#fff" stroke-width="2"></path><mask id="karura-icon-4-3_svg__c" fill="#fff"><path fill-rule="evenodd" clip-rule="evenodd" d="M34.52 26.541a4.47 4.47 0 01-.047-.645V25.8a4.425 4.425 0 118.85 0v.096c0 .22-.016.435-.047.646a8.737 8.737 0 01-4.378 1.17 8.737 8.737 0 01-4.379-1.17z"></path></mask><path d="M34.52 26.541l-1.98.29.14.958.84.485 1-1.733zm8.756 0l.999 1.733.84-.484.14-.959-1.979-.29zm-6.778-.289a2.465 2.465 0 01-.025-.356h-4c0 .316.023.628.067.934l3.958-.578zm-.025-.356V25.8h-4v.096h4zm0-.096a2.425 2.425 0 012.425-2.425v-4a6.425 6.425 0 00-6.425 6.425h4zm2.425-2.425a2.425 2.425 0 012.425 2.425h4a6.425 6.425 0 00-6.425-6.425v4zm2.425 2.425v.096h4V25.8h-4zm0 .096c0 .122-.009.241-.026.356l3.958.579a6.46 6.46 0 00.068-.935h-4zm.954-1.087a6.737 6.737 0 01-3.379.902v4c1.953 0 3.791-.522 5.377-1.437l-1.998-3.465zm-3.379.902a6.736 6.736 0 01-3.38-.902l-1.998 3.465a10.737 10.737 0 005.378 1.437v-4z" fill="#fff" mask="url(#karura-icon-4-3_svg__c)"></path><path transform="matrix(.87244 .48872 -.4807 .87689 46.446 20.522)" stroke="#fff" stroke-width="2" stroke-linecap="round" d="M1-1h3.176"></path><path d="M52.403 25.754a2.014 2.014 0 01-.768-2.723 1.97 1.97 0 012.691-.784c.95.532 1.302 1.749.769 2.722a1.97 1.97 0 01-2.692.785z" stroke="#fff" stroke-width="2"></path><path transform="matrix(.70976 .70445 -.69672 .71734 24.755 44.704)" stroke="#fff" stroke-width="2" stroke-linecap="round" d="M1-1h3.19"></path><path d="M29.116 51.352a2.018 2.018 0 01-.026-2.831c.767-.79 2.02-.801 2.801-.027.78.775.792 2.043.026 2.832-.767.789-2.02.8-2.801.026z" stroke="#fff" stroke-width="2"></path><path transform="matrix(-.70976 .70445 .69672 .71734 46.915 53.278)" stroke="#fff" stroke-width="2" stroke-linecap="round" d="M1-1h3.19"></path><path d="M42.554 59.926c.78-.775.792-2.042.026-2.832-.767-.789-2.021-.8-2.801-.026a2.018 2.018 0 00-.026 2.832c.767.789 2.02.8 2.801.026z" stroke="#fff" stroke-width="2"></path><defs><linearGradient id="karura-icon-4-3_svg__paint0_linear" x1="108.197" y1="47.108" x2="53.301" y2="-17.119" gradientUnits="userSpaceOnUse"><stop stop-color="#E40C5B"></stop><stop offset="1" stop-color="#FF4C3B"></stop></linearGradient><linearGradient id="karura-icon-4-3_svg__paint1_linear" x1="108.197" y1="47.108" x2="53.301" y2="-17.119" gradientUnits="userSpaceOnUse"><stop stop-color="#E40C5B"></stop><stop offset="1" stop-color="#FF4C3B"></stop></linearGradient><linearGradient id="karura-icon-4-3_svg__paint2_linear" x1="24.585" y1="37.798" x2="20.03" y2="32.526" gradientUnits="userSpaceOnUse"><stop offset="0.5" stop-color="#FF4C3B"></stop><stop offset="1" stop-color="#E40C5B"></stop></linearGradient><linearGradient id="karura-icon-4-3_svg__paint3_linear" x1="59.245" y1="46.745" x2="54.69" y2="41.474" gradientUnits="userSpaceOnUse"><stop stop-color="#E40C5B"></stop><stop offset="1" stop-color="#FF4C3B"></stop></linearGradient><linearGradient id="karura-icon-4-3_svg__paint4_linear" x1="44.816" y1="17.821" x2="40.261" y2="12.55" gradientUnits="userSpaceOnUse"><stop stop-color="#E40C5B"></stop><stop offset="1" stop-color="#FF4C3B"></stop></linearGradient></defs></svg>