<svg width="72" height="72" fill="none" xmlns="http://www.w3.org/2000/svg"><rect width="72" height="72" rx="8" fill="url(#karura-icon-4-4_svg__paint0_linear)"></rect><circle cx="36.307" cy="36.307" r="25.182" stroke="#fff" stroke-width="2"></circle><path fill-rule="evenodd" clip-rule="evenodd" d="M26.193 18.14a1 1 0 00-.366.005c-.55.11-1.05.28-1.458.567-.436.306-.721.713-.863 1.193-.132.447-.126.908-.082 1.324.044.42.137.878.233 1.34a1 1 0 00.554.699l7.172 3.368-1.595.93a.999.999 0 00-.361.363c-1.042 1.796-1.02 3.38-.667 4.961-1.839-.902-3.996-2.259-5.968-3.906a1 1 0 00-.622-.232c-1.31-.025-2.52.107-3.288.889-.792.804-.812 1.977-.716 3.069a1 1 0 00.38.7c1.36 1.064 2.257 1.878 2.948 2.697.684.81 1.194 1.659 1.746 2.819a1 1 0 00.206.287c4.573 4.445 7.818 7.074 13.098 10.813l1.581 5.5a1 1 0 001.417.614l13.283-6.808a1 1 0 00.396-1.413l-2.911-4.74c.264-2.026-.15-3.677-.687-5.209-.161-.46-.327-.895-.49-1.324-.419-1.097-.817-2.142-1.055-3.38 0-.036 0-.08-.002-.133a9.313 9.313 0 00-.038-.615 12.336 12.336 0 00-.38-2.07 12.366 12.366 0 00-3.367-5.71 1 1 0 00-.64-.278l-5.309-.285c-.4-1.225-.887-2.44-1.559-3.527a1 1 0 00-.609-.445c-4.187-1.044-6.304-1.432-9.981-2.064zm12.75 8.07l.22.805v.001c.369 1.362.713 2.633 1.178 3.773a1 1 0 01-1.852.755c-.516-1.265-.903-2.696-1.277-4.076-.1-.369-.198-.733-.298-1.09-.447-1.597-.927-3.083-1.63-4.335-3.784-.935-5.826-1.313-9.237-1.9-.294.073-.45.15-.529.206-.065.046-.08.075-.094.124-.025.082-.043.242-.011.547.02.19.055.403.103.651l7.142 3.354a1 1 0 01.539.64l.154.554c.408 1.463.771 2.766.925 4.104.177 1.545.077 3.12-.465 5.12a1 1 0 01-1.93-.523c.482-1.78.553-3.1.408-4.369a15.34 15.34 0 00-.362-1.917l-.893.52c-.846 1.62-.49 2.925.213 5.182a1 1 0 01-1.291 1.24c-2.28-.814-5.39-2.56-8.167-4.826-1.054.012-1.378.188-1.482.294-.079.08-.204.303-.176 1.069 1.226.978 2.142 1.816 2.891 2.705.792.937 1.372 1.9 1.946 3.085 4.5 4.365 7.687 6.93 13.016 10.692a1 1 0 01.385.54l1.342 4.671 11.24-5.761-2.536-4.13a1 1 0 01-.134-.69c.291-1.727-.027-3.117-.545-4.593-.127-.362-.271-.74-.421-1.134-.447-1.172-.95-2.488-1.22-3.96a1 1 0 01-.017-.21v-.001c0-.001 0-.002 1 .03l-1-.032v.001-.024l-.001-.116a7.322 7.322 0 00-.03-.482 10.33 10.33 0 00-.319-1.732 10.383 10.383 0 00-2.565-4.535l-4.22-.227z" fill="#fff"></path><path d="M28.831 34.086c1.06.624 2.38 1.297 4.197 1.095" stroke="#fff" stroke-width="2"></path><circle cx="23.358" cy="26.241" r="1.372" stroke="#fff" stroke-width="2"></circle><rect width="72" height="72" rx="8" fill="url(#karura-icon-4-4_svg__paint1_linear)"></rect><path stroke="#fff" stroke-width="2" stroke-linecap="round" d="M23.46 36.496h-5.068"></path><path d="M13.857 32.927c1.67 0 3.04 1.37 3.04 3.079 0 1.71-1.37 3.078-3.04 3.078-1.669 0-3.039-1.369-3.039-3.078 0-1.71 1.37-3.079 3.04-3.079z" stroke="#fff" stroke-width="2"></path><path transform="scale(.99514 -1.00483) rotate(-45 -29.566 -74.565)" stroke="#fff" stroke-width="2" stroke-linecap="round" d="M1-1h5.103"></path><path d="M53.145 48.71a3.023 3.023 0 00-4.305 0 3.095 3.095 0 000 4.346 3.023 3.023 0 004.305 0 3.095 3.095 0 000-4.346z" fill="url(#karura-icon-4-4_svg__paint2_linear)" stroke="#fff" stroke-width="2"></path><path transform="scale(-.99514 1.00483) rotate(-45 20.532 49.29)" stroke="#fff" stroke-width="2" stroke-linecap="round" d="M1-1h5.103"></path><path d="M19.407 23.338a3.023 3.023 0 004.305 0 3.095 3.095 0 000-4.347 3.023 3.023 0 00-4.305 0 3.095 3.095 0 000 4.347z" fill="url(#karura-icon-4-4_svg__paint3_linear)" stroke="#fff" stroke-width="2"></path><mask id="karura-icon-4-4_svg__a" fill="#fff"><path fill-rule="evenodd" clip-rule="evenodd" d="M34.293 24.186h4.553v3.355c.93.25 1.801.644 2.59 1.157l2.645-2.682 3.213 3.258-2.767 2.805c.273.514.5 1.056.673 1.622h2.915v4.597H45.42a9.191 9.191 0 01-1.137 2.91l2.332 2.365-3.213 3.258-2.383-2.416a9.003 9.003 0 01-2.172.901V48.4h-4.553v-3.048a9.027 9.027 0 01-3.085-1.44l-2.299 2.34-3.193-3.276 2.557-2.602a9.19 9.19 0 01-.706-2.153H23.95v-4.598h3.877c.155-.49.35-.962.58-1.413l-2.789-2.828 3.213-3.258 2.617 2.654a9.019 9.019 0 012.846-1.273v-3.319z"></path></mask><path d="M38.846 24.186h2v-2h-2v2zm-4.553 0v-2h-2v2h2zm4.553 3.355h-2v1.534l1.482.398.518-1.932zm2.59 1.157l-1.093 1.676 1.369.893 1.147-1.164-1.424-1.405zm2.645-2.682l1.424-1.405-1.424-1.444-1.424 1.444 1.424 1.405zm3.213 3.258l1.424 1.404 1.384-1.404-1.384-1.405-1.424 1.405zm-2.767 2.805l-1.424-1.404-1.033 1.047.691 1.298 1.766-.94zm.673 1.622l-1.912.587.434 1.413H45.2v-2zm2.915 0h2v-2h-2v2zm0 4.597v2h2v-2h-2zm-2.696 0v-2h-1.632l-.327 1.6 1.96.4zm-1.137 2.91l-1.712-1.033-.803 1.33 1.091 1.108 1.424-1.405zm2.332 2.365l1.424 1.404 1.385-1.404-1.385-1.404-1.424 1.404zm-3.213 3.258l-1.424 1.404 1.424 1.444 1.424-1.444-1.424-1.404zm-2.383-2.416l1.425-1.405-1.086-1.1-1.34.773 1.002 1.732zm-2.172.901l-.518-1.932-1.482.398v1.534h2zm0 3.084v2h2v-2h-2zm-4.553 0h-2v2h2v-2zm0-3.048h2v-1.56l-1.512-.38-.488 1.94zm-3.085-1.44l1.17-1.621-1.393-1.007-1.204 1.226 1.427 1.402zm-2.299 2.34l-1.432 1.396 1.427 1.464 1.432-1.459-1.427-1.401zm-3.193-3.276l-1.426-1.402-1.372 1.397 1.366 1.4 1.432-1.395zm2.557-2.602l1.426 1.401.976-.994-.593-1.26-1.81.853zm-.706-2.153l1.963-.384-.316-1.616h-1.647v2zm-3.618 0h-2v2h2v-2zm0-4.598v-2h-2v2h2zm3.877 0v2h1.464l.442-1.395-1.906-.605zm.58-1.413l1.78.912.66-1.287-1.015-1.029-1.424 1.404zm-2.789-2.828l-1.424-1.405-1.385 1.405 1.385 1.404 1.424-1.404zm3.213-3.258l1.424-1.405-1.424-1.444-1.424 1.444 1.424 1.405zm2.617 2.654l-1.424 1.404 1.166 1.183 1.377-.93-1.119-1.657zm2.846-1.273l.488 1.94 1.512-.38v-1.56h-2zm4.553-5.319h-4.553v4h4.553v-4zm2 5.355v-3.355h-4v3.355h4zm-2.518 1.932c.722.193 1.4.5 2.015.9l2.185-3.35a11.013 11.013 0 00-3.163-1.414l-1.037 3.864zm4.329-4.862l-2.646 2.683 2.848 2.809 2.646-2.683-2.848-2.809zm6.06 3.258l-3.212-3.258-2.848 2.81 3.213 3.257 2.848-2.809zm-2.766 5.615l2.767-2.806-2.848-2.809-2.767 2.806 2.848 2.809zm-3.19-.464c.214.401.392.825.527 1.268l3.824-1.174a11.197 11.197 0 00-.82-1.975l-3.53 1.88zm5.354-1.32H45.2v4h2.915v-4zm2 6.598v-4.597h-4v4.597h4zm-4.696 2h2.696v-4H45.42v4zm-1.96-2.4a7.192 7.192 0 01-.889 2.277l3.425 2.067a11.193 11.193 0 001.384-3.543l-3.92-.801zm-.6 4.715l2.331 2.364 2.848-2.808-2.332-2.365-2.848 2.809zm2.331-.444l-3.213 3.258 2.848 2.808 3.213-3.258-2.848-2.808zm-.365 3.258l-2.383-2.417-2.848 2.809 2.383 2.416 2.848-2.809zm-4.807-2.744a7.002 7.002 0 01-1.69.701l1.037 3.864a11 11 0 002.654-1.102l-2.001-3.463zm.828 5.718v-3.085h-4V48.4h4zm-6.553 2h4.553v-4h-4.553v4zm-2-5.05v3.05h4v-3.05h-4zm2.488-1.939a7.025 7.025 0 01-2.402-1.121l-2.343 3.242a11.025 11.025 0 003.77 1.758l.975-3.879zm-4.445 4.241l2.299-2.34-2.854-2.803-2.299 2.34 2.854 2.803zm-6.052-3.281l3.193 3.276 2.864-2.792-3.192-3.276-2.865 2.792zm2.562-5.4l-2.556 2.602 2.853 2.803 2.556-2.602-2.853-2.803zm3.236.55a7.19 7.19 0 01-.552-1.685l-3.926.768c.18.919.471 1.798.86 2.621l3.618-1.705zm-2.515-3.301H23.95v4h3.618v-4zm-1.618 2v-4.598h-4v4.598h4zm-2-2.598h3.877v-4h-3.877v4zm5.783-1.395c.122-.384.274-.753.455-1.106l-3.56-1.823c-.281.548-.519 1.123-.708 1.72l3.813 1.209zm.099-3.422l-2.79-2.829-2.848 2.809 2.79 2.829 2.848-2.809zm-2.79-.02l3.213-3.258-2.848-2.809-3.213 3.258 2.848 2.809zm.365-3.258l2.617 2.654 2.848-2.808-2.617-2.655-2.848 2.809zm5.16 2.908a7.019 7.019 0 012.215-.991l-.976-3.88a11.02 11.02 0 00-3.476 1.555l2.237 3.316zm-.273-6.25v3.32h4v-3.32h-4z" fill="#fff" mask="url(#karura-icon-4-4_svg__a)"></path><path d="M40.122 36.255c0 1.996-1.6 3.598-3.553 3.598-1.953 0-3.553-1.602-3.553-3.598 0-1.996 1.6-3.598 3.553-3.598 1.953 0 3.553 1.602 3.553 3.598z" fill="url(#karura-icon-4-4_svg__paint4_linear)" stroke="#fff" stroke-width="2"></path><path stroke="#fff" stroke-width="2" stroke-linecap="round" d="M48.384 35.698h5.068"></path><path d="M57.986 39.267c-1.669 0-3.039-1.369-3.039-3.078 0-1.71 1.37-3.079 3.04-3.079 1.669 0 3.038 1.37 3.038 3.079s-1.37 3.078-3.039 3.078z" stroke="#fff" stroke-width="2"></path><path stroke="#fff" stroke-width="2" stroke-linecap="round" d="M36.044 23.602v-5.137"></path><path d="M39.553 14.416c0 1.679-1.345 3.023-2.984 3.023s-2.984-1.344-2.984-3.023 1.345-3.023 2.984-3.023c1.64 0 2.984 1.344 2.984 3.023z" stroke="#fff" stroke-width="2"></path><path transform="matrix(0 1 1 0 37.257 47.398)" stroke="#fff" stroke-width="2" stroke-linecap="round" d="M1-1h5.137"></path><path d="M39.681 58.159c0-1.679-1.345-3.023-2.984-3.023s-2.984 1.344-2.984 3.023c0 1.678 1.345 3.023 2.984 3.023 1.64 0 2.984-1.345 2.984-3.023z" stroke="#fff" stroke-width="2"></path><path transform="scale(-.99514 1.00483) rotate(45 -68.252 -12.74)" stroke="#fff" stroke-width="2" stroke-linecap="round" d="M1-1h5.103"></path><path d="M23.157 54.128a3.095 3.095 0 000-4.346 3.023 3.023 0 00-4.305 0 3.095 3.095 0 000 4.346 3.023 3.023 0 004.305 0z" fill="url(#karura-icon-4-4_svg__paint5_linear)" stroke="#fff" stroke-width="2"></path><path transform="scale(.99514 -1.00483) rotate(45 55.791 40.456)" stroke="#fff" stroke-width="2" stroke-linecap="round" d="M1-1h5.103"></path><path d="M50.431 18.352a3.095 3.095 0 000 4.346 3.023 3.023 0 004.305 0 3.095 3.095 0 000-4.346 3.023 3.023 0 00-4.305 0z" fill="url(#karura-icon-4-4_svg__paint6_linear)" stroke="#fff" stroke-width="2"></path><defs><linearGradient id="karura-icon-4-4_svg__paint0_linear" x1="108.197" y1="47.108" x2="53.301" y2="-17.119" gradientUnits="userSpaceOnUse"><stop stop-color="#E40C5B"></stop><stop offset="1" stop-color="#FF4C3B"></stop></linearGradient><linearGradient id="karura-icon-4-4_svg__paint1_linear" x1="108.197" y1="47.108" x2="53.301" y2="-17.119" gradientUnits="userSpaceOnUse"><stop stop-color="#E40C5B"></stop><stop offset="1" stop-color="#FF4C3B"></stop></linearGradient><linearGradient id="karura-icon-4-4_svg__paint2_linear" x1="55.839" y1="44.21" x2="56.593" y2="53.751" gradientUnits="userSpaceOnUse"><stop stop-color="#E40C5B"></stop><stop offset="1" stop-color="#FF4C3B"></stop></linearGradient><linearGradient id="karura-icon-4-4_svg__paint3_linear" x1="16.713" y1="27.838" x2="15.958" y2="18.297" gradientUnits="userSpaceOnUse"><stop stop-color="#E40C5B"></stop><stop offset="1" stop-color="#FF4C3B"></stop></linearGradient><linearGradient id="karura-icon-4-4_svg__paint4_linear" x1="45.701" y1="37.674" x2="38.679" y2="29.538" gradientUnits="userSpaceOnUse"><stop stop-color="#E40C5B"></stop><stop offset="1" stop-color="#FF4C3B"></stop></linearGradient><linearGradient id="karura-icon-4-4_svg__paint5_linear" x1="27.613" y1="56.849" x2="18.161" y2="57.582" gradientUnits="userSpaceOnUse"><stop stop-color="#E40C5B"></stop><stop offset="1" stop-color="#FF4C3B"></stop></linearGradient><linearGradient id="karura-icon-4-4_svg__paint6_linear" x1="45.975" y1="15.631" x2="55.426" y2="14.898" gradientUnits="userSpaceOnUse"><stop stop-color="#E40C5B"></stop><stop offset="1" stop-color="#FF4C3B"></stop></linearGradient></defs></svg>