<svg width="89" height="75" viewBox="0 0 89 76" fill="none" xmlns="http://www.w3.org/2000/svg"><circle cx="48.708" cy="38.709" r="27.775" stroke="url(#tokenicon_svg__paint0_linear)" stroke-width="4"></circle><circle cx="48.708" cy="38.709" r="27.775" stroke="#fff" stroke-opacity="0.1" stroke-width="4"></circle><path d="M65.076 38.658c0 9.207-7.41 16.659-16.538 16.659C39.411 55.317 32 47.865 32 38.658 32 29.452 39.41 22 48.538 22s16.538 7.452 16.538 16.658z" fill="url(#tokenicon_svg__paint1_linear)"></path><path d="M65.076 38.658c0 9.207-7.41 16.659-16.538 16.659C39.411 55.317 32 47.865 32 38.658 32 29.452 39.41 22 48.538 22s16.538 7.452 16.538 16.658z" fill="#fff" fill-opacity="0.1"></path><path d="M65.076 38.658c0 9.207-7.41 16.659-16.538 16.659C39.411 55.317 32 47.865 32 38.658 32 29.452 39.41 22 48.538 22s16.538 7.452 16.538 16.658z" stroke="#fff" stroke-width="2"></path><path fill-rule="evenodd" clip-rule="evenodd" d="M41 31l7.664 2.257L47.52 34.4l5.614 5.614 1.143-1.143 2.257 7.663-7.664-2.257 1.142-1.142L44.4 37.52l-1.143 1.143L41 31z" fill="#fff"></path><path d="M51.872 3.407c3.079 3.168 3.045 8.273-.075 11.401a7.849 7.849 0 01-11.223-.072c-3.078-3.168-3.045-8.272.075-11.4a7.849 7.849 0 0111.223.071z" fill="#F2F2F2"></path><path d="M52.146 15.167c3.315-3.324 3.35-8.748.08-12.114A8.34 8.34 0 0040.3 2.977c-3.315 3.324-3.35 8.747-.08 12.114a8.34 8.34 0 0011.925.076z" stroke="#645AFF" stroke-opacity="0.5"></path><g clip-path="url(#tokenicon_svg__clip0)"><path d="M46.223 4c-2.329.008-4.214 1.7-4.223 3.788 0 .419.075.834.223 1.23.11.27.436.416.742.333.297-.102.454-.393.36-.664a2.266 2.266 0 01-.165-.966c.05-1.508 1.455-2.695 3.137-2.65 1.681.046 3.003 1.306 2.952 2.815-.047 1.412-1.287 2.56-2.86 2.645 0 0-.592.032-.887.065a3.375 3.375 0 00-.323.057.042.042 0 01-.055 0 .032.032 0 010-.042l.091-.45.557-2.245c.067-.28-.132-.557-.445-.617-.313-.06-.62.119-.687.4 0 0-1.324 5.497-1.324 5.547-.076.267.104.54.402.607l.01.002h.03c.298.07.602-.091.678-.358l.004-.014v-.025c.016-.065.183-.796.183-.796.127-.552.623-.975 1.244-1.06.128-.018.665-.05.665-.05 2.319-.208 4.012-2.063 3.78-4.144-.211-1.897-1.963-3.358-4.09-3.408z" fill="#1E1E1E"></path><path d="M46.479 12.735c-.381-.071-.753.148-.833.49l-.002.009c-.082.339.157.674.536.748h.021c.37.08.743-.124.832-.456l.002-.007v-.035c.066-.343-.178-.672-.556-.75z" fill="#E6007A"></path></g><circle cx="22.182" cy="7.647" r="2.747" stroke="#645AFF" stroke-opacity="0.5"></circle><circle cx="27.848" cy="72.251" r="2.747" stroke="#645AFF" stroke-opacity="0.5"></circle><circle cx="72.204" cy="69.004" r="4.034" stroke="#645AFF" stroke-opacity="0.5"></circle><circle cx="86.836" cy="31.5" r="1.665" stroke="url(#tokenicon_svg__paint2_linear)"></circle><circle cx="86.836" cy="31.5" r="1.665" stroke="#fff" stroke-opacity="0.1"></circle><circle cx="74.369" cy="6.565" r="1.665" stroke="url(#tokenicon_svg__paint3_linear)"></circle><circle cx="74.369" cy="6.565" r="1.665" stroke="#fff" stroke-opacity="0.1"></circle><circle cx="14.299" cy="30.366" r="1.665" stroke="url(#tokenicon_svg__paint4_linear)"></circle><circle cx="14.299" cy="30.366" r="1.665" stroke="#fff" stroke-opacity="0.1"></circle><path d="M24.872 37.736c3.079 3.169 3.045 8.273-.075 11.402a7.849 7.849 0 01-11.223-.072c-3.078-3.168-3.045-8.273.075-11.401a7.849 7.849 0 0111.223.072z" fill="#F2F2F2"></path><path d="M25.146 49.496c3.315-3.324 3.35-8.747.08-12.114a8.34 8.34 0 00-11.925-.076c-3.315 3.324-3.35 8.748-.08 12.114a8.34 8.34 0 0011.925.076z" stroke="#645AFF" stroke-opacity="0.5"></path><g filter="url(#tokenicon_svg__filter0_d)" fill="#333"><path opacity="0.9" d="M19.317 37l.08.273v7.935l-.08.08-3.683-2.177L19.317 37z"></path><path opacity="0.8" d="M19.317 37L23 43.111l-3.683 2.178V37z"></path><path d="M19.316 45.986l.045.055v2.827l-.045.132-3.685-5.19 3.685 2.176z"></path><path opacity="0.9" d="M19.317 49v-3.014L23 43.81 19.317 49z"></path><path d="M19.314 45.288l-3.683-2.177 3.683-1.674v3.851z"></path><path opacity="0.7" d="M23 43.111l-3.683 2.177v-3.85L23 43.11z"></path></g><path d="M81.872 46.736c3.079 3.169 3.045 8.273-.075 11.402a7.849 7.849 0 01-11.223-.072c-3.078-3.168-3.045-8.273.075-11.401a7.849 7.849 0 0111.223.072z" fill="#F2F2F2"></path><path d="M82.146 58.496c3.315-3.324 3.35-8.747.08-12.114a8.34 8.34 0 00-11.925-.076c-3.315 3.324-3.35 8.748-.08 12.114a8.34 8.34 0 0011.925.076z" stroke="#645AFF" stroke-opacity="0.5"></path><path fill-rule="evenodd" clip-rule="evenodd" d="M79.98 51.271c.165-1.116-.682-1.716-1.84-2.117l.376-1.512-.918-.23-.366 1.473a35.47 35.47 0 00-.735-.173l.368-1.483-.917-.229-.375 1.512-1.85-.46-.245.983s.681.157.667.167c.371.093.439.34.427.535l-1.03 4.143c-.045.113-.16.283-.42.218.01.014-.666-.168-.666-.168L72 54.986l1.848.468-.38 1.53.916.23.377-1.514c.25.068.493.13.73.19l-.374 1.507.917.229.38-1.527c1.565.297 2.741.177 3.236-1.242.399-1.143-.02-1.803-.843-2.233.6-.139 1.05-.535 1.171-1.352h.001zm-2.098 2.95c-.261 1.05-1.898.616-2.646.417a13.644 13.644 0 00-.178-.046l.503-2.027c.063.016.14.033.226.052.774.175 2.36.532 2.095 1.604zm-1.938-2.544c.624.167 1.986.532 2.223-.422.242-.974-1.08-1.269-1.728-1.413a7.98 7.98 0 01-.19-.043l-.456 1.838.15.04z" fill="#333"></path><defs><linearGradient id="tokenicon_svg__paint0_linear" x1="89.69" y1="78.586" x2="18.356" y2="17.145" gradientUnits="userSpaceOnUse"><stop stop-color="#645AFF"></stop><stop offset="0.603" stop-color="#E40C5B"></stop><stop offset="1" stop-color="#FF4C3B"></stop></linearGradient><linearGradient id="tokenicon_svg__paint1_linear" x1="72.678" y1="62.308" x2="30.416" y2="26.155" gradientUnits="userSpaceOnUse"><stop stop-color="#645AFF"></stop><stop offset="0.603" stop-color="#E40C5B"></stop><stop offset="1" stop-color="#FF4C3B"></stop></linearGradient><linearGradient id="tokenicon_svg__paint2_linear" x1="89.815" y1="34.399" x2="84.629" y2="29.932" gradientUnits="userSpaceOnUse"><stop stop-color="#645AFF"></stop><stop offset="0.603" stop-color="#E40C5B"></stop><stop offset="1" stop-color="#FF4C3B"></stop></linearGradient><linearGradient id="tokenicon_svg__paint3_linear" x1="77.348" y1="9.464" x2="72.162" y2="4.997" gradientUnits="userSpaceOnUse"><stop stop-color="#645AFF"></stop><stop offset="0.603" stop-color="#E40C5B"></stop><stop offset="1" stop-color="#FF4C3B"></stop></linearGradient><linearGradient id="tokenicon_svg__paint4_linear" x1="17.278" y1="33.265" x2="12.092" y2="28.799" gradientUnits="userSpaceOnUse"><stop stop-color="#645AFF"></stop><stop offset="0.603" stop-color="#E40C5B"></stop><stop offset="1" stop-color="#FF4C3B"></stop></linearGradient><clipPath id="tokenicon_svg__clip0"><path fill="#fff" transform="translate(42 4)" d="M0 0h8.333v10H0z"></path></clipPath><filter id="tokenicon_svg__filter0_d" x="0.631" y="23" width="37.369" height="42" filterUnits="userSpaceOnUse" color-interpolation-filters="sRGB"><feFlood flood-opacity="0" result="BackgroundImageFix"></feFlood><feColorMatrix in="SourceAlpha" values="0 0 0 0 0 0 0 0 0 0 0 0 0 0 0 0 0 0 127 0" result="hardAlpha"></feColorMatrix><feOffset dy="1"></feOffset><feGaussianBlur stdDeviation="7.5"></feGaussianBlur><feColorMatrix values="0 0 0 0 0.392157 0 0 0 0 0.352941 0 0 0 0 1 0 0 0 0.3 0"></feColorMatrix><feBlend in2="BackgroundImageFix" result="effect1_dropShadow"></feBlend><feBlend in="SourceGraphic" in2="effect1_dropShadow" result="shape"></feBlend></filter></defs></svg>