<svg width="72" height="72" fill="none" xmlns="http://www.w3.org/2000/svg"><rect width="72" height="72" rx="8" fill="url(#karura-icon-4-2_svg__paint0_linear)"></rect><circle cx="36.307" cy="36.307" r="25.182" stroke="#fff" stroke-width="2"></circle><path fill-rule="evenodd" clip-rule="evenodd" d="M26.193 18.14a1 1 0 00-.366.005c-.55.11-1.05.28-1.458.567-.436.306-.721.713-.863 1.193-.132.447-.126.908-.082 1.324.044.42.137.878.233 1.34a1 1 0 00.554.699l7.172 3.368-1.595.93a.999.999 0 00-.361.363c-1.042 1.796-1.02 3.38-.667 4.961-1.839-.902-3.996-2.259-5.968-3.906a1 1 0 00-.622-.232c-1.31-.025-2.52.107-3.288.889-.792.804-.812 1.977-.716 3.069a1 1 0 00.38.7c1.36 1.064 2.257 1.878 2.948 2.697.684.81 1.194 1.659 1.746 2.819a1 1 0 00.206.287c4.573 4.445 7.818 7.074 13.098 10.813l1.581 5.5a1 1 0 001.417.614l13.283-6.808a1 1 0 00.396-1.413l-2.911-4.74c.264-2.026-.15-3.677-.687-5.209-.161-.46-.327-.895-.49-1.324-.419-1.097-.817-2.142-1.055-3.38 0-.036 0-.08-.002-.133a9.313 9.313 0 00-.038-.615 12.336 12.336 0 00-.38-2.07 12.366 12.366 0 00-3.367-5.71 1 1 0 00-.64-.278l-5.309-.285c-.4-1.225-.887-2.44-1.559-3.527a1 1 0 00-.609-.445c-4.187-1.044-6.304-1.432-9.981-2.064zm12.75 8.07l.22.805v.001c.369 1.362.713 2.633 1.178 3.773a1 1 0 01-1.852.755c-.516-1.265-.903-2.696-1.277-4.076-.1-.369-.198-.733-.298-1.09-.447-1.597-.927-3.083-1.63-4.335-3.784-.935-5.826-1.313-9.237-1.9-.294.073-.45.15-.529.206-.065.046-.08.075-.094.124-.025.082-.043.242-.011.547.02.19.055.403.103.651l7.142 3.354a1 1 0 01.539.64l.154.554c.408 1.463.771 2.766.925 4.104.177 1.545.077 3.12-.465 5.12a1 1 0 01-1.93-.523c.482-1.78.553-3.1.408-4.369a15.34 15.34 0 00-.362-1.917l-.893.52c-.846 1.62-.49 2.925.213 5.182a1 1 0 01-1.291 1.24c-2.28-.814-5.39-2.56-8.167-4.826-1.054.012-1.378.188-1.482.294-.079.08-.204.303-.176 1.069 1.226.978 2.142 1.816 2.891 2.705.792.937 1.372 1.9 1.946 3.085 4.5 4.365 7.687 6.93 13.016 10.692a1 1 0 01.385.54l1.342 4.671 11.24-5.761-2.536-4.13a1 1 0 01-.134-.69c.291-1.727-.027-3.117-.545-4.593-.127-.362-.271-.74-.421-1.134-.447-1.172-.95-2.488-1.22-3.96a1 1 0 01-.017-.21v-.001c0-.001 0-.002 1 .03l-1-.032v.001-.024l-.001-.116a7.322 7.322 0 00-.03-.482 10.33 10.33 0 00-.319-1.732 10.383 10.383 0 00-2.565-4.535l-4.22-.227z" fill="#fff"></path><path d="M28.831 34.086c1.06.624 2.38 1.297 4.197 1.095" stroke="#fff" stroke-width="2"></path><circle cx="23.358" cy="26.241" r="1.372" stroke="#fff" stroke-width="2"></circle><rect width="72" height="72" rx="8" fill="url(#karura-icon-4-2_svg__paint1_linear)"></rect><path stroke="#fff" stroke-width="2" stroke-linecap="round" d="M42.452 36.848l8.585 2.202"></path><circle r="5.382" transform="scale(1 -1) rotate(80 53.057 13.921)" stroke="#fff" stroke-width="2"></circle><path stroke="#fff" stroke-width="2" stroke-linecap="round" d="M26.43 29.874l-7.095-7.095"></path><path d="M12.906 21.923a4.318 4.318 0 106.108-6.107 4.318 4.318 0 00-6.107 6.107z" stroke="#fff" stroke-width="2"></path><circle cx="33.675" cy="34.949" r="7.509" stroke="#fff" stroke-width="2"></circle><circle cx="33.675" cy="34.949" r="3.255" stroke="#fff" stroke-width="2"></circle><path stroke="#fff" stroke-width="2" stroke-linecap="round" d="M37.322 42.53l2.822 8.166"></path><circle r="3.255" transform="scale(1 -1) rotate(21.691 162.907 80.603)" stroke="#fff" stroke-width="2"></circle><path stroke="#fff" stroke-width="2" stroke-linecap="round" d="M26.201 40.086l-6.772 6.511"></path><path d="M17.308 51.127a3.255 3.255 0 10-4.603-4.603 3.255 3.255 0 004.603 4.603z" stroke="#fff" stroke-width="2"></path><path stroke="#fff" stroke-width="2" stroke-linecap="round" d="M38.374 28.61l6.349-6.349"></path><circle r="3.255" transform="scale(-1 1) rotate(-45 -.163 67.63)" stroke="#fff" stroke-width="2"></circle><path stroke="#fff" stroke-width="2" stroke-linecap="round" d="M35.459 23.679l1.42-4.145M30.516 23.762l-1.42-4.145M21.421 33.385l-4.145-1.42M21.504 38.328l-4.145 1.42M28.157 45.591l-2.655 3.486M32.872 47.07l.04 4.382"></path><defs><linearGradient id="karura-icon-4-2_svg__paint0_linear" x1="108.197" y1="47.108" x2="53.301" y2="-17.119" gradientUnits="userSpaceOnUse"><stop stop-color="#E40C5B"></stop><stop offset="1" stop-color="#FF4C3B"></stop></linearGradient><linearGradient id="karura-icon-4-2_svg__paint1_linear" x1="108.197" y1="47.108" x2="53.301" y2="-17.119" gradientUnits="userSpaceOnUse"><stop stop-color="#E40C5B"></stop><stop offset="1" stop-color="#FF4C3B"></stop></linearGradient></defs></svg>