<svg width="48" height="48" viewBox="0 0 48 48" fill="none" xmlns="http://www.w3.org/2000/svg">
<circle cx="24" cy="24" r="24" fill="url(#paint0_linear)"/>
<path d="M20.7889 11.6622C20.5618 11.2535 20.1309 11 19.6632 11C19.1956 11 18.7647 11.2535 18.5375 11.6622L10.1235 26.9258C9.73235 27.7097 10.319 28.5905 11.1999 28.5905H16.876V34.3621C16.876 34.9504 17.3642 35.4401 17.9509 35.4401H21.277C21.8653 35.4401 22.3535 34.9504 22.3535 34.3637V28.5905H20.7889C20.1562 28.598 19.6142 28.1394 19.517 27.5141C19.517 27.3186 19.517 27.123 19.614 26.9258L24.3107 18.4132L20.7889 11.6622Z" fill="white" fill-opacity="0.7"/>
<path d="M28.2121 11.6618C28.4395 11.2538 28.87 11.001 29.337 11.001C29.8041 11.001 30.2345 11.2538 30.4619 11.6618L38.876 26.9254C39.2671 27.7092 38.6804 28.5901 37.7996 28.5901H32.2236V34.3616C32.2236 34.9499 31.7339 35.4396 31.1456 35.4396H27.6239C27.0315 35.4344 26.5526 34.9556 26.5474 34.3632V28.5901H28.1136C28.7463 28.5976 29.2883 28.1389 29.3855 27.5137C29.3855 27.3181 29.3855 27.1226 29.2869 26.9254L24.5918 18.4143L28.2121 11.6618Z" fill="white" fill-opacity="0.9"/>
<defs>
<linearGradient id="paint0_linear" x1="72.1311" y1="31.4056" x2="35.534" y2="-11.4124" gradientUnits="userSpaceOnUse">
<stop stop-color="#645AFF"/>
<stop offset="0.637566" stop-color="#E40C5B"/>
<stop offset="1" stop-color="#FF4C3B"/>
</linearGradient>
</defs>
</svg>
