<svg fill="none" height="200px" viewBox="0 0 190 32" xmlns="http://www.w3.org/2000/svg" style="height: 32px;"><path d="M21.8.044l-9.837 8.939a5.562 5.562 0 01-3.72 1.445l-2.932.007-.01-10.39H0v29.693h2.891c1.617 0 3.125-.857 3.916-2.265.007-.01.01-.02.016-.026.525-.943.788-2.806.737-4.078-.114-2.908-.582-3.664-.582-3.664-.098 1.993-2.18 2.101-2.18 2.101 1.481-1.414.674-2.484.674-2.484-2.622 1.867-3.277-.126-3.327-.307.082.07.828.693 2.246-1.25 1.499-2.053 3.498-5.476 4.77-6.356 1.274-.883 2.483-.81 2.483-.81s.696-.943 2.537-1.727c1.84-.779 3.02.364 3.02.364-1.882 1.518-4.437 4.011-4.58 7.584-.114 2.891 6.118 7.852 5.023 15.18.655-1.664.918-3.331.693-5.394-.18-1.665-1.253-5.142-1.253-5.142l5.985 8.27h6.618L16.752 11.964 29.687.044H21.8z" fill="url(#karura-page-logo_svg__paint0_linear)"></path><path d="M9.748 12.83c-.418.693-.418.905-.418.905s1.461-.247 1.857-1.984c.003 0-.933.24-1.44 1.079z" fill="url(#karura-page-logo_svg__paint1_linear)"></path><path d="M47.427 0L34.983 24.429l-2.717 5.309h5.947l2.717-5.31 6.497-12.747 6.5 12.748 2.718 5.309h5.946l-2.72-5.31L47.427 0z" fill="url(#karura-page-logo_svg__paint2_linear)"></path><path d="M91.853 8.071c0-2.208-.892-4.205-2.338-5.692a7.97 7.97 0 00-5.65-2.335H65.093v29.738H70.4v-13.68h5.308c1.91 0 3.568 1.018 4.5 2.55l.127.256 2.847 5.565 2.717 5.31h5.947l-2.717-5.31-4.248-8.454a7.128 7.128 0 002.293-.636 8.062 8.062 0 004.679-7.312zm-6.883 2.465a2.46 2.46 0 01-1.105.256l-13.462.041v-5.48h13.462c.934 0 1.573.424 1.911.766.297.298.807.978.807 1.955a2.69 2.69 0 01-1.614 2.462z" fill="url(#karura-page-logo_svg__paint3_linear)"></path><path d="M120.563 14.867c0 5.268-4.29 9.559-9.556 9.559-5.267 0-9.557-4.29-9.557-9.559V0h-5.307v14.867c0 8.198 6.668 14.868 14.864 14.868 8.195 0 14.864-6.67 14.864-14.868V0h-5.308v14.867z" fill="url(#karura-page-logo_svg__paint4_linear)"></path><path d="M156.835 8.071c0-2.208-.892-4.205-2.338-5.692a7.962 7.962 0 00-5.649-2.335h-18.774v29.738h5.311v-13.68h5.308c1.911 0 3.568 1.018 4.501 2.55l.127.256 2.847 5.565 2.717 5.31h5.947l-2.717-5.31-4.249-8.454a7.128 7.128 0 002.294-.636 8.06 8.06 0 004.675-7.312zm-6.88 2.465c-.338.17-.721.256-1.104.256l-13.466.041v-5.48h13.463c.933 0 1.572.424 1.91.766.298.298.807.978.807 1.955a2.692 2.692 0 01-1.61 2.462z" fill="url(#karura-page-logo_svg__paint5_linear)"></path><path d="M187.077 24.429L174.633 0l-12.447 24.429-2.717 5.309h5.947l2.717-5.31 6.5-12.747 6.497 12.748 2.718 5.309h5.947l-2.718-5.31z" fill="url(#karura-page-logo_svg__paint6_linear)"></path><defs><linearGradient id="karura-page-logo_svg__paint0_linear" x1="44.611" y1="20.953" x2="20.032" y2="-5.763" gradientUnits="userSpaceOnUse"><stop stop-color="#E40C5B"></stop><stop offset="1" stop-color="#FF4C3B"></stop></linearGradient><linearGradient id="karura-page-logo_svg__paint1_linear" x1="12.12" y1="13.049" x2="10.595" y2="11.379" gradientUnits="userSpaceOnUse"><stop stop-color="#E40C5B"></stop><stop offset="1" stop-color="#FF4C3B"></stop></linearGradient><linearGradient id="karura-page-logo_svg__paint2_linear" x1="77.837" y1="19.457" x2="55.237" y2="-7.508" gradientUnits="userSpaceOnUse"><stop stop-color="#E40C5B"></stop><stop offset="1" stop-color="#FF4C3B"></stop></linearGradient><linearGradient id="karura-page-logo_svg__paint3_linear" x1="105.306" y1="19.501" x2="82.383" y2="-4.633" gradientUnits="userSpaceOnUse"><stop stop-color="#E40C5B"></stop><stop offset="1" stop-color="#FF4C3B"></stop></linearGradient><linearGradient id="karura-page-logo_svg__paint4_linear" x1="140.816" y1="19.455" x2="118.144" y2="-7.065" gradientUnits="userSpaceOnUse"><stop stop-color="#E40C5B"></stop><stop offset="1" stop-color="#FF4C3B"></stop></linearGradient><linearGradient id="karura-page-logo_svg__paint5_linear" x1="170.289" y1="19.501" x2="147.366" y2="-4.633" gradientUnits="userSpaceOnUse"><stop stop-color="#E40C5B"></stop><stop offset="1" stop-color="#FF4C3B"></stop></linearGradient><linearGradient id="karura-page-logo_svg__paint6_linear" x1="205.04" y1="19.457" x2="182.44" y2="-7.508" gradientUnits="userSpaceOnUse"><stop stop-color="#E40C5B"></stop><stop offset="1" stop-color="#FF4C3B"></stop></linearGradient></defs></svg>