<?xml version="1.0" encoding="utf-8"?>
<!-- Generator: Adobe Illustrator 26.2.1, SVG Export Plug-In . SVG Version: 6.00 Build 0)  -->
<svg version="1.1" id="Layer_1" xmlns="http://www.w3.org/2000/svg" xmlns:xlink="http://www.w3.org/1999/xlink" x="0px" y="0px"
	 viewBox="0 0 23.39 22.27" style="enable-background:new 0 0 23.39 22.27;" xml:space="preserve">
<style type="text/css">
	.st0{fill:#DB475B;}
	.st1{fill:#FFFFFF;}
</style>
<g id="Group_28904" transform="translate(-238 -864)">
	<g id="Good_Icon" transform="translate(237.372 863.823)">
		<circle id="Ellipse_105" class="st0" cx="12.32" cy="11.31" r="11"/>
	</g>
	<g id="Close_Icon" transform="translate(239.216 865.216)">
		<path id="Close_Icon-2" class="st1" d="M13.9,14.81l-3.43-3.43l-3.42,3.42c-0.42,0.39-1.07,0.37-1.47-0.05
			c-0.38-0.4-0.38-1.02,0-1.42l3.42-3.42L5.59,6.5C5.19,6.08,5.21,5.42,5.63,5.03c0.4-0.38,1.02-0.38,1.42,0l3.42,3.42l3.43-3.43
			c0.42-0.39,1.07-0.37,1.47,0.05c0.38,0.4,0.38,1.02,0,1.42l-3.43,3.43l3.43,3.43c0.39,0.42,0.37,1.07-0.05,1.47
			C14.93,15.19,14.3,15.19,13.9,14.81z"/>
	</g>
</g>
</svg>
