<?xml version="1.0" encoding="UTF-8"?>
<svg width="88px" height="30px" viewBox="0 0 88 30" version="1.1" xmlns="http://www.w3.org/2000/svg" xmlns:xlink="http://www.w3.org/1999/xlink">
    <title>web3 foundation_grants_badge_black</title>
    <g id="优化" stroke="none" stroke-width="1" fill="none" fill-rule="evenodd">
        <g id="ACALA-Copy-8" transform="translate(-389.000000, -6746.000000)" fill="#98A5AE" fill-rule="nonzero">
            <g id="web3-foundation_grants_badge_black" transform="translate(389.000000, 6746.000000)">
                <path d="M15.0522918,9.80153284 L15.0522918,7.59386739 C15.0529589,6.79295161 14.5691345,6.07118089 13.8280136,5.76752598 L0.120418115,0.115400694 L0.120418115,1.33965153 L12.3303133,6.357073 C12.5873052,6.46859083 12.707767,6.76528379 12.601254,7.02439006 C12.5525525,7.14845477 12.454378,7.24662932 12.3303133,7.29533082 L0.120418115,12.3428568 L0.120418115,17.267456 L7.4784667,14.231916 L12.315261,16.226341 C12.440413,16.2772879 12.5397254,16.3765607 12.5907225,16.5016922 C12.6417195,16.6268238 12.6400896,16.7672353 12.5862018,16.8911494 C12.5375003,17.0152141 12.4393257,17.1133886 12.315261,17.1620901 L0.120418115,22.1945639 L0.120418115,29.9715672 L13.8104526,24.3344941 C14.5515736,24.0308392 15.0353979,23.3090685 15.0347034,22.5081527 L15.0347034,17.4480832 C15.0357329,16.6464616 14.5519677,15.9237877 13.8104526,15.619233 L8.96111475,13.6122644 L13.8104526,11.6178394 C14.5619653,11.329735 15.0565335,10.6063666 15.0522918,9.80153284 Z" id="Path"></path>
                <path d="M26.3414627,1.93672469 C26.4853547,1.68574165 26.7603747,1.53945442 27.0489191,1.56041808 C27.5506613,1.56041808 27.9721247,1.97435535 27.9721247,2.68432049 C27.9721247,3.39428562 27.5431352,3.8082229 27.0489191,3.8082229 C26.7603747,3.82918656 26.4853547,3.68289933 26.3414627,3.43191629 L26.3414627,4.46048769 L25.9776997,4.46048769 L25.9776997,1.59554003 L26.3414627,1.59554003 L26.3414627,1.93672469 Z M27.5757484,2.68933791 C27.5757484,2.18759576 27.3248773,1.87902434 26.9560968,1.87902434 C26.6324732,1.87902434 26.3264105,2.12989541 26.3264105,2.68933791 C26.3264105,3.2487804 26.6324732,3.49965148 26.9560968,3.49965148 C27.344947,3.49463405 27.5807658,3.19860619 27.5807658,2.68432049 L27.5757484,2.68933791 Z" id="Shape"></path>
                <path d="M29.2540759,1.96181179 C28.9179086,1.96181179 28.7523337,2.1499651 28.7523337,2.62411143 L28.7523337,3.7630661 L28.386062,3.7630661 L28.386062,1.59554003 L28.7422989,1.59554003 L28.7422989,1.97435535 C28.8490229,1.73411639 29.0890764,1.5809958 29.3519156,1.58550518 L29.4597902,1.58550518 L29.4597902,1.97435535 C29.3845288,1.96933793 29.3142849,1.96181179 29.2540759,1.96181179 Z" id="Path"></path>
                <path d="M30.6514278,3.8082229 C30.1496856,3.8082229 29.6178389,3.46703824 29.6178389,2.68432049 C29.6178389,1.90160274 30.1496856,1.56041808 30.6514278,1.56041808 C31.1531699,1.56041808 31.6875253,1.90160274 31.6875253,2.68432049 C31.6875253,3.46703824 31.1556786,3.8082229 30.6514278,3.8082229 Z M31.2986751,2.68432049 C31.2986751,2.10982573 30.9825776,1.88153305 30.6514278,1.88153305 C30.3202779,1.88153305 30.0066891,2.09477346 30.0066891,2.68432049 C30.0066891,3.27386751 30.3227867,3.48710792 30.6514278,3.48710792 C30.9800689,3.48710792 31.2986751,3.23874556 31.2986751,2.68432049 Z" id="Shape"></path>
                <path d="M32.4476646,1.59554003 L32.4476646,3.85337969 C32.4476646,4.30243891 32.3548423,4.44794413 31.9459225,4.44794413 L31.7602779,4.44794413 L31.7602779,4.14188142 L31.8606263,4.14188142 C32.0487796,4.14188142 32.0839016,4.08668979 32.0839016,3.86090582 L32.0839016,1.59554003 L32.4476646,1.59554003 Z M32.4476646,1.28696861 L32.0813929,1.28696861 L32.0813929,0.845435518 L32.4476646,0.845435518 L32.4476646,1.28696861 Z" id="Shape"></path>
                <path d="M33.9077343,3.48710792 C34.1613484,3.5115504 34.4009718,3.36675668 34.4972813,3.130871 L34.8710792,3.130871 C34.7472478,3.5559286 34.3444647,3.83766808 33.9027169,3.8082229 C33.2203476,3.8082229 32.8440409,3.30648075 32.8440409,2.68181178 C32.8207705,2.3910023 32.920882,2.10381439 33.1198899,1.89048943 C33.3188977,1.67716447 33.5984502,1.55737447 33.8901733,1.56041808 C34.5499642,1.56041808 34.9463405,2.11484315 34.8936576,2.79721247 L33.2404172,2.79721247 C33.2335781,2.9782722 33.300936,3.15427921 33.4269071,3.28451244 C33.5528781,3.41474567 33.7265473,3.48792077 33.9077343,3.48710792 L33.9077343,3.48710792 Z M34.517351,2.48362363 C34.4962534,2.14788013 34.2177985,1.88637369 33.8813928,1.88637369 C33.5449871,1.88637369 33.2665322,2.14788013 33.2454347,2.48362363 L34.517351,2.48362363 Z" id="Shape"></path>
                <path d="M36.7576297,2.31804872 C36.7008751,2.0566346 36.4655558,1.87302225 36.1981872,1.88153305 C35.8745635,1.88153305 35.5760269,2.13240412 35.5760269,2.67679435 C35.5760269,3.22118458 35.8770722,3.48710792 36.1981872,3.48710792 C36.4681392,3.49623099 36.7076789,3.31526874 36.772682,3.05310096 L37.1514973,3.05310096 C37.0510752,3.50168324 36.6477036,3.81681729 36.1881524,3.80571418 C35.5685008,3.80571418 35.1846681,3.33658528 35.1846681,2.67930306 C35.1846681,2.02202085 35.5910792,1.55790937 36.2282917,1.55790937 C36.67452,1.54953274 37.0591995,1.87009903 37.1314276,2.31052259 L36.7576297,2.31804872 Z" id="Path"></path>
                <path d="M37.9994415,1.05365851 L37.9994415,1.59554003 L38.4083614,1.59554003 L38.4083614,1.88905918 L37.9994415,1.88905918 L37.9994415,3.17101037 C37.9994415,3.39428562 38.0170025,3.45198597 38.2252255,3.45198597 L38.4083614,3.45198597 L38.4083614,3.7630661 L38.1449467,3.7630661 C37.7310095,3.7630661 37.6432046,3.67275252 37.6432046,3.22118458 L37.6432046,1.88905918 L37.3020199,1.88905918 L37.3020199,1.59554003 L37.630661,1.59554003 L37.630661,1.05365851 L37.9994415,1.05365851 Z" id="Path"></path>
                <path d="M40.4981174,1.8689895 C40.284877,1.8689895 40.0440408,1.94675953 40.0440408,2.14243897 C40.0440408,2.3381184 40.1644589,2.39331004 40.3726819,2.43595812 L40.6787446,2.49616718 C41.0701034,2.5714285 41.4163055,2.71944244 41.4163055,3.13839713 C41.4163055,3.55735182 41.0299641,3.8082229 40.5382568,3.8082229 C40.0783266,3.84286873 39.6712032,3.51276868 39.6100338,3.05560968 L39.9938665,3.05560968 C40.0253669,3.3293808 40.2717744,3.52650678 40.5457829,3.49714276 C40.8217411,3.49714276 41.047525,3.37672465 41.047525,3.17602779 C41.047525,2.97533093 40.8418108,2.86745637 40.6085007,2.81979087 L40.2873857,2.75456439 C39.9938665,2.69435533 39.6727516,2.55637624 39.6727516,2.15498252 C39.6727516,1.7535888 40.059093,1.55289194 40.5382568,1.55289194 C40.9569304,1.51646798 41.3316737,1.81208658 41.3937271,2.22773513 L41.0124031,2.22773513 C40.9609612,1.99220064 40.7369255,1.83592204 40.4981174,1.8689895 Z" id="Path"></path>
                <path d="M42.4975598,3.8082229 C41.9958177,3.8082229 41.8076644,3.47205566 41.8076644,2.97783964 L41.8076644,1.59554003 L42.1714275,1.59554003 L42.1714275,2.86996508 C42.1714275,3.20362361 42.2291278,3.49212534 42.6255041,3.49212534 C42.9717062,3.49212534 43.1749117,3.24125427 43.1749117,2.78466892 L43.1749117,1.59554003 L43.5411835,1.59554003 L43.5411835,3.7630661 L43.1749117,3.7630661 L43.1749117,3.45449468 C43.0350562,3.6919248 42.7723244,3.82912914 42.4975598,3.8082229 L42.4975598,3.8082229 Z" id="Path"></path>
                <path d="M44.4367932,1.93672469 C44.5806852,1.68574165 44.8557052,1.53945442 45.1442497,1.56041808 C45.6459918,1.56041808 46.0674552,1.97435535 46.0674552,2.68432049 C46.0674552,3.39428562 45.635957,3.8082229 45.1442497,3.8082229 C44.8557052,3.82918656 44.5806852,3.68289933 44.4367932,3.43191629 L44.4367932,4.46048769 L44.0705215,4.46048769 L44.0705215,1.59554003 L44.4367932,1.59554003 L44.4367932,1.93672469 Z M45.6685702,2.68933791 C45.6685702,2.18759576 45.4176991,1.87902434 45.0514274,1.87902434 C44.725295,1.87902434 44.4192323,2.12989541 44.4192323,2.68933791 C44.4192323,3.2487804 44.725295,3.49965148 45.0514274,3.49965148 C45.4252253,3.49463405 45.6585354,3.19860619 45.6585354,2.68432049 L45.6685702,2.68933791 Z" id="Shape"></path>
                <path d="M46.8376294,1.93672469 C46.9815214,1.68574165 47.2565414,1.53945442 47.5450858,1.56041808 C48.046828,1.56041808 48.4682914,1.97435535 48.4682914,2.68432049 C48.4682914,3.39428562 48.0393019,3.8082229 47.5450858,3.8082229 C47.2565414,3.82918656 46.9815214,3.68289933 46.8376294,3.43191629 L46.8376294,4.46048769 L46.4713577,4.46048769 L46.4713577,1.59554003 L46.8376294,1.59554003 L46.8376294,1.93672469 Z M48.0694064,2.68933791 C48.0694064,2.18759576 47.8185353,1.87902434 47.4522636,1.87902434 C47.1261312,1.87902434 46.8225772,2.12989541 46.8225772,2.68933791 C46.8225772,3.2487804 47.1261312,3.49965148 47.4522636,3.49965148 C47.8260615,3.49463405 48.0694064,3.19860619 48.0694064,2.68432049 L48.0694064,2.68933791 Z" id="Shape"></path>
                <path d="M49.7853645,3.8082229 C49.2836224,3.8082229 48.749267,3.46703824 48.749267,2.68432049 C48.749267,1.90160274 49.2811137,1.56041808 49.7853645,1.56041808 C50.4088497,1.56041808 50.9142844,2.0658527 50.9142844,2.68933791 C50.9142844,3.31282311 50.4088497,3.81825774 49.7853645,3.81825774 L49.7853645,3.8082229 Z M50.4250858,2.68432049 C50.4250858,2.10982573 50.1089882,1.88153305 49.7803471,1.88153305 C49.451706,1.88153305 49.1330997,2.09477346 49.1330997,2.68432049 C49.1330997,3.27386751 49.4491973,3.48710792 49.7803471,3.48710792 C50.1114969,3.48710792 50.4250858,3.23874556 50.4250858,2.68432049 Z" id="Shape"></path>
                <path d="M52.0983958,1.96181179 C51.7622286,1.96181179 51.5966537,2.1499651 51.5966537,2.62411143 L51.5966537,3.7630661 L51.2278732,3.7630661 L51.2278732,1.59554003 L51.5866188,1.59554003 L51.5866188,1.97435535 C51.6917307,1.73273462 51.9328231,1.57895137 52.1962356,1.58550518 L52.3041101,1.58550518 L52.3041101,1.97435535 C52.2288488,1.96933793 52.1586049,1.96181179 52.0983958,1.96181179 Z" id="Path"></path>
                <path d="M53.1997198,1.05365851 L53.1997198,1.59554003 L53.6111484,1.59554003 L53.6111484,1.88905918 L53.1997198,1.88905918 L53.1997198,3.17101037 C53.1997198,3.39428562 53.2172808,3.45198597 53.4255038,3.45198597 L53.6111484,3.45198597 L53.6111484,3.7630661 L53.3452251,3.7630661 C52.9312878,3.7630661 52.8434829,3.67275252 52.8434829,3.22118458 L52.8434829,1.88905918 L52.5022983,1.88905918 L52.5022983,1.59554003 L52.8434829,1.59554003 L52.8434829,1.05365851 L53.1997198,1.05365851 Z" id="Path"></path>
                <path d="M54.8404167,3.48710792 C55.0945312,3.51102704 55.334581,3.36659028 55.4324724,3.130871 L55.808779,3.130871 C55.6849476,3.5559286 55.2821645,3.83766808 54.8404167,3.8082229 C54.1580473,3.8082229 53.7817407,3.30648075 53.7817407,2.68181178 C53.7592152,2.39075203 53.8599253,2.10360658 54.0593184,1.89038 C54.2587115,1.67715342 54.538467,1.5574374 54.8303818,1.56041808 C55.487664,1.56041808 55.886549,2.11484315 55.8338661,2.79721247 L54.1881519,2.79721247 C54.1799736,2.97605581 54.2448233,3.15054458 54.3678192,3.2806363 C54.490815,3.41072803 54.661396,3.48525265 54.8404167,3.48710792 L54.8404167,3.48710792 Z M55.4525421,2.48362363 C55.4525421,2.13170087 55.1672523,1.8464111 54.8153296,1.8464111 C54.4634068,1.8464111 54.178117,2.13170087 54.178117,2.48362363 L55.4525421,2.48362363 Z" id="Shape"></path>
                <path d="M58.1092668,0.845435518 L58.1092668,3.7630661 L57.742995,3.7630661 L57.742995,3.43944242 C57.599103,3.69042546 57.324083,3.83671269 57.0355386,3.81574903 C56.5337964,3.81574903 56.112333,3.40682918 56.112333,2.69184662 C56.112333,1.97686406 56.5413225,1.56794421 57.0355386,1.56794421 C57.324083,1.54698055 57.599103,1.69326778 57.742995,1.94425082 L57.742995,0.845435518 L58.1092668,0.845435518 Z M56.511218,2.68432049 C56.511218,3.18606263 56.7620891,3.49463405 57.1283609,3.49463405 C57.4544933,3.49463405 57.7580473,3.24376298 57.7580473,2.68432049 C57.7580473,2.12487799 57.4544933,1.87400692 57.1283609,1.87400692 C56.754563,1.87400692 56.511218,2.17003479 56.511218,2.68432049 Z" id="Shape"></path>
                <path d="M59.9857824,1.93672469 C60.1296743,1.68574165 60.4046943,1.53945442 60.6932388,1.56041808 C61.194981,1.56041808 61.6164444,1.97435535 61.6164444,2.68432049 C61.6164444,3.39428562 61.1874548,3.8082229 60.6932388,3.8082229 C60.4046943,3.82918656 60.1296743,3.68289933 59.9857824,3.43191629 L59.9857824,3.7630661 L59.6195106,3.7630661 L59.6195106,0.845435518 L59.9857824,0.845435518 L59.9857824,1.93672469 Z M61.2200681,2.68933791 C61.2200681,2.18759576 60.969197,1.87902434 60.6004165,1.87902434 C60.2742841,1.87902434 59.9707301,2.12989541 59.9707301,2.68933791 C59.9707301,3.2487804 60.2742841,3.49965148 60.6004165,3.49965148 C60.9742144,3.49463405 61.2125419,3.19860619 61.2125419,2.68432049 L61.2200681,2.68933791 Z" id="Shape"></path>
                <path d="M62.7829949,3.84836227 C62.6274548,4.31999989 62.5145628,4.46048769 62.0303816,4.46048769 L61.8397196,4.46048769 L61.8397196,4.15442498 L61.9902423,4.15442498 C62.2411133,4.15442498 62.3464792,4.13937271 62.4418102,3.80069676 L62.4668973,3.7630661 L61.6866883,1.60306616 L62.0930994,1.60306616 L62.6425071,3.2713588 L63.1768624,1.60306616 L63.5581865,1.60306616 L62.7829949,3.84836227 Z" id="Path"></path>
                <polygon id="Path" points="29.0634139 8.96111475 29.9489888 12.2550519 30.8019504 8.96111475 31.6097553 8.96111475 30.3278041 13.416585 29.6404173 13.416585 28.654494 9.82912866 27.7036926 13.416585 27.0188146 13.416585 25.7343547 8.96111475 26.5446683 8.96111475 27.3976299 12.2550519 28.2857135 8.96111475"></polygon>
                <path d="M33.9754695,12.8596512 C34.4984002,12.9081719 34.9918564,12.6100632 35.1921942,12.124599 L35.9698945,12.124599 C35.7641802,12.8947732 35.0592325,13.5219509 33.9754695,13.5219509 C32.5680828,13.5219509 31.7903824,12.5184666 31.7903824,11.196376 C31.7903824,9.78898929 32.7336577,8.88585342 33.9503824,8.88585342 C35.3075949,8.88585342 36.1279433,10.0298255 36.0275949,11.4372122 L32.6132396,11.4372122 C32.5982411,11.8084242 32.734949,12.1697568 32.9919096,12.4380747 C33.2488702,12.7063927 33.6039562,12.8585907 33.9754695,12.8596512 Z M35.2298249,10.7899649 C35.1644851,10.1167868 34.5990109,9.60304641 33.9226696,9.60239734 C33.2463283,9.6017495 32.67987,10.1144047 32.6132396,10.7874562 L35.2298249,10.7899649 Z" id="Shape"></path>
                <path d="M37.5604171,9.66355375 C37.8596497,9.14906762 38.424009,8.84794648 39.0179781,8.88585342 C40.0365146,8.88585342 40.9220895,9.73881507 40.9220895,11.2039021 C40.9220895,12.6689892 40.0365146,13.5219509 39.0179781,13.5219509 C38.424009,13.5598578 37.8596497,13.2587367 37.5604171,12.7442505 L37.5604171,13.416585 L36.8078039,13.416585 L36.8078039,7.41324022 L37.5604171,7.41324022 L37.5604171,9.66355375 Z M40.1017411,11.2039021 C40.1017411,10.1452262 39.599999,9.53310079 38.827316,9.53310079 C38.1574903,9.53310079 37.5278039,10.0348429 37.5278039,11.2039021 C37.5278039,12.3729613 38.1574903,12.8772122 38.827316,12.8772122 C39.5974902,12.8772122 40.1017411,12.2650868 40.1017411,11.2039021 Z" id="Shape"></path>
                <path d="M43.2100337,10.5917767 L43.0845982,10.5917767 L43.0845982,9.90438998 L43.1849466,9.90438998 C44.2285703,9.90438998 44.7829953,9.61588825 44.7829953,8.90090569 C44.7829953,8.25616703 44.2536574,7.92501721 43.6139361,7.92501721 C43.2841094,7.89879356 42.9579044,8.00858477 42.7110558,8.22890069 C42.4642072,8.4492166 42.3181875,8.76089283 42.3068978,9.0915677 L41.5291975,9.0915677 C41.6195111,8.03289177 42.3721243,7.29533082 43.6314971,7.29533082 C44.6751208,7.29533082 45.5782566,7.70926809 45.5782566,8.81811823 C45.57893,9.44229213 45.18733,9.99956905 44.5998594,10.2104527 C45.4954692,10.4914283 45.7438315,11.0859927 45.7438315,11.7156791 C45.7438315,12.9248777 44.7152601,13.511916 43.5737968,13.511916 C42.16641,13.511916 41.5191627,12.636376 41.4363752,11.6328917 L42.2165842,11.6328917 C42.2993717,12.3704526 42.7358874,12.887247 43.5813229,12.887247 C44.3765842,12.887247 44.9385354,12.4733098 44.9385354,11.7282227 C44.9385354,10.8727523 44.1683612,10.5917767 43.2100337,10.5917767 Z" id="Path"></path>
                <path d="M50.0236921,7.41324022 L50.4250858,7.41324022 L50.4250858,8.04292662 L50.0512879,8.04292662 C49.6549116,8.04292662 49.5871764,8.1332402 49.5871764,8.59735169 L49.5871764,8.96111475 L50.4250858,8.96111475 L50.4250858,9.56571403 L49.5871764,9.56571403 L49.5871764,13.416585 L48.8345632,13.416585 L48.8345632,9.56571403 L48.2124029,9.56571403 L48.2124029,8.96111475 L48.8345632,8.96111475 L48.8345632,8.63749106 C48.8220196,7.7117768 49.0126816,7.41324022 50.0236921,7.41324022 Z" id="Path"></path>
                <path d="M52.8158871,13.5219509 C51.7822983,13.5219509 50.6809743,12.8195119 50.6809743,11.2039021 C50.6809743,9.58829243 51.7822983,8.88585342 52.8158871,8.88585342 C53.8494759,8.88585342 54.9533086,9.59080114 54.9533086,11.2039021 C54.9533086,12.8170031 53.8519846,13.5219509 52.8158871,13.5219509 Z M54.1505212,11.2039021 C54.1505212,10.0197907 53.4957477,9.54815306 52.8158871,9.54815306 C52.1360265,9.54815306 51.4837617,9.98717744 51.4837617,11.2039021 C51.4837617,12.4206268 52.1385352,12.8596512 52.8158871,12.8596512 C53.493239,12.8596512 54.1505212,12.3478742 54.1505212,11.2039021 L54.1505212,11.2039021 Z" id="Shape"></path>
                <path d="M57.1308696,13.5219509 C56.0972807,13.5219509 55.7084306,12.827038 55.7084306,11.8085014 L55.7084306,8.96111475 L56.4610438,8.96111475 L56.4610438,11.5852262 C56.4610438,12.2726129 56.5764445,12.8696861 57.3967929,12.8696861 C58.1092668,12.8696861 58.5307302,12.3679439 58.5307302,11.4121251 L58.5307302,8.96111475 L59.2833434,8.96111475 L59.2833434,13.416585 L58.5307302,13.416585 L58.5307302,12.7768638 C58.2433765,13.2708175 57.7010942,13.5594516 57.1308696,13.5219509 Z" id="Path"></path>
                <path d="M62.5271064,8.88585342 C63.605852,8.88585342 63.9947021,9.5807663 63.9947021,10.5993029 L63.9947021,13.416585 L63.2420889,13.416585 L63.2420889,10.8225781 C63.2420889,10.1377001 63.1266882,9.54062692 62.2662004,9.54062692 C61.5361656,9.54062692 61.0896151,10.0423691 61.0896151,10.9981879 L61.0896151,13.416585 L60.3370019,13.416585 L60.3370019,8.96111475 L61.0896151,8.96111475 L61.0896151,9.63094051 C61.3907364,9.13222878 61.9460123,8.84441561 62.5271064,8.88585342 L62.5271064,8.88585342 Z" id="Path"></path>
                <path d="M68.8540748,7.41324022 L68.8540748,13.416585 L68.1014616,13.416585 L68.1014616,12.7442505 C67.802229,13.2587367 67.2378697,13.5598578 66.6439007,13.5219509 C65.6253641,13.5219509 64.7397892,12.6790241 64.7397892,11.2039021 C64.7397892,9.72878023 65.6253641,8.88585342 66.6439007,8.88585342 C67.2378697,8.84794648 67.802229,9.14906762 68.1014616,9.66355375 L68.1014616,7.40571409 L68.8540748,7.41324022 Z M65.5601376,11.2039021 C65.5601376,12.2650868 66.0618798,12.8772122 66.8345627,12.8772122 C67.5043885,12.8772122 68.1340749,12.3754701 68.1340749,11.2039021 C68.1340749,10.0323342 67.5043885,9.53310079 66.8345627,9.53310079 C66.0643885,9.53310079 65.5601376,10.1452262 65.5601376,11.2039021 Z" id="Shape"></path>
                <path d="M72.6522629,10.6745642 L72.6522629,10.5666896 C72.6522629,9.75637605 72.1956775,9.48292658 71.6487786,9.48292658 C71.029127,9.48292658 70.665364,9.82160253 70.630242,10.3685015 L69.8525417,10.3685015 C69.927803,9.40766526 70.7707298,8.86327503 71.6412525,8.86327503 C72.868012,8.86327503 73.4224371,9.45031334 73.4124022,10.6996513 L73.4124022,11.7282227 C73.3937321,12.2909658 73.4323983,12.8541478 73.5278029,13.4090589 L72.7751897,13.4090589 C72.7424098,13.2056791 72.7231342,13.0003519 72.7174894,12.7944247 C72.4440399,13.2510101 71.9799284,13.5144247 71.1921932,13.5144247 C70.3567926,13.5144247 69.6618797,13.052822 69.6618797,12.2324735 C69.6393013,11.1888499 70.8234128,10.8827872 72.6522629,10.6745642 Z M70.474702,12.2224387 C70.474702,12.6464108 70.7983257,12.9273864 71.3351897,12.9273864 C72.0401375,12.9273864 72.7099632,12.6037627 72.7099632,11.5526129 L72.7099632,11.2716373 C71.3452246,11.4121251 70.474702,11.6103133 70.474702,12.2224387 Z" id="Shape"></path>
                <path d="M75.3315659,7.84222976 L75.3315659,8.96111475 L76.1770015,8.96111475 L76.1770015,9.56571403 L75.3315659,9.56571403 L75.3315659,12.2073864 C75.3315659,12.6714979 75.3666879,12.7868986 75.7956774,12.7868986 L76.1770015,12.7868986 L76.1770015,13.416585 L75.6301025,13.416585 C74.7771409,13.416585 74.5789527,13.225923 74.5789527,12.2977 L74.5789527,9.56571403 L73.8765137,9.56571403 L73.8765137,8.96111475 L74.5789527,8.96111475 L74.5789527,7.84222976 L75.3315659,7.84222976 Z" id="Path"></path>
                <path d="M77.6496147,8.32390222 L76.8970014,8.32390222 L76.8970014,7.41324022 L77.6496147,7.41324022 L77.6496147,8.32390222 Z M77.6496147,13.416585 L76.8970014,13.416585 L76.8970014,8.96111475 L77.6496147,8.96111475 L77.6496147,13.416585 Z" id="Shape"></path>
                <path d="M80.5873149,13.5219509 C79.5512174,13.5219509 78.4498934,12.8195119 78.4498934,11.2039021 C78.4498934,9.58829243 79.5512174,8.88585342 80.5873149,8.88585342 C81.6234125,8.88585342 82.7222278,9.59080114 82.7222278,11.2039021 C82.7222278,12.8170031 81.6209038,13.5219509 80.5873149,13.5219509 Z M81.9194403,11.2039021 C81.9194403,10.0197907 81.2646668,9.54815306 80.5873149,9.54815306 C79.909963,9.54815306 79.2526808,9.98717744 79.2526808,11.2039021 C79.2526808,12.4206268 79.9074543,12.8596512 80.5873149,12.8596512 C81.2671755,12.8596512 81.9194403,12.3478742 81.9194403,11.2039021 Z" id="Shape"></path>
                <path d="M85.7176284,8.88585342 C86.7938653,8.88585342 87.1827155,9.5807663 87.1827155,10.5993029 L87.1827155,13.416585 L86.4301022,13.416585 L86.4301022,10.8225781 C86.4301022,10.1377001 86.3147015,9.54062692 85.4517051,9.54062692 C84.7241789,9.54062692 84.2776284,10.0423691 84.2776284,10.9981879 L84.2776284,13.416585 L83.5250152,13.416585 L83.5250152,8.96111475 L84.2776284,8.96111475 L84.2776284,9.63094051 C84.5791704,9.13138454 85.1356617,8.84344393 85.7176284,8.88585342 Z" id="Path"></path>
                <path d="M30.0393023,18.1831354 L30.0393023,22.0415325 C30.0393023,22.9521945 29.8737274,23.3259924 29.6178389,23.606968 C29.2121508,24.0142083 28.6513159,24.2279467 28.0774905,24.1940063 C27.0740063,24.1940063 26.3891282,23.7298948 26.2486404,22.8292677 L27.0514279,22.8292677 C27.1492676,23.225644 27.3901038,23.5317067 28.0850167,23.5317067 C28.4219085,23.5562662 28.7532524,23.4357776 28.9956787,23.2005569 C29.1612536,23.0274558 29.2866891,22.8192328 29.2866891,22.2146336 L29.2866891,21.7931702 C29.0036729,22.301911 28.4526667,22.6018381 27.8717763,22.5633444 C26.8858529,22.5633444 25.9827171,21.768083 25.9827171,20.3356092 C25.9827171,18.9031354 26.8858529,18.1078741 27.8717763,18.1078741 C28.4548603,18.0713181 29.0064304,18.375464 29.2866891,18.8880831 L29.2866891,18.1831354 L30.0393023,18.1831354 Z M26.8030655,20.3356092 C26.8030655,21.3541458 27.3248773,21.9261318 28.0574209,21.9261318 C28.7297553,21.9261318 29.3117762,21.4695465 29.3117762,20.3356092 C29.3117762,19.201672 28.7247379,18.7551215 28.0574209,18.7551215 C27.3248773,18.7551215 26.8030655,19.3170727 26.8030655,20.3356092 L26.8030655,20.3356092 Z" id="Shape"></path>
                <path d="M32.886689,18.9382573 C32.1917762,18.9382573 31.8430654,19.3271075 31.8430654,20.302996 L31.8430654,22.6386057 L31.0904521,22.6386057 L31.0904521,18.1831354 L31.8255044,18.1831354 L31.8255044,18.9608357 C32.0447952,18.4659032 32.5385836,18.1498787 33.0798598,18.1580483 C33.1542061,18.1532083 33.2287886,18.1532083 33.303135,18.1580483 L33.303135,18.9608357 C33.1648124,18.9460022 33.0258045,18.9384656 32.886689,18.9382573 Z" id="Path"></path>
                <path d="M36.6271767,19.8965848 L36.6271767,19.7887103 C36.6271767,18.9783967 36.1705914,18.7049472 35.6236924,18.7049472 C35.0040409,18.7049472 34.6402778,19.0436232 34.6051559,19.5905221 L33.8274555,19.5905221 C33.9027169,18.6296859 34.7456437,18.0852957 35.6161663,18.0852957 C36.8404171,18.0852957 37.3973509,18.672334 37.3873161,19.9241807 L37.3873161,20.9502433 C37.3686459,21.5129865 37.4073121,22.0761684 37.5027168,22.6310795 L36.7501036,22.6310795 C36.7176643,22.4284443 36.6975576,22.2240264 36.6898945,22.0189541 C36.4189537,22.4730308 35.9548423,22.7389541 35.1671071,22.7389541 C34.3317064,22.7389541 33.6367935,22.2748426 33.6367935,21.4544942 C33.6167238,20.4108705 34.7908005,20.1048078 36.6271767,19.8965848 Z M34.4496158,21.4469681 C34.4496158,21.8684315 34.7732395,22.1494071 35.3101036,22.1494071 C36.0150513,22.1494071 36.6848771,21.8257834 36.6848771,20.7746336 L36.6848771,20.493658 C35.3101036,20.6341458 34.4420897,20.8222991 34.4420897,21.4469681 L34.4496158,21.4469681 Z" id="Shape"></path>
                <path d="M40.5683613,18.1078741 C41.6445982,18.1078741 42.0334484,18.8052957 42.0334484,19.8238322 L42.0334484,22.6386057 L41.2808351,22.6386057 L41.2808351,20.0471075 C41.2808351,19.3597207 41.1654344,18.7626476 40.302438,18.7626476 C39.5749118,18.7626476 39.1283613,19.2643897 39.1283613,20.2202085 L39.1283613,22.6386057 L38.3757481,22.6386057 L38.3757481,18.1831354 L39.1283613,18.1831354 L39.1283613,18.8529612 C39.4299034,18.3534052 39.9863946,18.0654646 40.5683613,18.1078741 Z" id="Path"></path>
                <path d="M43.9776992,17.059233 L43.9776992,18.1756093 L44.8231347,18.1756093 L44.8231347,18.7802086 L43.9776992,18.7802086 L43.9776992,21.421881 C43.9776992,21.8859925 44.0103124,22.0013931 44.4418107,22.0013931 L44.8231347,22.0013931 L44.8231347,22.6310795 L44.2762358,22.6310795 C43.4232741,22.6310795 43.225086,22.4404175 43.225086,21.5121946 L43.225086,18.7877347 L42.5201382,18.7877347 L42.5201382,18.1831354 L43.225086,18.1831354 L43.225086,17.059233 L43.9776992,17.059233 Z" id="Path"></path>
                <path d="M47.0533785,18.7475953 C46.6143542,18.7475953 46.1176294,18.9031354 46.1176294,19.3095465 C46.1176294,19.6657835 46.3685005,19.8313584 46.79749,19.9141458 L47.4271764,20.0370726 C48.23749,20.1951214 48.9499639,20.5011841 48.9499639,21.3641806 C48.9499639,22.2271771 48.1547026,22.7464802 47.136166,22.7464802 C45.9696155,22.7464802 45.3073159,21.976306 45.2245284,21.1986057 L46.0197897,21.1986057 C46.0892139,21.7589108 46.591644,22.162411 47.153727,22.1092677 C47.7232043,22.1092677 48.1873158,21.8583966 48.1873158,21.4469681 C48.1873158,21.0355395 47.7658524,20.8072468 47.2841799,20.7094071 L46.6218803,20.5764454 C46.0197897,20.4510099 45.3675249,20.1700343 45.3675249,19.3421598 C45.3675249,18.5569333 46.1627862,18.100348 47.1487096,18.100348 C48.1346329,18.100348 48.7643193,18.6397208 48.9048071,19.4826476 L48.1170719,19.4826476 C47.9891276,18.9533096 47.5751904,18.7475953 47.0533785,18.7475953 Z" id="Path"></path>
                <path d="M52.582577,18.8880831 C52.8815684,18.3730707 53.4457653,18.0710651 54.0401379,18.1078741 C55.0586745,18.1078741 55.9442494,18.9608357 55.9442494,20.4284315 C55.9442494,21.8960273 55.0586745,22.7464802 54.0401379,22.7464802 C53.4455048,22.7844861 52.8807169,22.4821642 52.582577,21.9662712 L52.582577,24.0836231 L51.8299638,24.0836231 L51.8299638,18.1831354 L52.582577,18.1831354 L52.582577,18.8880831 Z M55.1264097,20.4284315 C55.1264097,19.3672469 54.6246675,18.7551215 53.8494759,18.7551215 C53.1796502,18.7551215 52.5499638,19.2568636 52.5499638,20.4284315 C52.5499638,21.5999994 53.1796502,22.0992329 53.8494759,22.0992329 C54.6196501,22.0992329 55.1264097,21.4871074 55.1264097,20.4284315 L55.1264097,20.4284315 Z" id="Shape"></path>
                <path d="M58.5382563,18.9382573 C57.8433434,18.9382573 57.4946326,19.3271075 57.4946326,20.302996 L57.4946326,22.6386057 L56.7420194,22.6386057 L56.7420194,18.1831354 L57.4795804,18.1831354 L57.4795804,18.9608357 C57.6978104,18.4649939 58.1922781,18.1485346 58.7339357,18.1580483 C58.8082821,18.1532083 58.8828646,18.1532083 58.957211,18.1580483 L58.957211,18.9608357 C58.8180636,18.9458238 58.6782111,18.9382869 58.5382563,18.9382573 L58.5382563,18.9382573 Z" id="Path"></path>
                <path d="M61.3781168,22.7464802 C60.3420193,22.7464802 59.2406953,22.0415325 59.2406953,20.4284315 C59.2406953,18.8153305 60.3420193,18.1078741 61.3781168,18.1078741 C62.4142144,18.1078741 63.5130297,18.8128218 63.5130297,20.4284315 C63.5130297,22.0440412 62.4117057,22.7464802 61.3781168,22.7464802 Z M62.7102422,20.4284315 C62.7102422,19.24432 62.0554687,18.7701737 61.3781168,18.7701737 C60.7007649,18.7701737 60.0434827,19.2091981 60.0434827,20.4284315 C60.0434827,21.6476649 60.6982562,22.0841806 61.3781168,22.0841806 C62.0579775,22.0841806 62.7177684,21.5749123 62.7177684,20.4284315 L62.7102422,20.4284315 Z" id="Shape"></path>
                <path d="M68.106479,18.1831354 L68.106479,22.0415325 C68.106479,22.9521945 67.9409041,23.3259924 67.6850156,23.606968 C67.2793275,24.0142083 66.7184926,24.2279467 66.1446672,24.1940063 C65.1411829,24.1940063 64.4563049,23.7298948 64.3133084,22.8292677 L65.1186045,22.8292677 C65.2164443,23.225644 65.4572805,23.5317067 66.1521934,23.5317067 C66.4890852,23.5562662 66.8204291,23.4357776 67.0628554,23.2005569 C67.2284303,23.0274558 67.3538658,22.8192328 67.3538658,22.2146336 L67.3538658,21.7931702 C67.0704539,22.3027701 66.5182129,22.6028374 65.9364442,22.5633444 C64.9530296,22.5633444 64.0498938,21.768083 64.0498938,20.3356092 C64.0498938,18.9031354 64.9530296,18.1078741 65.9364442,18.1078741 C66.5204086,18.0703166 67.073215,18.3746048 67.3538658,18.8880831 L67.3538658,18.1831354 L68.106479,18.1831354 Z M64.8702422,20.3356092 C64.8702422,21.3541458 65.3895453,21.9261318 66.1245976,21.9261318 C66.796932,21.9261318 67.3789529,21.4695465 67.3789529,20.3356092 C67.3789529,19.201672 66.7919146,18.7551215 66.1245976,18.7551215 C65.3895453,18.7551215 64.8702422,19.3170727 64.8702422,20.3356092 L64.8702422,20.3356092 Z" id="Shape"></path>
                <path d="M70.9538657,18.9382573 C70.2589528,18.9382573 69.9102421,19.3271075 69.9102421,20.302996 L69.9102421,22.6386057 L69.1576288,22.6386057 L69.1576288,18.1831354 L69.8926811,18.1831354 L69.8926811,18.9608357 C70.111443,18.4654496 70.6055698,18.1492084 71.1470364,18.1580483 C71.2213828,18.1532083 71.2959653,18.1532083 71.3703117,18.1580483 L71.3703117,18.9608357 C71.2319814,18.9460982 71.0929785,18.9385619 70.9538657,18.9382573 Z" id="Path"></path>
                <path d="M74.6868273,19.8965848 L74.6868273,19.7887103 C74.6868273,18.9783967 74.2302419,18.7049472 73.683343,18.7049472 C73.0636914,18.7049472 72.6974197,19.0436232 72.6648064,19.5905221 L71.8871061,19.5905221 C71.9623674,18.6296859 72.8052942,18.0852957 73.6758169,18.0852957 C74.9000677,18.0852957 75.4544928,18.672334 75.4469666,19.9241807 L75.4469666,20.9502433 C75.4282965,21.5129865 75.4669627,22.0761684 75.5623673,22.6310795 L74.8097541,22.6310795 C74.778342,22.4283696 74.7590742,22.2239633 74.7520538,22.0189541 C74.4786043,22.4730308 74.0170015,22.7389541 73.2292664,22.7389541 C72.3938657,22.7389541 71.6964441,22.2748426 71.6964441,21.4544942 C71.671357,20.4108705 72.8554685,20.1048078 74.6868273,19.8965848 Z M72.5017402,21.4469681 C72.5017402,21.8684315 72.8228552,22.1494071 73.362228,22.1494071 C74.0671757,22.1494071 74.7370015,21.8257834 74.7370015,20.7746336 L74.7370015,20.493658 C73.3772803,20.6341458 72.5017402,20.8222991 72.5017402,21.4469681 Z" id="Shape"></path>
                <path d="M76.4404161,22.6386057 L76.4404161,18.1831354 L77.1930293,18.1831354 L77.1930293,18.8529612 C77.4633484,18.370956 77.9804069,18.0804736 78.5326808,18.100348 C79.2125415,18.100348 79.6189526,18.3988845 79.8171407,18.8880831 C80.1402376,18.3734073 80.7153217,18.0724466 81.3223672,18.100348 C82.3584647,18.100348 82.7623671,18.7977695 82.7623671,19.8163061 L82.7623671,22.6310795 L82.0097539,22.6310795 L82.0097539,20.0471075 C82.0097539,19.3597207 81.8767923,18.7626476 81.0589526,18.7626476 C80.4117052,18.7626476 79.9802069,19.2643897 79.9802069,20.2202085 L79.9802069,22.6386057 L79.2275937,22.6386057 L79.2275937,20.0471075 C79.2275937,19.3597207 79.0946321,18.7626476 78.2767924,18.7626476 C77.629545,18.7626476 77.2005554,19.2643897 77.2005554,20.2202085 L77.2005554,22.6386057 L76.4404161,22.6386057 Z" id="Path"></path>
            </g>
        </g>
    </g>
</svg>