<?xml version="1.0" encoding="UTF-8"?>
<svg width="90px" height="18px" viewBox="0 0 90 18" version="1.1" xmlns="http://www.w3.org/2000/svg" xmlns:xlink="http://www.w3.org/1999/xlink">
    <title>Group 63</title>
    <g id="优化" stroke="none" stroke-width="1" fill="none" fill-rule="evenodd">
        <g id="ACALA-Copy-8" transform="translate(-1443.000000, -6752.000000)" fill="#98A5AE" fill-rule="nonzero">
            <g id="Group-63" transform="translate(1443.000000, 6752.000000)">
                <path d="M3.52941176,9.93393965 C4.92866583,6.78149188 6.33449998,3.63178969 7.7177151,0.472639366 C7.87045521,0.123785059 8.04507409,-0.00437044716 8.43436809,0 C10.1922365,0.0213091061 11.9506807,0.0158986342 13.7087137,0.00370488405 C14.0383757,0.00144379131 14.2512412,0.0493305052 14.4000333,0.395116187 C16.834663,6.05382377 19.2848381,11.7059904 21.7289267,17.360741 C21.7561518,17.4238901 21.7483379,17.5016556 21.7647059,17.6369173 C20.724313,17.6369173 19.7036602,17.6149524 18.6845703,17.6466077 C18.2081725,17.6613856 18.1787267,17.3100279 18.0620947,17.0399888 C16.1384083,12.5828098 14.2083062,8.12821487 12.3249228,3.65464287 C12.0784988,3.06942362 11.7877415,2.86212987 11.1724217,2.91599233 C10.5486301,2.97066232 9.96448351,2.79429709 9.63671325,3.66788642 C8.84183957,5.7865303 7.89093571,7.84872764 7.00287164,9.9336974 C5.84510652,9.93377817 4.68725914,9.93385893 3.52941176,9.93393965" id="Fill-1"></path>
                <path d="M4.10777501,12.9415817 C3.32434266,12.9417438 2.58639135,12.9419869 1.95568448,12.9419869 C1.31253099,14.4863701 0.668907811,16.0314017 0,17.6372976 C1.07729775,17.6372976 2.03177323,17.6209267 2.98523106,17.6466177 C3.30148472,17.6551274 3.45546268,17.5410979 3.56912613,17.253228 C4.13728678,15.8129869 4.7177375,14.3778516 5.29411765,12.9411765 C4.89629559,12.9413386 4.49839523,12.9415007 4.10777501,12.9415817" id="Fill-13"></path>
                <path d="M38.8235294,4.96696983 C39.500588,3.39074594 40.1808303,1.81589485 40.8501278,0.236319695 C40.9240341,0.0618925307 41.0085271,-0.00218522082 41.1968953,0 C42.0474771,0.0106545437 42.8983369,0.00794932333 43.748998,0.0018524245 C43.908512,0.000721891873 44.0115113,0.0246652515 44.0835077,0.197558098 C45.2615541,3.0269119 46.4471228,5.85299517 47.6297465,8.6803705 C47.6429199,8.71194503 47.6391387,8.75082778 47.6470588,8.81845865 C47.1436429,8.81845865 46.6497786,8.80747621 46.1566708,8.82330387 C45.9261557,8.83069278 45.9119077,8.65501397 45.8554727,8.51999441 C44.9246568,6.29140489 43.9907364,4.06410742 43.079422,1.82732145 C42.9601846,1.53471181 42.8194954,1.43106493 42.52176,1.45799618 C42.2199253,1.48533118 41.9372736,1.39714855 41.7786751,1.8339432 C41.3940591,2.89326517 40.9339444,3.92436383 40.5042357,4.96684868 C39.944027,4.96688909 39.3837782,4.96692946 38.8235294,4.96696983" id="Fill-1"></path>
                <path d="M64.7058824,4.96696983 C65.3829409,3.39074594 66.0631832,1.81589485 66.7324807,0.236319695 C66.8063871,0.0618925307 66.8908801,-0.00218522082 67.0792482,0 C67.9298697,0.0106545437 68.7806898,0.00794932333 69.631391,0.0018524245 C69.7908649,0.000721891873 69.8938643,0.0246652515 69.9658606,0.197558098 C71.1439471,3.0269119 72.3295154,5.85299517 73.5120994,8.6803705 C73.5253125,8.71194503 73.5215317,8.75082778 73.5294118,8.81845865 C73.0260355,8.81845865 72.5321315,8.80747621 72.0390634,8.82330387 C71.8085483,8.83069278 71.7942607,8.65501397 71.7378257,8.51999441 C70.8070494,6.29140489 69.8730893,4.06410742 68.961775,1.82732145 C68.8425375,1.53471181 68.7018484,1.43106493 68.4041526,1.45799618 C68.1023183,1.48533118 67.8196266,1.39714855 67.6610681,1.8339432 C67.276412,2.89326517 66.8162974,3.92436383 66.3865886,4.96684868 C65.8263399,4.96688909 65.2661311,4.96692946 64.7058824,4.96696983" id="Fill-3"></path>
                <path d="M31.781471,4.80000706 C32.2185428,4.80000706 32.5210903,4.75764533 32.6892269,4.67292184 C32.8570609,4.58819836 32.9412237,4.43288535 32.9412237,4.20706311 L32.9412237,1.76469786 C32.9412237,1.53875519 32.8570609,1.38356262 32.6892269,1.29883913 C32.5210903,1.21411564 32.2185428,1.17175392 31.781471,1.17175392 L29.3277437,1.17175392 L29.3277437,4.80000706 L31.781471,4.80000706 Z M29.3277437,8.82352941 L27.6470588,8.82352941 L27.6470588,0 L31.7647973,0 C32.5153056,0 33.1008532,0.0941595321 33.5209867,0.282398222 C33.9411201,0.470757433 34.2437053,0.778934078 34.4287425,1.20700853 C34.613515,1.63548449 34.7058824,2.22589877 34.7058824,2.97885365 C34.7058824,4.03307884 34.4983488,4.78587309 34.084038,5.23763799 C33.6695004,5.6894832 32.9803938,5.91530543 32.0168319,5.91530543 L29.3277437,5.91530543 L29.3277437,8.82352941 Z" id="Fill-5"></path>
                <path d="M53.4453077,4.58819836 L55.9832239,4.58819836 C56.4201427,4.58819836 56.7227264,4.54583659 56.8908245,4.46111314 C57.0587712,4.37638965 57.1428201,4.22119709 57.1428201,3.99525441 L57.1428201,1.76469786 C57.1428201,1.53875519 57.0587712,1.38356262 56.8908245,1.29883913 C56.7227264,1.21411564 56.4201427,1.17175392 55.9832239,1.17175392 L53.4453077,1.17175392 L53.4453077,4.58819836 Z M57.5798899,8.82352941 L55.8319132,5.70349672 L53.4453077,5.70349672 L53.4453077,8.82352941 L51.7647059,8.82352941 L51.7647059,0 L55.9663989,0 C56.7169039,0 57.3024868,0.0941595321 57.7226939,0.282398222 C58.1428252,0.470757433 58.4454093,0.778934078 58.6303321,1.20700853 C58.8151039,1.63548449 58.9076222,2.22585862 58.9076222,2.9788135 C58.9076222,3.70374136 58.7982788,4.27054552 58.5798954,4.67994866 C58.3613605,5.08943214 58.0055793,5.37415925 57.5126661,5.53404975 L59.4117647,8.82352941 L57.5798899,8.82352941 Z" id="Fill-7"></path>
                <polygon id="Fill-9" points="79.3770711 8.82352941 77.6470588 8.82352941 77.6470588 0 83.5294118 0 83.3390521 1.17178873 79.3770711 1.17178873 79.3770711 4.03763795 82.8373679 4.03763795 82.8373679 5.15293123 79.3770711 5.15293123"></polygon>
                <polygon id="Fill-11" points="88.2352941 8.82352941 90 8.82352941 90 0 88.2352941 0"></polygon>
                <path d="M38.1453147,6.47099347 C37.7880075,7.24318507 37.430439,8.01570084 37.0588235,8.81864879 C37.6573222,8.81864879 38.1875865,8.81046331 38.7172853,8.82330887 C38.8929816,8.82756368 38.978525,8.77054891 39.0416712,8.62661394 C39.3573161,7.90649342 39.6797888,7.1889258 40,6.47058824 C39.7789877,6.47066929 39.557932,6.4707503 39.3409205,6.47079083 C38.9056804,6.47087189 38.4957076,6.47099347 38.1453147,6.47099347 Z" id="Fill-13"></path>
                <path d="M65.2325957,6.47079022 C64.7943556,6.47087103 64.3816598,6.47099221 64.0298253,6.47099221 C63.6717353,7.24319408 63.3135154,8.01567874 62.9411765,8.81870405 C63.5390211,8.81870405 64.0687054,8.81050332 64.5978253,8.82330941 C64.7733301,8.82755115 64.8588231,8.770752 64.9218569,8.62721902 C65.2382428,7.90688775 65.5614491,7.18914199 65.8823529,6.47058824 C65.6644495,6.47066905 65.4465891,6.47070941 65.2325957,6.47079022" id="Fill-14"></path>
                <path d="M32.3529412,16.5071291 L32.3529412,15.2575768 C32.3529412,14.8593997 32.4472185,14.5698163 32.6355747,14.3889791 C32.82405,14.2080657 33.1237528,14.1176471 33.5348417,14.1176471 L34.2256664,14.1176471 C34.5758621,14.1176471 34.8366233,14.1880235 35.0079104,14.3286619 C35.1791577,14.4693384 35.2742687,14.6949849 35.2933623,15.0055249 C35.3009442,15.1005159 35.2514436,15.1479542 35.14494,15.1479542 C35.0536002,15.1479542 35.0040599,15.1005159 34.996478,15.0055249 C34.9812349,14.7826981 34.9165308,14.6265137 34.8023262,14.5369333 C34.6881613,14.4474292 34.4959149,14.40262 34.2256664,14.40262 L33.5348417,14.40262 C33.3140541,14.40262 33.1399089,14.4300923 33.0124062,14.4848464 C32.8848639,14.5396767 32.792611,14.6282664 32.7355286,14.7506916 C32.6784064,14.8731168 32.6499049,15.0420658 32.6499049,15.2575768 L32.6499049,16.5071291 C32.6499049,16.7227925 32.6784064,16.8917035 32.7355286,17.0140524 C32.792611,17.1365157 32.8848639,17.2250672 33.0124062,17.2798976 C33.1399089,17.3346517 33.3159198,17.362124 33.5405976,17.362124 L34.2256664,17.362124 C34.4959149,17.362124 34.6881613,17.3182674 34.8023262,17.2305922 C34.9165308,17.1428408 34.9812349,16.985818 34.996478,16.7592953 C35.0040599,16.6642662 35.0536002,16.6167517 35.14494,16.6167517 C35.2514436,16.6167517 35.3009442,16.666057 35.2933623,16.764744 C35.2742687,17.0753222 35.1791577,17.2999779 35.0079104,17.4388255 C34.8366233,17.5777112 34.5758621,17.6470588 34.2256664,17.6470588 L33.5405976,17.6470588 C33.1294689,17.6470588 32.8287341,17.555802 32.6384328,17.3730215 C32.4480918,17.1903934 32.3529412,16.9017246 32.3529412,16.5071291 Z" id="Fill-15"></path>
                <path d="M41.9038872,16.4084802 L43.390194,16.4084802 L42.6470588,14.5670347 L41.9038872,16.4084802 Z M44.1176471,17.515527 C44.1176471,17.5630797 44.0879564,17.6014113 44.0286485,17.6305983 C44.0077267,17.641572 43.9849859,17.6470588 43.9606076,17.6470588 C43.9117059,17.6470588 43.8769214,17.6178338 43.8559635,17.5593836 L43.5053537,16.6934531 L43.4896351,16.6934531 L41.7940034,16.6934531 L41.4433939,17.5593836 C41.4189066,17.6178338 41.3805927,17.6470588 41.3282342,17.6470588 C41.3107327,17.6470588 41.2881009,17.641572 41.2602297,17.6305983 C41.2043783,17.608689 41.1764706,17.5685284 41.1764706,17.5100402 C41.1764706,17.4808532 41.179927,17.4589058 41.1869133,17.4443124 L42.4848165,14.2272315 C42.5127241,14.1541879 42.5650097,14.1176471 42.6417829,14.1176471 L42.6522621,14.1176471 C42.7220491,14.1176471 42.7726612,14.1541879 42.8040253,14.2272315 L44.1019285,17.4443124 C44.1123712,17.4698414 44.1176471,17.4936177 44.1176471,17.515527 L44.1176471,17.515527 Z" id="Fill-16"></path>
                <path d="M52.658577,15.0657659 C52.658577,14.8356233 52.6069689,14.6675888 52.5037142,14.561586 C52.4004598,14.4556213 52.2328648,14.40262 52.0010804,14.40262 L50.8707969,14.40262 L50.8707969,15.8933266 L52.0010804,15.8933266 C52.2328648,15.8933266 52.4004598,15.8412778 52.5037142,15.7371421 C52.6069689,15.6330064 52.658577,15.4640574 52.658577,15.2301807 L52.658577,15.0657659 Z M52.7020629,14.3587633 C52.8614214,14.5196345 52.9411765,14.755302 52.9411765,15.0657659 L52.9411765,15.2301807 C52.9411765,15.5407589 52.8624039,15.7764264 52.7048208,15.9371452 C52.5472,16.0980164 52.3126199,16.1782614 52.0010804,16.1782614 L50.8707969,16.1782614 L50.8707969,17.5045533 C50.8707969,17.5996205 50.8236467,17.6470588 50.7294592,17.6470588 C50.6352721,17.6470588 50.5882353,17.5996205 50.5882353,17.5045533 L50.5882353,14.2601526 C50.5882353,14.1651616 50.6352721,14.1176471 50.7294592,14.1176471 L52.0010804,14.1176471 C52.3089551,14.1176471 52.5426284,14.1980446 52.7020629,14.3587633 L52.7020629,14.3587633 Z" id="Fill-17"></path>
                <path d="M59.3100522,17.608689 C59.2850378,17.58316 59.2725682,17.5483718 59.2725682,17.5045533 L59.2725682,14.2601526 C59.2725682,14.216334 59.2850378,14.1816602 59.3100522,14.1560169 C59.3349914,14.1305259 59.3689021,14.1176471 59.411709,14.1176471 C59.4546273,14.1176471 59.4885006,14.1305259 59.5134772,14.1560169 C59.5384542,14.1816602 59.5509613,14.216334 59.5509613,14.2601526 L59.5509613,17.5045533 C59.5509613,17.5483718 59.5384542,17.58316 59.5134772,17.608689 C59.4885006,17.6342943 59.4546273,17.6470588 59.411709,17.6470588 C59.3689021,17.6470588 59.3349914,17.6342943 59.3100522,17.608689" id="Fill-18"></path>
                <path d="M67.2502925,17.606009 C67.2223976,17.5786551 67.2085851,17.5449858 67.2085851,17.504811 L67.2085851,14.4021427 L66.0265741,14.4021427 C65.985831,14.4021427 65.9516855,14.3885228 65.9239447,14.3611689 C65.8961655,14.3337389 65.8823529,14.3001077 65.8823529,14.2599329 C65.8823529,14.2161439 65.8961655,14.1815235 65.9239447,14.1559197 C65.9516855,14.130506 65.985831,14.1176471 66.0265741,14.1176471 L68.6791541,14.1176471 C68.723678,14.1176471 68.7587494,14.130506 68.7845612,14.1559197 C68.8104886,14.1815235 68.8235294,14.2161439 68.8235294,14.2599329 C68.8235294,14.3001077 68.8104886,14.3337389 68.7845612,14.3611689 C68.7587494,14.3885228 68.723678,14.4021427 68.6791541,14.4021427 L67.4971431,14.4021427 L67.4971431,17.504811 C67.4971431,17.5449858 67.4841792,17.5786551 67.458329,17.606009 C67.4325173,17.6334389 67.3972145,17.6470588 67.352922,17.6470588 C67.3121404,17.6470588 67.2779949,17.6334389 67.2502925,17.606009" id="Fill-19"></path>
                <path d="M74.8449911,16.4084802 L76.3313704,16.4084802 L75.5882353,14.5670347 L74.8449911,16.4084802 Z M77.0588235,17.515527 C77.0588235,17.5630797 77.0289873,17.6014113 76.969752,17.6305983 C76.9487576,17.641572 76.9261258,17.6470588 76.9017841,17.6470588 C76.8528824,17.6470588 76.8180614,17.6178338 76.797067,17.5593836 L76.4463846,16.6934531 L76.430739,16.6934531 L74.7350707,16.6934531 L74.3844974,17.5593836 C74.3600101,17.6178338 74.3216236,17.6470588 74.2693377,17.6470588 C74.2518001,17.6470588 74.2292048,17.641572 74.2013697,17.6305983 C74.1454456,17.608689 74.1176471,17.5685284 74.1176471,17.5100402 C74.1176471,17.4808532 74.1210309,17.4589058 74.1280897,17.4443124 L75.4259929,14.2272315 C75.4537911,14.1541879 75.5061136,14.1176471 75.5828868,14.1176471 L75.5934386,14.1176471 C75.6631165,14.1176471 75.7136921,14.1541879 75.7451292,14.2272315 L77.0430324,17.4443124 C77.0534751,17.4698414 77.0588235,17.4936177 77.0588235,17.515527 L77.0588235,17.515527 Z" id="Fill-20"></path>
                <path d="M83.5294118,17.5045533 L83.5294118,14.2601907 C83.5294118,14.1651616 83.5825033,14.1176471 83.6890706,14.1176471 C83.7955102,14.1176471 83.8488153,14.1651616 83.8488153,14.2601907 L83.8488153,17.362124 L85.7226514,17.362124 C85.8290906,17.362124 85.8823529,17.4096005 85.8823529,17.5045533 C85.8823529,17.5996205 85.8290906,17.6470588 85.7226514,17.6470588 L83.6890706,17.6470588 C83.5825033,17.6470588 83.5294118,17.5996205 83.5294118,17.5045533" id="Fill-21"></path>
            </g>
        </g>
    </g>
</svg>