<?xml version="1.0" encoding="UTF-8"?>
<svg width="98px" height="27px" viewBox="0 0 98 27" version="1.1" xmlns="http://www.w3.org/2000/svg" xmlns:xlink="http://www.w3.org/1999/xlink">
    <title>Republic</title>
    <g id="Republic" stroke="none" stroke-width="1" fill="none" fill-rule="evenodd">
        <g id="编组-5" transform="translate(1.000000, 1.000000)" fill-rule="nonzero">
            <path d="M13.1076998,0.0506822612 C16.7368737,0.319192985 19.6781087,3.10032798 20.149114,6.70881178 C20.6201194,10.3172955 18.4912924,13.7602116 15.0526316,14.9512671 L22.7436647,25.2651072 L0.0253411306,25.2651072 L0.0253411306,-2.66848272e-13 L11.9610136,-2.66848272e-13 C12.3791423,-2.66848272e-13 12.7592593,0.019005848 13.1076998,0.0506822612 Z" id="路径" fill="#919CA3"></path>
            <polygon id="路径" fill="#919CA3" points="14.8116543 25.2649383 1.59652812e-13 25.2649383 1.59652812e-13 -1.39126022e-13 22.5853333 25.2649383"></polygon>
            <polygon id="路径" fill="#747E85" points="22.7439012 25.2649383 -3.64920714e-14 25.2649383 11.2955556 7.62153086"></polygon>
            <polygon id="路径" fill="#747E85" points="1.82460357e-14 14.6216296 1.82460357e-14 -5.13169754e-14 6.34785185 -5.13169754e-14 15.8317531 14.6152099"></polygon>
            <polygon id="路径" fill="#C4CFD7" points="6.81649383 14.6216296 11.2955556 7.62153086 15.8381728 14.6216296"></polygon>
            <polygon id="路径" fill="#98A5AE" points="22.7439012 25.2649383 14.2922963 25.2649383 11.2955556 7.62153086"></polygon>
            <path d="M11.2955556,7.62153086 L15.8381728,14.6216296 L12.4845556,14.6215309 L11.2955556,7.62153086 Z" id="形状结合" fill="#AEBAC2"></path>
            <path d="M33.7733918,8.62865499 L33.7733918,11.4288499 L35.4078948,11.4288499 C36.6749513,11.4288499 37.2577973,10.7953217 37.2387914,10.0097466 C37.2197856,9.22417157 36.6052631,8.62865499 35.4078948,8.62865499 L33.7733918,8.62865499 Z M35.4522417,6.53167641 C37.8659844,6.53167641 39.4498051,7.98879139 39.4498051,10.0097466 C39.4498051,12.0307018 38.3601365,13.1267056 37.1247564,13.380117 L39.6588694,17.9605263 L37.1247564,17.9605263 L34.7807018,13.6715399 L33.7733918,13.6715399 L33.7733918,17.9605263 L31.4926901,17.9605263 L31.4926901,6.55701755 L35.4522417,6.53167641 Z M42.9848928,13.2280702 L46.4946394,13.2280702 C46.4171141,12.3165282 45.6545989,11.616111 44.7397661,11.616111 C43.8249333,11.616111 43.0624181,12.3165282 42.9848928,13.2280702 M48.6359649,13.962963 C48.6373523,14.2021311 48.6246598,14.4411735 48.5979532,14.6788499 L42.9785575,14.6788499 C43.097866,15.6890368 43.9913965,16.4261995 45.005848,16.3513645 C45.7404801,16.3344133 46.4470888,16.0660809 47.0077973,15.5911306 L48.2748538,16.965887 C47.3452129,17.78451 46.135834,18.2133517 44.8981481,18.1632554 C43.7842848,18.2230028 42.6978211,17.8048019 41.9114917,17.0136336 C41.1251623,16.2224652 40.7136346,15.1334563 40.7802144,14.0199805 C40.7802144,11.5302144 42.4147173,9.83235869 44.7904483,9.83235869 C47.1661793,9.83235869 48.6359649,11.5238791 48.6423002,13.9883041 M52.5258284,14.0009746 C52.4653187,14.7681623 52.8403603,15.5044286 53.496504,15.9065649 C54.1526478,16.3087013 54.9789312,16.3087013 55.6350749,15.9065649 C56.2912186,15.5044286 56.6662603,14.7681623 56.6057505,14.0009746 C56.6662603,13.2337871 56.2912186,12.4975208 55.6350749,12.0953844 C54.9789312,11.693248 54.1526478,11.693248 53.496504,12.0953844 C52.8403603,12.4975208 52.4653187,13.2337871 52.5258284,14.0009746 M58.7977583,14.0009746 C58.7977583,16.3767056 57.1442495,18.1632554 54.958577,18.1632554 C54.0582361,18.2047628 53.1897286,17.8255223 52.6081871,17.1369395 L52.6081871,21.2295321 L50.5048733,21.2295321 L50.5048733,10.0604288 L52.6081871,10.0604288 L52.6081871,10.9346978 C53.1784433,10.2179216 54.0559978,9.81561103 54.9712476,9.8513645 C57.1632554,9.8513645 58.8167642,11.6379142 58.8167642,14.0136452 M67.9205652,14.590156 C67.9205652,17.0862573 66.1530217,18.1695907 64.1764133,18.1695907 C62.1998051,18.1695907 60.4195907,17.0925926 60.4195907,14.590156 L60.4195907,10.0604288 L62.5545809,10.0604288 L62.5545809,14.412768 C62.5545809,15.6798246 63.251462,16.1929824 64.1764133,16.1929824 C65.1013647,16.1929824 65.7982456,15.6798246 65.7982456,14.412768 L65.7982456,10.0604288 L67.9269009,10.0604288 L67.9205652,14.590156 Z M72.0575048,14.0009746 C71.9969948,14.7681623 72.3720368,15.5044286 73.0281805,15.9065649 C73.6843242,16.3087013 74.5106074,16.3087013 75.1667511,15.9065649 C75.8228948,15.5044286 76.1979368,14.7681623 76.1374268,14.0009746 C76.1979368,13.2337871 75.8228948,12.4975208 75.1667511,12.0953844 C74.5106074,11.693248 73.6843242,11.693248 73.0281805,12.0953844 C72.3720368,12.4975208 71.9969948,13.2337871 72.0575048,14.0009746 M78.3294348,14.0009746 C78.3294348,16.3767056 76.6759259,18.1632554 74.4902536,18.1632554 C73.5723181,18.2015323 72.6906973,17.8018642 72.1145225,17.0862573 L72.1145225,17.9605263 L70.0302142,17.9605263 L70.0302142,6.20224172 L72.1588695,6.20224172 L72.1588695,10.871345 C72.7287703,10.1804882 73.5890705,9.79604895 74.4839179,9.83235869 C76.6759259,9.83235869 78.3294348,11.6189084 78.3294348,13.9946394" id="形状" fill="#98A5AE"></path>
            <polygon id="路径" fill="#98A5AE" points="80.0716543 17.9605432 82.2068642 17.9605432 82.2068642 6.20212346 80.0716543 6.20212346"></polygon>
            <path d="M84.449318,17.9605263 L86.5843083,17.9605263 L86.5843083,10.0604288 L84.449318,10.0604288 L84.449318,17.9605263 Z M86.8693954,7.45662769 C86.8624126,8.20637178 86.2508118,8.80949526 85.501043,8.80602819 C84.7512749,8.80253111 84.145283,8.19375312 84.145283,7.44397641 C84.145283,6.69419978 84.7512062,6.0853912 85.500975,6.08187134 C85.8660509,6.07842316 86.2170881,6.22236245 86.4746512,6.48111752 C86.7322136,6.73987266 86.8745299,7.091571 86.8693954,7.45662769 Z M95.7261208,11.3274854 L94.1866473,12.5945419 C93.770646,12.1061187 93.1620361,11.8237975 92.5204678,11.8216374 C91.9613946,11.8286779 91.4302204,12.0670181 91.053282,12.47997 C90.676343,12.8929219 90.4873269,13.4435805 90.5311892,14.0009746 C90.4835341,14.5581838 90.6703778,15.1100281 91.0467448,15.5236714 C91.4231124,15.9373146 91.954912,16.1752894 92.5141328,16.1803119 C93.1761519,16.1724461 93.8032346,15.8819593 94.2373293,15.3820663 L95.7577971,16.6491228 C94.9954983,17.6167979 93.821642,18.1685101 92.5901561,18.1379142 C91.464437,18.195604 90.3662831,17.7776146 89.5638313,16.9860068 C88.7613795,16.194399 88.3284884,15.1020334 88.3708575,13.9756335 C88.3304484,12.8497921 88.7639634,11.7585906 89.5659671,10.9674253 C90.3679702,10.1762599 91.4649686,9.75763013 92.5901561,9.81335282 C93.8238138,9.77918696 95.0000461,10.3343688 95.7577971,11.3084795" id="形状" fill="#98A5AE"></path>
        </g>
    </g>
</svg>