<?xml version="1.0" encoding="UTF-8"?>
<svg width="84px" height="27px" viewBox="0 0 84 27" version="1.1" xmlns="http://www.w3.org/2000/svg" xmlns:xlink="http://www.w3.org/1999/xlink">
    <title>Group 65</title>
    <g id="优化" stroke="none" stroke-width="1" fill="none" fill-rule="evenodd">
        <g id="ACALA-Copy-8" transform="translate(-1094.000000, -6852.000000)" fill="#98A5AE" fill-rule="nonzero">
            <g id="Group-65" transform="translate(1094.000000, 6852.000000)">
                <path d="M6.65932821,2.15146792 C6.35194729,2.15146792 6.14706366,1.93632113 6.14706366,1.61354251 L6.14706366,1.07573396 L5.63479911,1.07573396 C5.32742929,1.07573396 5.12252347,0.860587168 5.12252347,0.537808548 L5.12252347,0 L0,0 L0,10.7572227 L5.12252347,10.7572227 L5.12252347,10.2194142 C5.12252347,9.89663557 5.32742929,9.68148878 5.63479911,9.68148878 L6.14706366,9.68148878 L6.14706366,9.14368023 C6.14706366,8.82090161 6.35194729,8.60587168 6.65932821,8.60587168 L7.17148183,8.60587168 L7.17148183,2.15146792 L6.65932821,2.15146792 Z M6.14706366,2.68927647 L6.14706366,8.06794627 C6.14706366,8.39072489 5.94218002,8.60587168 5.63479911,8.60587168 L5.12252347,8.60587168 L5.12252347,9.14368023 C5.12252347,9.46634199 4.91761765,9.68148878 4.61027001,9.68148878 L1.53676037,9.68148878 C1.22940164,9.68148878 1.02450691,9.46634199 1.02450691,9.14368023 L1.02450691,1.61354251 C1.02450691,1.29088075 1.22940164,1.07573396 1.53676037,1.07573396 L4.61027001,1.07573396 C4.91761765,1.07573396 5.12252347,1.29088075 5.12252347,1.61354251 L5.12252347,2.15146792 L5.63479911,2.15146792 C5.94218002,2.15146792 6.14706366,2.36661471 6.14706366,2.68927647 Z" id="Shape"></path>
                <polygon id="Path" points="9.32292637 0 9.32292637 10.7572227 10.7572227 10.7572227 10.7572227 0"></polygon>
                <path d="M18.3385828,0 L18.3385828,1.61354251 C18.3385828,1.93632113 18.1336991,2.15146792 17.8263182,2.15146792 L17.3140537,2.15146792 L17.3140537,4.84074439 C17.3140537,5.16352301 17.10917,5.3786698 16.8017891,5.3786698 L16.2895246,5.3786698 L16.2895246,8.06794627 C16.2895246,8.39072489 16.0846409,8.60587168 15.77726,8.60587168 C15.46999,8.60587168 15.2649955,8.39072489 15.2649955,8.06794627 L15.2649955,5.3786698 L14.7527309,5.3786698 C14.4454609,5.3786698 14.2405773,5.16352301 14.2405773,4.84074439 L14.2405773,2.15146792 L13.7283128,2.15146792 C13.4209318,2.15146792 13.2160482,1.93632113 13.2160482,1.61354251 L13.2160482,0 L12.1915191,0 L12.1915191,2.15146792 L12.7037837,2.15146792 C13.0111646,2.15146792 13.2160482,2.36661471 13.2160482,2.68927647 L13.2160482,5.3786698 L13.7283128,5.3786698 C14.0355827,5.3786698 14.2405773,5.59381659 14.2405773,5.91647835 L14.2405773,8.60587168 L14.7527309,8.60587168 C15.0601118,8.60587168 15.2649955,8.82090161 15.2649955,9.14368023 L15.2649955,10.7572227 L16.2895246,10.7572227 L16.2895246,9.14368023 C16.2895246,8.82090161 16.4944082,8.60587168 16.8017891,8.60587168 L17.3140537,8.60587168 L17.3140537,5.91647835 C17.3140537,5.59381659 17.5189373,5.3786698 17.8263182,5.3786698 L18.3385828,5.3786698 L18.3385828,2.68927647 C18.3385828,2.36661471 18.5434664,2.15146792 18.8508473,2.15146792 L19.3630009,2.15146792 L19.3630009,0 L18.3385828,0 Z" id="Path"></path>
                <path d="M21.9925658,3.76501043 L21.9925658,1.61354251 C21.9925658,1.29088075 22.2315937,1.07573396 22.5902001,1.07573396 L27.9687791,1.07573396 L27.9687791,0 L20.7972973,0 L20.7972973,10.7572227 L27.9687791,10.7572227 L27.9687791,9.68148878 L22.5902001,9.68148878 C22.2315937,9.68148878 21.9925658,9.46634199 21.9925658,9.14368023 L21.9925658,5.91647835 C21.9925658,5.59381659 22.2315937,5.3786698 22.5902001,5.3786698 L26.7735106,5.3786698 L26.7735106,4.30293584 L22.5902001,4.30293584 C22.2315937,4.30293584 21.9925658,4.08778905 21.9925658,3.76501043 Z" id="Path"></path>
                <path d="M35.976923,1.07573396 C35.6183166,1.07573396 35.3792888,0.860587168 35.3792888,0.537808548 L35.3792888,0 L29.4030755,0 L29.4030755,10.7572227 L30.598344,10.7572227 L30.598344,6.99221231 C30.598344,6.66955055 30.8373719,6.45440376 31.1959783,6.45440376 L32.3911174,6.45440376 C32.7497239,6.45440376 32.9887517,6.66955055 32.9887517,6.99221231 L32.9887517,7.53013772 L33.586386,7.53013772 C33.9449924,7.53013772 34.1840202,7.74528451 34.1840202,8.06794627 L34.1840202,9.68148878 L34.7816545,9.68148878 C35.140261,9.68148878 35.3792888,9.89663557 35.3792888,10.2194142 L35.3792888,10.7572227 L36.5745573,10.7572227 L36.5745573,9.68148878 L35.976923,9.68148878 C35.6183166,9.68148878 35.3792888,9.46634199 35.3792888,9.14368023 L35.3792888,7.53013772 L34.7816545,7.53013772 C34.4230481,7.53013772 34.1840202,7.31499093 34.1840202,6.99221231 C34.1840202,6.66955055 34.4230481,6.45440376 34.7816545,6.45440376 L35.3792888,6.45440376 L35.3792888,5.91647835 C35.3792888,5.59381659 35.6183166,5.3786698 35.976923,5.3786698 L36.5745573,5.3786698 L36.5745573,1.07573396 L35.976923,1.07573396 Z M35.3792888,1.61354251 L35.3792888,4.84074439 C35.3792888,5.16352301 35.140261,5.3786698 34.7816545,5.3786698 L31.1959783,5.3786698 C30.8373719,5.3786698 30.598344,5.16352301 30.598344,4.84074439 L30.598344,1.61354251 C30.598344,1.29088075 30.8373719,1.07573396 31.1959783,1.07573396 L34.7816545,1.07573396 C35.140261,1.07573396 35.3792888,1.29088075 35.3792888,1.61354251 Z" id="Shape"></path>
                <path d="M46.6146319,3.22720188 L46.6146319,2.15146792 L46.0768727,2.15146792 C45.7541239,2.15146792 45.538997,1.93632113 45.538997,1.61354251 L45.538997,1.07573396 L45.0011213,1.07573396 C44.6783725,1.07573396 44.4632456,0.860587168 44.4632456,0.537808548 L44.4632456,0 L40.1603565,0 L40.1603565,0.537808548 C40.1603565,0.860587168 39.9452295,1.07573396 39.6224808,1.07573396 L39.0846051,1.07573396 L39.0846051,1.61354251 C39.0846051,1.93632113 38.8694781,2.15146792 38.5467294,2.15146792 L38.0088537,2.15146792 L38.0088537,8.60587168 L38.5467294,8.60587168 C38.8694781,8.60587168 39.0846051,8.82090161 39.0846051,9.14368023 L39.0846051,9.68148878 L39.6224808,9.68148878 C39.9452295,9.68148878 40.1603565,9.89663557 40.1603565,10.2194142 L40.1603565,10.7572227 L44.4632456,10.7572227 L44.4632456,10.2194142 C44.4632456,9.89663557 44.6783725,9.68148878 45.0011213,9.68148878 C45.3237535,9.68148878 45.538997,9.89663557 45.538997,10.2194142 L45.538997,10.7572227 L46.6146319,10.7572227 L46.6146319,5.3786698 L42.3117428,5.3786698 L42.3117428,6.45440376 L45.0011213,6.45440376 C45.3237535,6.45440376 45.538997,6.66955055 45.538997,6.99221231 L45.538997,8.06794627 C45.538997,8.39072489 45.3237535,8.60587168 45.0011213,8.60587168 L44.4632456,8.60587168 L44.4632456,9.14368023 C44.4632456,9.46634199 44.2481186,9.68148878 43.9253699,9.68148878 L40.6982322,9.68148878 C40.3754834,9.68148878 40.1603565,9.46634199 40.1603565,9.14368023 L40.1603565,8.60587168 L39.6224808,8.60587168 C39.2997321,8.60587168 39.0846051,8.39072489 39.0846051,8.06794627 L39.0846051,2.68927647 C39.0846051,2.36661471 39.2997321,2.15146792 39.6224808,2.15146792 L40.1603565,2.15146792 L40.1603565,1.61354251 C40.1603565,1.29088075 40.3754834,1.07573396 40.6982322,1.07573396 L43.9253699,1.07573396 C44.2481186,1.07573396 44.4632456,1.29088075 44.4632456,1.61354251 L44.4632456,2.15146792 L45.0011213,2.15146792 C45.3237535,2.15146792 45.538997,2.36661471 45.538997,2.68927647 L45.538997,3.22720188 L46.6146319,3.22720188 Z" id="Path"></path>
                <path d="M49.2440889,3.76501043 L49.2440889,1.61354251 C49.2440889,1.29088075 49.4832505,1.07573396 49.841734,1.07573396 L55.2204101,1.07573396 L55.2204101,0 L48.0489282,0 L48.0489282,10.7572227 L55.2204101,10.7572227 L55.2204101,9.68148878 L49.841734,9.68148878 C49.4832505,9.68148878 49.2440889,9.46634199 49.2440889,9.14368023 L49.2440889,5.91647835 C49.2440889,5.59381659 49.4832505,5.3786698 49.841734,5.3786698 L54.0252494,5.3786698 L54.0252494,4.30293584 L49.841734,4.30293584 C49.4832505,4.30293584 49.2440889,4.08778905 49.2440889,3.76501043 Z" id="Path"></path>
                <path d="M63.5189183,0 L63.5189183,6.99221231 C63.5189183,7.31499093 63.3139237,7.53013772 63.0066537,7.53013772 C62.6992728,7.53013772 62.4943892,7.31499093 62.4943892,6.99221231 L62.4943892,6.45440376 L61.9821246,6.45440376 C61.6747437,6.45440376 61.4698601,6.23925697 61.4698601,5.91647835 L61.4698601,4.30293584 L60.9575955,4.30293584 C60.6502146,4.30293584 60.445331,4.08778905 60.445331,3.76501043 L60.445331,3.22720188 L59.9330664,3.22720188 C59.6257964,3.22720188 59.4208019,3.01205509 59.4208019,2.68927647 L59.4208019,1.07573396 L58.9086483,1.07573396 C58.6012673,1.07573396 58.3963837,0.860587168 58.3963837,0.537808548 L58.3963837,0 L57.3718546,0 L57.3718546,10.7572227 L58.3963837,10.7572227 L58.3963837,3.76501043 C58.3963837,3.44234867 58.6012673,3.22720188 58.9086483,3.22720188 C59.2159182,3.22720188 59.4208019,3.44234867 59.4208019,3.76501043 L59.4208019,4.30293584 L59.9330664,4.30293584 C60.2404473,4.30293584 60.445331,4.51808263 60.445331,4.84074439 L60.445331,6.45440376 L60.9575955,6.45440376 C61.2649764,6.45440376 61.4698601,6.66955055 61.4698601,6.99221231 L61.4698601,7.53013772 L61.9821246,7.53013772 C62.2895055,7.53013772 62.4943892,7.74528451 62.4943892,8.06794627 L62.4943892,9.68148878 L63.0066537,9.68148878 C63.3139237,9.68148878 63.5189183,9.89663557 63.5189183,10.2194142 L63.5189183,10.7572227 L64.5433364,10.7572227 L64.5433364,0 L63.5189183,0 Z" id="Path"></path>
                <path d="M74.583411,3.22720188 L74.583411,2.15146792 L74.0455353,2.15146792 C73.7227866,2.15146792 73.5076596,1.93632113 73.5076596,1.61354251 L73.5076596,1.07573396 L72.9697839,1.07573396 C72.6471517,1.07573396 72.4319082,0.860587168 72.4319082,0.537808548 L72.4319082,0 L68.1290191,0 L68.1290191,0.537808548 C68.1290191,0.860587168 67.9138921,1.07573396 67.5911434,1.07573396 L67.0533842,1.07573396 L67.0533842,1.61354251 C67.0533842,1.93632113 66.8381407,2.15146792 66.5155085,2.15146792 L65.9776328,2.15146792 L65.9776328,8.60587168 L66.5155085,8.60587168 C66.8381407,8.60587168 67.0533842,8.82090161 67.0533842,9.14368023 L67.0533842,9.68148878 L67.5911434,9.68148878 C67.9138921,9.68148878 68.1290191,9.89663557 68.1290191,10.2194142 L68.1290191,10.7572227 L72.4319082,10.7572227 L72.4319082,10.2194142 C72.4319082,9.89663557 72.6471517,9.68148878 72.9697839,9.68148878 L73.5076596,9.68148878 L73.5076596,9.14368023 C73.5076596,8.82090161 73.7227866,8.60587168 74.0455353,8.60587168 L74.583411,8.60587168 L74.583411,7.53013772 L73.5076596,7.53013772 L73.5076596,8.06794627 C73.5076596,8.39072489 73.2925326,8.60587168 72.9697839,8.60587168 L72.4319082,8.60587168 L72.4319082,9.14368023 C72.4319082,9.46634199 72.2167812,9.68148878 71.894149,9.68148878 L68.6668948,9.68148878 C68.3442626,9.68148878 68.1290191,9.46634199 68.1290191,9.14368023 L68.1290191,8.60587168 L67.5911434,8.60587168 C67.2685112,8.60587168 67.0533842,8.39072489 67.0533842,8.06794627 L67.0533842,2.68927647 C67.0533842,2.36661471 67.2685112,2.15146792 67.5911434,2.15146792 L68.1290191,2.15146792 L68.1290191,1.61354251 C68.1290191,1.29088075 68.3442626,1.07573396 68.6668948,1.07573396 L71.894149,1.07573396 C72.2167812,1.07573396 72.4319082,1.29088075 72.4319082,1.61354251 L72.4319082,2.15146792 L72.9697839,2.15146792 C73.2925326,2.15146792 73.5076596,2.36661471 73.5076596,2.68927647 L73.5076596,3.22720188 L74.583411,3.22720188 Z" id="Path"></path>
                <path d="M77.2129759,3.76501043 L77.2129759,1.61354251 C77.2129759,1.29088075 77.4520037,1.07573396 77.8106102,1.07573396 L83.1891892,1.07573396 L83.1891892,0 L76.0177074,0 L76.0177074,10.7572227 L83.1891892,10.7572227 L83.1891892,9.68148878 L77.8106102,9.68148878 C77.4520037,9.68148878 77.2129759,9.46634199 77.2129759,9.14368023 L77.2129759,5.91647835 C77.2129759,5.59381659 77.4520037,5.3786698 77.8106102,5.3786698 L81.9939206,5.3786698 L81.9939206,4.30293584 L77.8106102,4.30293584 C77.4520037,4.30293584 77.2129759,4.08778905 77.2129759,3.76501043 Z" id="Path"></path>
                <polygon id="Path" points="9.32292637 15.0601118 5.46292394 25.8173346 4.15443494 25.8173346 0 15.0601118 1.308489 15.0601118 4.79231938 24.0654023 8.014486 15.0601118"></polygon>
                <path d="M11.569578,24.6532017 C12.2253574,24.6532017 12.73305,24.5000233 13.0926557,24.1936665 C13.4628728,23.8771131 13.6956144,23.4941098 13.7907625,23.0447713 L15.0601118,23.0447713 C15.0071732,23.5145031 14.8220646,23.9638416 14.5047862,24.392787 C14.18739,24.8216177 13.7696578,25.1688756 13.2513539,25.4343313 C12.7436613,25.689705 12.1830301,25.8173346 11.569578,25.8173346 C10.8714713,25.8173346 10.2421022,25.6590006 9.68147099,25.3424472 C9.13145105,25.0258938 8.69249623,24.5663586 8.36460653,23.9638416 C8.04732815,23.3613247 7.88863001,22.651686 7.88863001,21.8346963 C7.88863001,21.1097054 8.05263381,20.4510498 8.38052351,19.8587294 C8.70841321,19.2562125 9.15267369,18.7864807 9.71318704,18.449534 C10.2738183,18.1022762 10.892576,17.9287046 11.569578,17.9287046 C12.6166792,17.9287046 13.4575671,18.2606102 14.0922418,18.9243068 C14.7374099,19.5779215 15.0601118,20.6246214 15.0601118,22.0645212 L9.15797935,22.0645212 C9.20018881,22.9222973 9.43293036,23.5707563 9.85608611,24.0097837 C10.2897353,24.438729 10.8608599,24.6532017 11.569578,24.6532017 Z M11.569578,19.1541317 C10.987842,19.1541317 10.4906429,19.3175067 10.0782163,19.6442568 C9.67616533,19.9711213 9.40121431,20.4203453 9.25312749,20.9922724 L13.7907625,20.9922724 C13.685003,20.3999521 13.4575671,19.9455725 13.1085727,19.6290191 C12.7594604,19.3124657 12.2464621,19.1541317 11.569578,19.1541317 Z" id="Shape"></path>
                <path d="M23.66589,25.8173346 L22.3064063,25.8173346 L22.2893575,21.7558316 C22.2893575,20.8706712 22.153346,20.2197699 21.8814493,19.8032444 C21.6095525,19.3867189 21.1450675,19.1783978 20.4879942,19.1783978 C19.6949094,19.1783978 19.0547587,19.4231722 18.5676682,19.9126042 C18.0918174,20.4020363 17.8538919,21.1205865 17.8538919,22.0682549 L17.8538919,25.8173346 L16.4944082,25.8173346 L16.4944082,18.0068688 L17.8538919,18.0068688 L17.8538919,19.3346094 C18.1711258,18.8555759 18.5733512,18.5014417 19.0604416,18.2723235 C19.5476583,18.0433221 20.080086,17.9287046 20.6579771,17.9287046 C21.7569299,17.9287046 22.5272829,18.2515264 22.9691625,18.8971701 C23.4222817,19.5429306 23.6488412,20.4957399 23.6488412,21.7558316 L23.66589,25.8173346 Z" id="Path"></path>
                <path d="M26.4516955,18.7398182 L26.4516955,24.0890423 C26.4516955,24.3085412 26.4793664,24.4512216 26.5345033,24.5170836 C26.5896401,24.571866 26.7000163,24.5993188 26.8654269,24.5993188 L27.9687791,24.5993188 L27.9687791,25.8173346 L26.8654269,25.8173346 C26.3965586,25.8173346 26.0564113,25.7733856 25.844985,25.6856106 C25.6426798,25.5868792 25.509347,25.416746 25.4449865,25.1754572 C25.380626,24.9340454 25.3484458,24.5444133 25.3484458,24.0068071 L25.3484458,18.7398182 L24.3830382,18.7398182 L24.3830382,17.5877875 L25.3484458,17.5877875 L25.3484458,15.77726 L26.4516955,15.77726 L26.4516955,17.5877875 L27.9687791,17.5877875 L27.9687791,18.7398182 L26.4516955,18.7398182 Z" id="Path"></path>
                <path d="M35.8574091,17.9287046 L35.8574091,25.6781561 L34.4979254,25.6781561 L34.4979254,24.5798843 C33.9653715,25.4048897 33.1439983,25.8173346 32.0336796,25.8173346 C30.9121214,25.8173346 30.0736994,25.477082 29.51854,24.7964612 C28.9747466,24.1055437 28.7028498,23.1568627 28.7028498,21.9503024 L28.6859273,17.9287046 L30.045411,17.9287046 L30.0624598,21.9658052 C30.0624598,22.811404 30.2493652,23.4610191 30.6231758,23.9147663 C30.9971128,24.3582168 31.5238575,24.5798843 32.2036625,24.5798843 C33.733129,24.5798843 34.4979254,23.6054037 34.4979254,21.6564426 L34.4979254,17.9287046 L35.8574091,17.9287046 Z" id="Path"></path>
                <path d="M38.3742351,19.3328663 C38.8793016,18.3967191 39.7137724,17.9287046 40.8774464,17.9287046 L40.8774464,19.1907862 C40.0926477,19.1907862 39.4791874,19.4275077 39.0371663,19.9008326 C38.5952456,20.3636549 38.3742351,21.0735832 38.3742351,22.0307355 L38.3742351,25.8173346 L37.2917055,25.8173346 L37.2917055,17.9287046 L38.3742351,17.9287046 L38.3742351,19.3328663 Z" id="Path"></path>
                <path d="M45.2754852,24.6532017 C45.9312754,24.6532017 46.4390942,24.5000233 46.7987059,24.1936665 C47.168929,23.8771131 47.4015565,23.4941098 47.4968241,23.0447713 L48.7660764,23.0447713 C48.7131369,23.5145031 48.5280253,23.9638416 48.2107417,24.392787 C47.8934581,24.8216177 47.4756011,25.1688756 46.9572887,25.4343313 C46.4495878,25.689705 45.8890652,25.8173346 45.2754852,25.8173346 C44.577367,25.8173346 43.9481055,25.6590006 43.3874651,25.3424472 C42.8374361,25.0258938 42.398474,24.5663586 42.0705789,23.9638416 C41.7531774,23.3613247 41.5945946,22.651686 41.5945946,21.8346963 C41.5945946,21.1097054 41.7584832,20.4510498 42.0863783,19.8587294 C42.4142734,19.2562125 42.8585411,18.7864807 43.4191816,18.449534 C43.9798221,18.1022762 44.59859,17.9287046 45.2754852,17.9287046 C46.3227215,17.9287046 47.1636233,18.2606102 47.7981905,18.9243068 C48.4434871,19.5779215 48.7660764,20.6246214 48.7660764,22.0645212 L42.8638469,22.0645212 C42.906175,22.9222973 43.1389203,23.5707563 43.5619651,24.0097837 C43.9956214,24.438729 44.5668734,24.6532017 45.2754852,24.6532017 Z M45.2754852,19.1541317 C44.6937397,19.1541317 44.1966502,19.3175067 43.784099,19.6442568 C43.3821593,19.9711213 43.1070859,20.4203453 42.9591145,20.9922724 L47.4968241,20.9922724 C47.3910629,20.3999521 47.1636233,19.9455725 46.8145052,19.6290191 C46.465505,19.3124657 45.9524984,19.1541317 45.2754852,19.1541317 Z" id="Shape"></path>
                <path d="M49.4832246,23.7210148 C49.5604587,24.7140035 49.908012,25.4312033 50.5258846,25.8724903 C51.1437572,26.3137773 51.8994951,26.5344828 52.7930983,26.5344828 C53.75299,26.5344828 54.5142621,26.3469512 55.0770378,25.9717644 C55.6507591,25.5967014 55.9375582,24.984346 55.9375582,24.134822 C55.9375582,23.4396556 55.7169246,22.8825075 55.2755343,22.4632539 C54.834267,22.0329835 54.1171462,21.7570708 53.1241718,21.6357633 C51.6347101,21.4702652 50.8899178,21.0620283 50.8899178,20.4110525 C50.8899178,19.9145582 51.0774687,19.5725452 51.4525706,19.3850137 C51.8387409,19.1864655 52.2856655,19.0870676 52.7930983,19.0870676 C53.3337368,19.0870676 53.7640585,19.2361025 54.0840634,19.5339249 C54.4039453,19.831871 54.6080991,20.206934 54.6964017,20.6593616 L55.9375582,20.6593616 C55.8603242,19.765647 55.5403193,19.0870676 54.9776666,18.6237471 C54.4260825,18.1603029 53.697893,17.9287046 52.7930983,17.9287046 C51.9767292,17.9287046 51.2485398,18.1162361 50.608653,18.4912991 C49.9686432,18.866486 49.6487613,19.506445 49.6487613,20.4110525 C49.6487613,21.1062189 49.8638607,21.6357633 50.2941824,21.9998097 C50.7354497,22.3639798 51.4030079,22.5957019 52.2966111,22.694976 C53.1792687,22.8162835 53.7971413,22.9983686 54.1502289,23.2411074 C54.5142621,23.4728295 54.6964017,23.7706519 54.6964017,24.134822 C54.6964017,24.6091591 54.5419336,24.9347089 54.2329973,25.1112237 C53.924061,25.2877385 53.4440537,25.375996 52.7930983,25.375996 C51.612573,25.375996 50.950672,24.8242943 50.8071495,23.7210148 L49.4832246,23.7210148 Z" id="Path"></path>
            </g>
        </g>
    </g>
</svg>