<?xml version="1.0" encoding="UTF-8"?>
<svg width="75px" height="18px" viewBox="0 0 75 18" version="1.1" xmlns="http://www.w3.org/2000/svg" xmlns:xlink="http://www.w3.org/1999/xlink">
    <title>Group</title>
    <g id="优化" stroke="none" stroke-width="1" fill="none" fill-rule="evenodd">
        <g id="ACALA-Copy-8" transform="translate(-1098.000000, -6752.000000)" fill="#98A5AE" fill-rule="nonzero">
            <g id="Group" transform="translate(1135.500000, 6761.000000) scale(-1, 1) rotate(-180.000000) translate(-1135.500000, -6761.000000) translate(1098.000000, 6752.000000)">
                <path d="M4.08109903e-14,8.87782188 L4.08109903e-14,0.0460985991 L0.0881644023,0.0230492995 C0.199328214,-0.00768309985 17.5715487,-0.00768309985 17.6520466,0.0230492995 C17.7018787,0.0422570492 17.7095452,0.238176095 17.7095452,1.65570802 L17.7095452,3.26531744 L17.1345599,3.26531744 L16.5595747,3.26531744 L16.5595747,2.18968346 L16.5595747,1.11404948 L8.87393875,1.11404948 L1.18830281,1.11404948 L1.18830281,1.33685937 C1.18830281,1.45594742 1.18830281,4.9325501 1.18830281,9.06221627 C1.18830281,15.0435095 1.19596928,16.5762879 1.23430163,16.6031788 C1.26113428,16.618545 4.72254537,16.6339112 8.91993757,16.6339112 L16.5595747,16.6339112 L16.5672412,14.6094144 L16.5787409,12.581076 L17.1460596,12.5695514 L17.7095452,12.5580267 L17.7095452,15.1357067 L17.7095452,17.7095452 L8.85477258,17.7095452 L4.08109903e-14,17.7095452 L4.08109903e-14,8.87782188 Z" id="Path"></path>
                <path d="M32.7484774,12.4100834 C32.7173257,12.3947671 32.6199769,12.3449889 32.5343099,12.306698 C32.3707637,12.2262871 32.086505,11.9850543 32.086505,11.9199598 C32.086505,11.8969853 32.0592473,11.8701816 32.0280957,11.8548653 C31.9969441,11.843378 31.9696864,11.7897707 31.9696864,11.7361634 C31.9696864,11.6825562 31.9541106,11.6404362 31.9385347,11.6404362 C31.8840194,11.6404362 31.8061403,11.1847744 31.7866705,10.7712325 L31.7710947,10.3768362 L31.4634722,10.3768362 C31.2415168,10.3768362 31.1558498,10.3615198 31.140274,10.3232289 C31.1052284,10.2389889 31.1013344,9.25491257 31.132486,9.18215984 C31.1558498,9.12472348 31.2103651,9.11323621 31.4673662,9.11323621 L31.7749886,9.11323621 L31.7827765,7.1910326 L31.7944584,5.26499991 L32.4447489,5.26499991 C32.7990988,5.26499991 33.1028273,5.27648718 33.1145092,5.28797446 C33.126191,5.29946173 33.1378729,6.09974171 33.1378729,7.07233079 C33.1417668,8.04109077 33.1495548,8.89497803 33.1651306,8.97155985 L33.1884943,9.11323621 L33.823209,9.11323621 L34.4618176,9.11323621 L34.4618176,9.7450362 L34.4618176,10.3768362 L33.823209,10.3768362 L33.1884943,10.3768362 L33.1690245,10.5031962 C33.1456608,10.664018 33.1846003,11.0277816 33.2391157,11.1158507 C33.2702674,11.1732871 33.3520404,11.1847744 33.7453299,11.2039198 C33.9984369,11.2154071 34.2671198,11.2307234 34.337211,11.2422107 L34.4618176,11.2613562 L34.4618176,11.8510362 L34.4618176,12.4445452 L33.6362991,12.4407162 C33.1807064,12.4407162 32.779629,12.4253998 32.7484774,12.4100834 Z" id="Path"></path>
                <path d="M34.940454,11.7432745 L34.940454,11.0420038 L35.0419113,11.0198584 C35.0968674,11.0087857 35.4012396,11.0050948 35.7182939,11.0124766 C36.1748521,11.0198584 36.3059012,11.034622 36.335493,11.0789128 C36.3819943,11.1379672 36.390449,12.2267822 36.3524025,12.3633455 C36.3270382,12.4445452 36.314356,12.4445452 35.6337461,12.4445452 L34.940454,12.4445452 L34.940454,11.7432745 Z" id="Path"></path>
                <path d="M60.814846,12.4287486 C60.7988295,12.4139166 60.7868171,12.1061516 60.7868171,11.7464745 C60.7868171,11.2125207 60.7988295,11.0790323 60.8468789,11.0419522 C60.918953,10.986332 62.1241919,11.0048721 62.1882578,11.0642003 C62.2162866,11.0901564 62.2282989,11.3311771 62.2202907,11.7687225 L62.2082784,12.4324566 L61.5235745,12.4435807 C61.1511917,12.4472887 60.8308624,12.4398727 60.814846,12.4287486 Z" id="Path"></path>
                <path d="M10.1001274,11.9537994 C10.0626167,11.9379586 10.0513635,11.7478684 10.0513635,11.201359 L10.0513635,10.4726798 L10.4752342,10.4726798 C10.7040494,10.4726798 10.9178603,10.456839 10.9403667,10.4409981 C10.9778774,10.4172368 10.9891306,9.83508555 10.9966328,7.83517806 L11.007886,5.26499991 L11.6943315,5.26499991 C12.211979,5.26499991 12.3882792,5.27688055 12.4107856,5.31648268 C12.4557984,5.39172672 12.4557984,10.1677434 12.4107856,10.4726798 C12.3882792,10.6152475 12.3620217,10.8211786 12.3432664,10.9281043 C12.3132578,11.1617569 12.2344854,11.3835288 12.1857215,11.3835288 C12.1669662,11.3835288 12.1519619,11.4033298 12.1519619,11.4270911 C12.1519619,11.4746137 12.0581852,11.5815394 12.0169234,11.5815394 C12.0019191,11.5815394 11.9531553,11.6251018 11.9043914,11.6805447 C11.8556275,11.7359877 11.7843572,11.7795501 11.7430954,11.7795501 C11.7055847,11.7795501 11.664323,11.7993511 11.6568208,11.8270726 C11.6493187,11.8508339 11.5405377,11.8864758 11.4167524,11.9062769 C11.1429244,11.9498392 10.1638955,11.9854811 10.1001274,11.9537994 Z" id="Path"></path>
                <path d="M57.1765306,11.4071229 C57.1337905,11.3429571 57.1221341,11.2334978 57.1337905,10.9617367 C57.1415614,10.7654648 57.1260196,10.5389972 57.1027068,10.463508 L57.0638521,10.3200785 L56.7802133,10.3200785 L56.4965745,10.3200785 L56.4849181,10.1992958 C56.4771472,10.1313555 56.4771472,9.84827108 56.4849181,9.57650998 L56.4965745,9.07450686 L56.7840988,9.07450686 C56.9434028,9.07450686 57.0832795,9.05563456 57.0949358,9.03676226 C57.1104777,9.0141155 57.1182486,8.57627819 57.1182486,8.06295168 C57.1104777,6.80983109 57.180416,6.15684957 57.3358346,5.97567551 C57.3630328,5.94547984 57.3863456,5.89641186 57.3863456,5.86999064 C57.3863456,5.80582483 57.6855262,5.52651482 57.8409448,5.43970225 C57.9069976,5.40573211 58.0041342,5.37553643 58.0585307,5.37553643 C58.1129272,5.37553643 58.1634382,5.3604386 58.1712091,5.33779184 C58.186751,5.29627278 59.5427776,5.23965589 59.6904252,5.27740048 L59.7953327,5.30004724 L59.7953327,5.86621618 C59.7953327,6.23611323 59.7797908,6.43615959 59.7525926,6.45503188 C59.7292798,6.46635526 59.4611829,6.49277648 59.1581167,6.51164878 C58.8589361,6.52674662 58.606381,6.54184446 58.6024955,6.54184446 C58.5986101,6.54561891 58.5675264,6.59468689 58.5325572,6.6588527 C58.4859316,6.74943973 58.4742752,6.96080947 58.4742752,7.92329667 L58.4742752,9.07450686 L59.134804,9.07450686 L59.7914472,9.07450686 L59.81476,9.19906402 C59.8264164,9.26322984 59.8341873,9.54253985 59.8264164,9.81052648 L59.81476,10.3012062 L59.1542313,10.3200785 L58.4937026,10.3389508 L58.4859316,10.8296306 C58.4781607,11.1013917 58.4665043,11.3542805 58.4548479,11.3957995 C58.4393061,11.4712887 58.4043369,11.4750632 57.8370593,11.4826121 C57.2464689,11.4939355 57.2348125,11.490161 57.1765306,11.4071229 Z" id="Path"></path>
                <path d="M15.023691,10.4906899 C15.0124561,10.471035 14.9450469,10.45138 14.8813825,10.45138 C14.8139733,10.45138 14.7278392,10.4238631 14.6903896,10.3924152 C14.6491951,10.3609673 14.5930207,10.3334503 14.563061,10.3334503 C14.5368463,10.3334503 14.4582022,10.2902094 14.3907929,10.2351756 C14.3233836,10.1801417 14.2522294,10.1369008 14.2372496,10.1369008 C14.2185248,10.1369008 14.1136659,10.0346951 14.0050621,9.9128344 C13.8253041,9.71235391 13.5444321,9.2052562 13.5444321,9.07946452 C13.5444321,9.05587858 13.5294523,9.03622363 13.5069825,9.03622363 C13.4882577,9.03622363 13.4695329,8.94187987 13.4695329,8.82788116 C13.4695329,8.71388245 13.4508081,8.59988374 13.4320833,8.58022879 C13.3571842,8.501609 13.4358283,6.79555935 13.5107275,6.79555935 C13.5294523,6.79555935 13.555667,6.72480153 13.5669019,6.63831975 C13.5818817,6.55183797 13.6043515,6.48108015 13.6193313,6.48108015 C13.6343111,6.48108015 13.6567809,6.44963223 13.6717607,6.41425332 C13.7092103,6.29239263 13.8702436,6.03294729 13.9151831,6.01722333 C13.9376528,6.00936135 13.9563776,5.97791343 13.9563776,5.94646551 C13.9563776,5.91501759 13.9825923,5.89143165 14.012552,5.89143165 C14.0425117,5.89143165 14.0687264,5.86784571 14.0687264,5.84032878 C14.0687264,5.80888087 14.1286457,5.75384701 14.1998,5.71060612 C14.2709542,5.67129622 14.3308735,5.62412434 14.3308735,5.60840038 C14.3308735,5.58874543 14.3570883,5.57695246 14.3870479,5.57695246 C14.4170076,5.57695246 14.4432223,5.56515949 14.4432223,5.54550454 C14.4432223,5.51012563 14.6828997,5.41971286 14.8551678,5.39219593 C14.9263221,5.38040296 14.9974763,5.35288603 15.0124561,5.32930009 C15.0386708,5.2860592 17.9859537,5.23888732 18.1170273,5.28212821 C18.1844365,5.30571415 18.1881815,5.34895504 18.1881815,5.95432749 L18.1881815,6.59900985 L16.7576071,6.60294084 C15.4131667,6.60294084 15.3157978,6.61080282 15.210939,6.68156064 C15.1510196,6.72087054 15.0573956,6.77197341 15.0124561,6.79555935 C14.9637716,6.81914529 14.9150872,6.87024816 14.9038523,6.91348905 C14.8926174,6.95672994 14.8701477,6.99210885 14.8514229,6.99210885 C14.8326981,6.99210885 14.8177182,7.03141875 14.8177182,7.08252162 C14.8177182,7.13362449 14.7952485,7.19652033 14.7727787,7.22010626 C14.7390741,7.25548517 14.7203493,7.45596566 14.7128594,7.85692664 C14.7016245,8.33257643 14.7091144,8.46623009 14.7577989,8.56843582 C14.7915035,8.63919364 14.8177182,8.72567542 14.8177182,8.76891631 C14.8177182,8.80822621 14.8326981,8.83967413 14.8551678,8.83967413 C14.8738926,8.83967413 14.9001073,8.88291502 14.9150872,8.93794888 C14.9263221,8.99298274 14.9600267,9.03622363 14.9862414,9.03622363 C15.0461607,9.03622363 15.2820932,9.16201531 15.297073,9.2052562 C15.3045629,9.22098016 15.9599308,9.23277313 16.7501172,9.23277313 L18.1881815,9.23277313 L18.1881815,9.88138648 L18.1881815,10.5299998 L16.6190436,10.5299998 C15.6116496,10.5299998 15.0386708,10.5142759 15.023691,10.4906899 Z" id="Path"></path>
                <path d="M20.4443868,10.4915115 C20.4123585,10.471774 20.3442984,10.4520364 20.2922525,10.4520364 C20.0400299,10.4520364 19.163256,9.84806637 19.163256,9.67832317 C19.163256,9.64674304 19.1472419,9.62305794 19.1272242,9.62305794 C19.1072066,9.62305794 19.0751783,9.58358278 19.0591642,9.53621258 C19.04315,9.48489487 19.0231323,9.43752468 19.0071182,9.42568213 C18.9550723,9.38225945 18.8429733,9.10198579 18.8429733,9.01119291 C18.8429733,8.95592768 18.8269592,8.912505 18.8069415,8.912505 C18.7749133,8.912505 18.6668179,8.10326415 18.6668179,7.82693801 C18.6668179,7.63745723 18.7588991,6.99006455 18.802938,6.87953409 C18.8189521,6.83611141 18.8589875,6.72163344 18.8870122,6.62689305 C18.9150369,6.53215265 18.9630793,6.43346475 18.9911041,6.40188461 C19.0191288,6.374252 19.04315,6.33477684 19.04315,6.31109174 C19.04315,6.21635135 19.4274892,5.75449194 19.5075599,5.75449194 C19.515567,5.75449194 19.5676129,5.71896429 19.6156553,5.67159409 C19.7397649,5.55711612 20.1641394,5.3597403 20.2842454,5.3597403 C20.3402949,5.3597403 20.408355,5.34000272 20.4363797,5.31237011 C20.5004362,5.24920985 22.4901924,5.24920985 22.6983761,5.31237011 C22.7784468,5.34000272 22.9145669,5.37947788 22.9986411,5.40316298 C23.2108284,5.46632324 23.5951676,5.70317422 23.7432984,5.86107488 C23.8113585,5.93607769 23.9154503,6.05055566 23.9795069,6.11371592 C24.0395599,6.17687618 24.0876023,6.26766906 24.0876023,6.30714422 C24.0876023,6.3505669 24.1036164,6.38609455 24.1276376,6.38609455 C24.1476553,6.38609455 24.1796835,6.43346475 24.1916941,6.49662501 C24.2077083,6.55583775 24.2317295,6.62294553 24.2477436,6.64268311 C24.2637577,6.66636821 24.3037931,6.80058376 24.3438284,6.94664187 C24.415892,7.24270559 24.4359097,8.53354343 24.3718532,8.73881428 C24.3518355,8.80197455 24.3037931,8.9598752 24.2637577,9.09014324 C24.2277259,9.22041128 24.17568,9.35067932 24.1516588,9.38225945 C24.1076199,9.44147219 24.0275493,9.57174023 23.9795069,9.66253311 C23.9234574,9.77701108 23.4790652,10.1836053 23.3629627,10.2230804 C23.2989062,10.242818 23.2468602,10.2783457 23.2468602,10.2980832 C23.2468602,10.3178208 23.2108284,10.3336109 23.162786,10.3336109 C23.1187472,10.3336109 23.0546906,10.3612435 23.0226623,10.3928236 C22.9866305,10.4244038 22.8985528,10.4520364 22.8264892,10.4520364 C22.7504221,10.4520364 22.6783585,10.471774 22.6663479,10.4915115 C22.6343196,10.5428292 20.5244574,10.5428292 20.4443868,10.4915115 Z M22.4301394,9.16909356 C22.4701747,9.13751343 22.5382348,9.10988082 22.5782701,9.10988082 C22.6143019,9.10988082 22.6463302,9.09409075 22.6463302,9.07040566 C22.6463302,9.05066807 22.6743549,9.03093049 22.7063832,9.03093049 C22.7384115,9.03093049 22.7664362,9.00329788 22.7664362,8.97171775 C22.7664362,8.94013762 22.7784468,8.912505 22.7984645,8.912505 C22.8505104,8.912505 22.9586058,8.66775899 22.9906341,8.47827821 C23.0506871,8.12694925 23.0106517,7.15586023 22.9305811,7.09664749 C22.9185705,7.08480494 22.8705281,7.00980213 22.8304927,6.9308518 C22.7864539,6.84795396 22.7304044,6.78084618 22.6983761,6.78084618 C22.6703514,6.78084618 22.6463302,6.76505612 22.6463302,6.74531854 C22.6463302,6.72952847 22.5702631,6.68215827 22.4741783,6.64663063 C22.3380581,6.59531291 22.149892,6.58347037 21.5373514,6.58347037 C21.068938,6.58347037 20.7606659,6.59926043 20.7446518,6.62294553 C20.7326412,6.64663063 20.6845988,6.66242069 20.6445634,6.66242069 C20.6045281,6.66242069 20.5444751,6.69005331 20.5084433,6.72163344 C20.476415,6.75321357 20.4403832,6.78084618 20.4243691,6.78084618 C20.3483019,6.78084618 20.2041747,7.02164468 20.1521288,7.23481056 C20.0880723,7.48745161 20.0720581,8.28090239 20.1241041,8.45854062 C20.1961677,8.70328664 20.3723231,9.03093049 20.4323762,9.03093049 C20.4604009,9.03093049 20.4844221,9.05066807 20.4844221,9.07040566 C20.4844221,9.09409075 20.5164504,9.10988082 20.5564857,9.10988082 C20.596521,9.10988082 20.6645811,9.13751343 20.70862,9.16909356 C20.8207189,9.25199141 22.3140369,9.25593892 22.4301394,9.16909356 Z" id="Shape"></path>
                <path d="M25.7598013,10.4618766 C25.7000566,10.4185625 25.6253758,10.3713107 25.6029715,10.3594978 C25.5768332,10.3476849 25.554429,10.3201213 25.554429,10.2964954 C25.554429,10.2768072 25.5282907,10.2334931 25.4984183,10.2019919 C25.4648119,10.1665531 25.4424077,10.0681119 25.4424077,9.96967075 C25.4424077,9.87516722 25.4274715,9.78460134 25.4050673,9.7727884 C25.382663,9.75703782 25.3677268,8.96557078 25.3677268,7.52832963 L25.3677268,5.31143439 L25.47228,5.29174616 C25.6104396,5.26024498 26.4916736,5.26418263 26.5924928,5.29174616 L26.6746417,5.31143439 L26.6821098,7.26844494 L26.6933119,9.22151783 L27.6081523,9.23333077 C28.3624289,9.24120606 28.541663,9.23333077 28.6387481,9.18214136 C28.7059608,9.15064018 28.7918438,9.12307665 28.8329183,9.12307665 C28.8777268,9.12307665 28.9225353,9.10732607 28.9337374,9.08370018 C28.9449395,9.06401195 28.9897481,9.04432372 29.0308225,9.04432372 C29.0681629,9.04432372 29.1017693,9.02463548 29.1017693,9.0010096 C29.1017693,8.97344607 29.1428438,8.91438137 29.1913864,8.8671296 C29.2399289,8.81987784 29.2922055,8.71356137 29.3071417,8.62693314 C29.3220778,8.54424255 29.3444821,7.7685261 29.3594183,6.90618141 C29.3780885,5.61463321 29.3892906,5.33506028 29.4340991,5.3035591 C29.4975778,5.26418263 30.479631,5.24843204 30.5729821,5.28780851 C30.6252587,5.31143439 30.6327268,5.47681557 30.6327268,7.11881435 C30.6327268,8.28435785 30.6177906,8.92619431 30.5953863,8.92619431 C30.5767161,8.92619431 30.5468438,8.99707195 30.5356416,9.08370018 C30.5207055,9.17032842 30.4983012,9.24120606 30.479631,9.24120606 C30.4609608,9.24120606 30.4460246,9.28452018 30.4460246,9.33570959 C30.4460246,9.386899 30.4198863,9.44990135 30.390014,9.47746488 C30.3601416,9.50502841 30.3340034,9.55228017 30.3340034,9.5798437 C30.3340034,9.61134488 30.3190672,9.63497076 30.2966629,9.63497076 C30.2779927,9.63497076 30.2593225,9.66253429 30.2593225,9.69403546 C30.2593225,9.72553664 30.2443863,9.75310017 30.2219821,9.75310017 C30.2033119,9.75310017 30.1136948,9.83185311 30.0278119,9.93029428 C29.8747161,10.1035507 29.4789076,10.3437472 29.3556842,10.3437472 C29.3220778,10.3437472 29.2884715,10.3634354 29.2810034,10.390999 C29.251131,10.4815649 28.8179821,10.513066 27.3654396,10.524879 C25.9427694,10.5366919 25.8680885,10.5327543 25.7598013,10.4618766 Z" id="Path"></path>
                <path d="M34.940454,7.92107449 L34.940454,5.31214916 L35.0405325,5.28857454 C35.1667184,5.2571417 36.2197184,5.2571417 36.3067432,5.28857454 C36.3676605,5.31214916 36.376363,5.57932826 36.376363,7.92107449 L36.376363,10.5299998 L35.6584085,10.5299998 L34.940454,10.5299998 L34.940454,7.92107449 Z" id="Path"></path>
                <path d="M38.3113165,10.4946379 C38.278729,10.4789215 38.1768929,10.4278431 38.0872772,10.3885521 C37.9976614,10.349261 37.9161926,10.3021118 37.9039722,10.2903245 C37.8917519,10.2785371 37.8428706,10.2471043 37.7939893,10.2196006 C37.7410345,10.1960259 37.7003001,10.1567349 37.7003001,10.1331603 C37.7003001,10.1135148 37.6636391,10.0545782 37.6188312,10.0074289 C37.5699499,9.96027968 37.5251421,9.87776849 37.5129217,9.82276103 C37.5007014,9.76775356 37.4762607,9.69310058 37.4558935,9.65773864 C37.4355263,9.6223767 37.3988653,9.445567 37.3744247,9.2648282 C37.3173965,8.84048492 37.3214699,5.44180961 37.3784981,5.33965289 C37.4151591,5.27285812 37.4721873,5.26499991 38.0261755,5.26499991 C38.3561244,5.26499991 38.6575592,5.27678722 38.6942202,5.28857454 C38.7512484,5.30822006 38.7593953,5.51253349 38.7593953,7.16275734 L38.7593953,9.00943641 L38.8897454,9.12338044 L39.0200956,9.23339537 L40.0914111,9.23339537 L41.1627266,9.23339537 L41.1627266,9.88169759 L41.1627266,10.5299998 L39.7696091,10.5260707 C38.9997284,10.5260707 38.3439041,10.5103543 38.3113165,10.4946379 Z" id="Path"></path>
                <path d="M42.1353683,10.4995492 C42.1235122,10.4798658 42.0839918,10.4601823 42.0484234,10.4601823 C41.9535743,10.4601823 41.7204038,10.192487 41.7204038,10.0861962 C41.7204038,10.0350192 41.7045956,9.97990546 41.6808834,9.96809538 C41.6571711,9.95234859 41.6413629,9.1295793 41.6413629,7.62576173 L41.6413629,5.30311155 L41.7322599,5.28736477 C41.7796844,5.27555468 42.0721356,5.27161799 42.3843471,5.27555468 C42.83488,5.28342808 42.9573933,5.29523816 42.9850576,5.3424785 C43.0087699,5.37790876 43.0245781,6.05895703 43.0245781,7.03525744 C43.0245781,7.93282395 43.0245781,8.7988969 43.0245781,8.95636471 L43.0245781,9.23980676 L44.0876777,9.23980676 C44.6725801,9.23980676 45.1784417,9.22799668 45.2140101,9.21618659 C45.2693387,9.19650311 45.2772428,8.98392157 45.2772428,7.25177568 L45.2772428,5.31098494 L45.3681398,5.29130147 C45.5064613,5.2598079 46.3996231,5.25587121 46.5142323,5.28342808 L46.6209375,5.31098494 L46.6288416,7.26752246 L46.6406977,9.22012329 L47.3441614,9.23193337 C47.9093036,9.23980676 48.0673853,9.23193337 48.1622344,9.18075633 C48.2254671,9.14926277 48.312412,9.1217059 48.3598365,9.1217059 C48.403309,9.1217059 48.4388774,9.10595912 48.4388774,9.08233895 C48.4388774,9.06265548 48.4665417,9.042972 48.4981581,9.042972 C48.5692948,9.042972 48.7550409,8.85794733 48.7550409,8.78708681 C48.7550409,8.75559325 48.770849,8.72803638 48.7866572,8.72803638 C48.8736022,8.72803638 48.9131226,8.09422846 48.9131226,6.7400053 C48.9091706,5.39365554 48.9131226,5.32279503 48.9842594,5.29917486 C49.0672523,5.26768129 49.9841263,5.2598079 50.1501122,5.29130147 L50.2568173,5.31098494 L50.2568173,7.03525744 C50.2568173,8.48789798 50.2489132,8.77527673 50.1975367,8.86975741 C50.1659203,8.93274453 50.138256,9.01147844 50.138256,9.042972 C50.138256,9.15319947 50.0355029,9.39727457 49.9485579,9.49569195 C49.9011334,9.55080568 49.861613,9.6177295 49.861613,9.64922306 C49.861613,9.67677993 49.8181405,9.73583036 49.7628119,9.77519731 C49.7074833,9.81456426 49.6640108,9.86967799 49.6640108,9.89723486 C49.6640108,9.92479173 49.6442506,9.9484119 49.6244904,9.9484119 C49.6007781,9.9484119 49.5335934,9.99171555 49.4743128,10.0468293 C49.4150321,10.101943 49.3478474,10.1452467 49.3201831,10.1452467 C49.2925188,10.1452467 49.2688065,10.1609934 49.2688065,10.1806769 C49.2688065,10.2003604 49.2174299,10.2279173 49.1502452,10.243664 C49.0870125,10.2594108 49.0316839,10.2869677 49.0316839,10.3066512 C49.0316839,10.3263346 48.9882114,10.3420814 48.9368349,10.3420814 C48.8854583,10.3420814 48.8340817,10.3578282 48.8261777,10.3814484 C48.7906093,10.4916758 48.2491793,10.515296 45.2298182,10.5271061 C43.1866119,10.5349795 42.1511765,10.5271061 42.1353683,10.4995492 Z" id="Path"></path>
                <path d="M51.0497492,9.87926949 L51.0497492,9.22853917 L52.6770786,9.22853917 C54.1029291,9.22853917 54.3199064,9.22065153 54.4361442,9.16543805 C54.5872534,9.09050546 54.6531214,8.97219086 54.6531214,8.77499985 C54.6531214,8.50287626 54.7461117,8.51865154 53.2815152,8.51865154 C52.177256,8.51865154 51.9447803,8.5107639 51.8789122,8.45949424 C51.8401663,8.42794368 51.7471761,8.40033694 51.681308,8.40033694 C51.6115653,8.40033694 51.5534464,8.38456165 51.5534464,8.36484255 C51.5534464,8.34512345 51.5108258,8.31751671 51.4565815,8.30568525 C51.4023372,8.28990997 51.3597167,8.26230323 51.3597167,8.24258413 C51.3597167,8.21892121 51.3403437,8.20314593 51.3132215,8.20314593 C51.251228,8.20314593 51.003254,7.91919088 50.9296367,7.76143807 C50.7359071,7.35522459 50.6777881,6.77548303 50.7979006,6.47969652 C50.8288973,6.40476394 50.8560195,6.29828079 50.8560195,6.24701113 C50.8560195,6.19574147 50.8715178,6.15235945 50.8908908,6.15235945 C50.9102638,6.15235945 50.9412605,6.11686506 50.9528843,6.06953922 C51.042,5.79347181 51.5689447,5.36359541 51.8246679,5.36359541 C51.8866614,5.36359541 51.9409057,5.33993249 51.9486549,5.31626957 C51.9641533,5.27683137 52.3361143,5.26499991 53.6379779,5.26499991 C54.9204684,5.26499991 55.3195516,5.27683137 55.3544229,5.31626957 C55.3815451,5.33993249 55.439664,5.36359541 55.4861591,5.36359541 C55.583024,5.36359541 55.7961266,5.55289878 55.830998,5.67121339 C55.8464964,5.71853923 55.8736185,5.75797743 55.8929915,5.75797743 C55.9627342,5.75797743 55.9821071,6.11686506 55.9976055,7.54847178 C56.0053547,8.53837064 55.9976055,9.0589549 55.9704834,9.08656164 C55.9511104,9.10628074 55.9317374,9.20487625 55.9317374,9.29952793 C55.9317374,9.39812344 55.9084899,9.49671894 55.8736185,9.5282695 C55.8426218,9.56376388 55.8154996,9.62292118 55.8154996,9.66630321 C55.8154996,9.70574141 55.8000012,9.74123579 55.7845029,9.74123579 C55.7651299,9.74123579 55.7186348,9.80039309 55.6837634,9.87138185 C55.6450175,9.9384268 55.5287797,10.0606852 55.4241656,10.1356178 C55.3195516,10.2105504 55.2343105,10.285483 55.2343105,10.3052021 C55.2343105,10.3209774 55.19169,10.3328088 55.1413203,10.3328088 C55.0909506,10.3328088 55.0405808,10.3525279 55.0328316,10.3761908 C54.9979603,10.482674 54.6259993,10.5063369 52.8630591,10.5181684 L51.0497492,10.5299998 L51.0497492,9.87926949 Z M54.6453723,6.99239314 L54.656996,6.58617966 L53.5101163,6.58617966 C52.2237511,6.58617966 52.1888798,6.5940673 52.0997641,6.84252797 C52.0571436,6.9647864 52.0571436,7.01999988 52.0958895,7.13831449 C52.177256,7.39071898 52.3089922,7.4143819 53.5682352,7.40255044 L54.6337485,7.3946628 L54.6453723,6.99239314 Z" id="Shape"></path>
                <path d="M60.7868171,7.91841971 L60.7868171,5.3029065 L60.9983632,5.28324099 C61.3695668,5.23997686 62.1478967,5.27930789 62.1878111,5.34223753 C62.2277254,5.40123407 62.2357083,10.3726757 62.1997854,10.4710033 C62.1798282,10.5182005 62.0560937,10.5299998 61.481327,10.5299998 L60.7868171,10.5299998 L60.7868171,7.91841971 Z" id="Path"></path>
                <path d="M64.4360427,10.5028304 C64.423987,10.4830852 64.3516529,10.46334 64.2753001,10.46334 C64.202966,10.46334 64.1145576,10.4356967 64.0783905,10.4041044 C64.046242,10.372512 64.0060563,10.3448687 63.9899821,10.3448687 C63.9297036,10.3448687 63.6524227,10.2106013 63.6524227,10.179009 C63.6524227,10.1632128 63.6363484,10.1474166 63.612237,10.1474166 C63.5640142,10.1474166 63.1300093,9.7248691 63.1300093,9.6774806 C63.1300093,9.65773539 63.1179536,9.63404113 63.1018793,9.62614305 C63.0576751,9.61034688 62.9371182,9.36155722 62.9049697,9.23123883 C62.892914,9.16805416 62.8647841,9.12066565 62.8487098,9.12066565 C62.8125427,9.12066565 62.7884313,8.95875492 62.7201157,8.29926488 C62.6638558,7.7582461 62.7402086,6.93684533 62.8688026,6.6525143 C62.8969326,6.58932962 62.9451553,6.48270548 62.9732853,6.41557177 C63.0817865,6.17862924 63.5117729,5.68499897 63.612237,5.68499897 C63.6323298,5.68499897 63.6524227,5.6692028 63.6524227,5.64550855 C63.6524227,5.62576333 63.6966269,5.59812004 63.7528868,5.58232387 C63.8091467,5.57047674 63.8533509,5.54678249 63.8533509,5.53098632 C63.8533509,5.49939399 64.0623162,5.41251506 64.2753001,5.36117751 C64.5927667,5.28219667 65.6858162,5.2387572 66.2001925,5.28219667 C66.4654177,5.30589092 66.7507358,5.33748326 66.8270885,5.34933038 C66.9757754,5.37697368 67.4539846,5.59022196 67.4780959,5.63761046 C67.4981888,5.68499897 67.7835068,5.88245108 67.827711,5.88245108 C67.8518224,5.88245108 67.8719152,5.91404341 67.8719152,5.95353383 C67.8719152,5.9969733 67.9121009,6.06015797 67.9563051,6.10359744 C68.0045279,6.14308786 68.0567692,6.21417062 68.076862,6.25761008 C68.0969548,6.30104955 68.1291034,6.36423422 68.1491962,6.39582656 C68.2496603,6.56168633 68.3581615,6.90130395 68.4023657,7.2053802 C68.4867556,7.73060281 68.4385328,8.7415576 68.3219945,8.95085684 C68.2938645,8.99824535 68.2737717,9.08117523 68.2737717,9.13646182 C68.2737717,9.19174841 68.2576974,9.23913692 68.233586,9.23913692 C68.2134932,9.23913692 68.1934004,9.28257638 68.1934004,9.33391393 C68.1934004,9.38525148 68.1652704,9.43658903 68.1331219,9.45238519 C68.1009734,9.46423232 68.0728435,9.50372274 68.0728435,9.53926412 C68.0728435,9.5748055 68.0286393,9.64588826 67.9723794,9.69722581 C67.9161195,9.74856336 67.8719152,9.80384995 67.8719152,9.82359516 C67.8719152,9.84334037 67.7955625,9.91837217 67.7071541,9.99340397 C67.6147271,10.0684358 67.5182816,10.1474166 67.4941702,10.1671618 C67.4178175,10.2303465 67.1847407,10.3448687 67.1284808,10.3448687 C67.1003509,10.3448687 67.0561467,10.368563 67.0320353,10.4001553 C67.0039053,10.4317477 66.9074598,10.467289 66.8150328,10.4830852 C66.5297147,10.5304737 64.4641727,10.5502189 64.4360427,10.5028304 Z M66.4372878,9.17595224 C66.5096219,9.14041086 66.610086,9.08512427 66.6663459,9.05748098 C66.7226058,9.03378672 66.7869029,8.97060205 66.8110143,8.92321354 C66.8391442,8.87582504 66.8793298,8.81658941 66.9034412,8.79289515 C66.9275526,8.7692009 66.9476454,8.71391431 66.9476454,8.6665258 C66.9476454,8.6191373 66.9677383,8.56385071 66.9918496,8.54015645 C67.0601652,8.47302274 67.0842766,7.71480664 67.0320353,7.46206794 C67.0039053,7.34359668 66.9717568,7.19353307 66.9597011,7.1303484 C66.9315712,6.98423384 66.6984945,6.76308748 66.4734548,6.66831047 C66.3207494,6.60512579 66.1921553,6.59327867 65.5411479,6.59327867 C65.1232172,6.59327867 64.7736021,6.60907483 64.7615464,6.62882004 C64.7494907,6.64461621 64.6892123,6.67225951 64.6289338,6.68410664 C64.4842655,6.71569897 64.2552073,6.92104917 64.2552073,7.02372426 C64.2552073,7.06321468 64.2351145,7.10665415 64.2110031,7.11455223 C64.1587618,7.1303484 64.0824091,7.6081825 64.0824091,7.91620779 C64.0864276,8.25187638 64.1587618,8.70206718 64.2110031,8.71786335 C64.2351145,8.72576144 64.2552073,8.7692009 64.2552073,8.81264036 C64.2552073,8.92716259 64.4722098,9.10881853 64.6409895,9.13646182 C64.7173422,9.15225799 64.7776207,9.17990128 64.7776207,9.1996465 C64.7776207,9.22334075 65.0830316,9.23913692 65.5451665,9.23913692 C66.1800996,9.23913692 66.3328051,9.22728979 66.4372878,9.17595224 Z" id="Shape"></path>
                <path d="M69.8084104,10.5016167 C69.8084104,10.4818896 69.7822473,10.4621624 69.7523467,10.4621624 C69.7187084,10.4621624 69.6514319,10.4148172 69.5991057,10.3556357 C69.3935385,10.1189097 69.397276,10.1702003 69.4047512,7.62539558 L69.415964,5.2739171 L69.9803394,5.26997167 C70.290559,5.26602623 70.5671403,5.27786254 70.597041,5.2975897 C70.641892,5.32520774 70.6493672,5.64478787 70.6531047,7.19534331 C70.6531047,8.22115606 70.6568423,9.10098778 70.6605799,9.15227841 L70.6680551,9.24302339 L71.6323521,9.23118709 C72.5405854,9.21935079 72.6041243,9.21145992 72.8171667,9.12466038 C73.048897,9.02602454 73.246989,8.84058915 73.246989,8.72222614 C73.246989,8.68277181 73.2694145,8.6472629 73.2955776,8.63937203 C73.3292159,8.6235903 73.3441662,8.2369378 73.3591166,6.94678098 L73.3778045,5.2739171 L73.9571302,5.26602623 C74.274825,5.2620808 74.5663567,5.26997167 74.6037325,5.28180797 C74.6635339,5.2975897 74.6672715,5.40806185 74.6672715,6.85209058 C74.6672715,8.39475515 74.6560587,8.54862706 74.5252432,9.06153344 C74.4617043,9.31798663 74.2150236,9.77565694 74.0879457,9.87034734 C74.0468323,9.90191081 73.968343,9.97687405 73.9122792,10.0360556 C73.8562154,10.0991825 73.8001516,10.1465277 73.7889389,10.1465277 C73.7777261,10.1465277 73.7029744,10.1899275 73.6207475,10.2451635 C73.5385207,10.3003996 73.4338683,10.3437994 73.3852797,10.3437994 C73.3366911,10.3437994 73.2806273,10.3635266 73.2544642,10.3911446 C73.2320387,10.4148172 73.1236487,10.4542715 73.0152587,10.4739987 C72.7349398,10.5292348 69.8084104,10.5529074 69.8084104,10.5016167 Z" id="Path"></path>
            </g>
        </g>
    </g>
</svg>