<?xml version="1.0" encoding="UTF-8"?>
<svg width="116px" height="16px" viewBox="0 0 116 16" version="1.1" xmlns="http://www.w3.org/2000/svg" xmlns:xlink="http://www.w3.org/1999/xlink">
    <title>Group 67</title>
    <g id="优化" stroke="none" stroke-width="1" fill="none" fill-rule="evenodd">
        <g id="ACALA-Copy-8" transform="translate(-901.000000, -6753.000000)" fill="#98A5AE" fill-rule="nonzero">
            <g id="Group-67" transform="translate(901.000000, 6753.000000)">
                <path d="M0,0 L0,16 L40,16 L40,0 L0,0 Z M14.0440026,13.1657143 L9.39703581,4.83047619 L4.67274234,13.1657143 L2.77639694,13.1657143 L8.77105772,2.8152381 L10.0119672,2.8152381 L15.9661235,13.1657143 L14.0440026,13.1657143 Z M27.1011691,13.1657143 L18.0760379,13.1657143 L18.0760379,2.8152381 L19.7919543,2.8152381 L19.7919543,11.6380952 L27.1011691,11.6380952 L27.1011691,13.1657143 Z M37.2530608,4.34666667 L32.6576452,4.34666667 L32.6576452,13.1657143 L30.9564577,13.1657143 L30.9564577,4.34666667 L26.2321642,4.34666667 L26.2321642,2.82285714 L37.2530608,2.82285714 L37.2530608,4.34666667 Z" id="Shape"></path>
                <path d="M45.9250286,12.9988645 C45.468166,13.0091561 45.0124935,12.9494374 44.5748556,12.821916 C44.2388565,12.7229801 43.9296959,12.5530049 43.6696692,12.3242484 C43.4377077,12.1143155 43.2626704,11.8522314 43.1600265,11.5611582 C43.0495641,11.2454953 42.995541,10.9138634 43.0002877,10.5805687 L43.0002877,5.41957176 C42.9959852,5.08630799 43.0499965,4.75474838 43.1600265,4.43898233 C43.2620831,4.14869445 43.4372547,3.88767628 43.6696692,3.67957849 C43.9296959,3.45082199 44.2388565,3.28084686 44.5748556,3.18191093 C45.0118484,3.05121352 45.4678476,2.99020699 45.9250286,3.00127603 L52.0749714,3.00127603 C52.5321183,2.99079103 52.9880211,3.05178466 53.4251444,3.18191093 C53.7611435,3.28084686 54.0703041,3.45082199 54.3303308,3.67957849 C54.5609459,3.88914239 54.7358048,4.14969455 54.8399735,4.43898233 C54.9500035,4.75474838 55.0040148,5.08630799 54.9997123,5.41957176 L54.9997123,10.5805687 C55.004459,10.9138634 54.9504359,11.2454953 54.8399735,11.5611582 C54.7358071,11.8515125 54.5609923,12.1132634 54.3303308,12.3242484 C54.0703041,12.5530049 53.7611435,12.7229801 53.4251444,12.821916 C52.987386,12.9488972 52.5318022,13.0086043 52.0749714,12.9988645 L45.9250286,12.9988645 Z M53.2349792,5.39008035 C53.2349792,4.77076071 52.8546488,4.46478732 52.0711681,4.46478732 L45.9250286,4.46478732 C45.1643678,4.46478732 44.7612175,4.77076071 44.7612175,5.39008035 L44.7612175,10.5805687 C44.7612175,11.1962019 45.1415479,11.5058618 45.9250286,11.5058618 L52.0749714,11.5058618 C52.8356322,11.5058618 53.2387825,11.1962019 53.2387825,10.5805687 L53.2349792,5.39008035 Z" id="Shape"></path>
                <polygon id="Path" points="68.1621872 13 58.4828545 5.21567906 58.4828545 13 57 13 57 3 58.4828545 3 67.5171455 10.4309901 67.5171455 3 69 3 69 13"></polygon>
                <path d="M75.9259559,12.9988645 C75.4689804,13.0086043 75.0132521,12.9488972 74.5753549,12.821916 C74.2392493,12.7229801 73.9299907,12.5530049 73.6698815,12.3242484 C73.4391468,12.1132634 73.2642767,11.8515125 73.1600772,11.5611582 C73.0495798,11.2454953 72.9955396,10.9138634 73.0002878,10.5805687 L73.0002878,5.41957176 C72.995984,5.08630799 73.0500124,4.75474838 73.1600772,4.43898233 C73.264279,4.14969455 73.4391933,3.88914239 73.6698815,3.67957849 C73.9299907,3.45082199 74.2392493,3.28084686 74.5753549,3.18191093 C75.0126168,3.05178466 75.4686641,2.99079103 75.9259559,3.00127603 L82.0740441,3.00127603 C82.53137,2.99020699 82.9875137,3.05121352 83.4246451,3.18191093 C83.7611058,3.28004394 84.0705383,3.45011469 84.3301185,3.67957849 C84.5626067,3.88767628 84.7378338,4.14869445 84.8399228,4.43898233 C84.9499876,4.75474838 85.004016,5.08630799 84.9997122,5.41957176 L84.9997122,10.5805687 C85.0044604,10.9138634 84.9504202,11.2454953 84.8399228,11.5611582 C84.7372464,11.8522314 84.5621535,12.1143155 84.3301185,12.3242484 C84.0705383,12.5537122 83.7611058,12.723783 83.4246451,12.821916 C82.9868684,12.9494374 82.5310515,13.0091561 82.0740441,12.9988645 L75.9259559,12.9988645 Z M83.2382241,5.39008035 C83.2382241,4.77076071 82.8577731,4.46478732 82.0740441,4.46478732 L75.9259559,4.46478732 C75.1650539,4.46478732 74.7617759,4.77076071 74.7617759,5.39008035 L74.7617759,10.5805687 C74.7617759,11.1962019 75.1422269,11.5058618 75.9259559,11.5058618 L82.0740441,11.5058618 C82.8349461,11.5058618 83.2382241,11.1962019 83.2382241,10.5805687 L83.2382241,5.39008035 Z" id="Shape"></path>
                <polygon id="Path" points="99.3827392 13 99.3827392 6.00699301 94.7110694 13 93.2889306 13 88.6060038 6.00699301 88.6060038 13 87 13 87 3 88.6172608 3 94.0731707 11.1670961 99.4990619 3 101 3 101 13"></polygon>
                <polygon id="Path" points="108.687274 13 108.687274 8.951417 103 3 105.139515 3 109.519911 7.57489879 113.900306 3 116 3 110.363409 8.94037541 110.363409 12.9889584"></polygon>
            </g>
        </g>
    </g>
</svg>