<?xml version="1.0" encoding="UTF-8"?>
<svg width="131px" height="10px" viewBox="0 0 131 10" version="1.1" xmlns="http://www.w3.org/2000/svg" xmlns:xlink="http://www.w3.org/1999/xlink">
    <title>Group 69 Copy</title>
    <defs>
        <linearGradient x1="31.2831623%" y1="49.9804124%" x2="99.9978426%" y2="49.9804124%" id="linearGradient-1">
            <stop stop-color="#98A5AE" offset="0%"></stop>
            <stop stop-color="#98A5AE" stop-opacity="0.89" offset="38.87%"></stop>
            <stop stop-color="#98A5AE" stop-opacity="0.76" offset="47.79%"></stop>
            <stop stop-color="#98A5AE" stop-opacity="0.62" offset="57.39%"></stop>
            <stop stop-color="#98A5AE" stop-opacity="0.47" offset="67.46%"></stop>
            <stop stop-color="#98A5AE" stop-opacity="0.32" offset="77.91%"></stop>
            <stop stop-color="#98A5AE" stop-opacity="0.16" offset="88.67%"></stop>
            <stop stop-color="#98A5AE" stop-opacity="0.01" offset="100%"></stop>
            <stop stop-color="#FFFFFF" stop-opacity="0" offset="100%"></stop>
        </linearGradient>
        <linearGradient x1="31.2831623%" y1="49.9804124%" x2="99.9978426%" y2="49.9804124%" id="linearGradient-2">
            <stop stop-color="#98A5AE" offset="0%"></stop>
            <stop stop-color="#98A5AE" stop-opacity="0.89" offset="38.87%"></stop>
            <stop stop-color="#98A5AE" stop-opacity="0.76" offset="47.79%"></stop>
            <stop stop-color="#98A5AE" stop-opacity="0.62" offset="57.39%"></stop>
            <stop stop-color="#98A5AE" stop-opacity="0.47" offset="67.46%"></stop>
            <stop stop-color="#98A5AE" stop-opacity="0.32" offset="77.91%"></stop>
            <stop stop-color="#98A5AE" stop-opacity="0.16" offset="88.67%"></stop>
            <stop stop-color="#98A5AE" stop-opacity="0.01" offset="100%"></stop>
            <stop stop-color="#FFFFFF" stop-opacity="0" offset="100%"></stop>
        </linearGradient>
    </defs>
    <g id="优化" stroke="none" stroke-width="1" fill="none" fill-rule="evenodd">
        <g id="ACALA-Copy-8" transform="translate(-367.000000, -7068.000000)">
            <g id="Group-69-Copy" transform="translate(367.000000, 7068.000000)">
                <path d="M84.3422172,-2.14050999e-13 L87.2562173,3.474 L90.159996,0.0133333327 L92.4622181,0.0133333327 L89.0963559,4.02291376 C89.1577948,4.12549539 89.1523539,4.26017874 89.0711071,4.35555536 C89.0133294,4.42666647 88.9333294,4.45777758 88.8488849,4.45777758 C88.7822183,4.45777758 88.719996,4.43555536 88.6666627,4.39111091 C88.5466627,4.2888887 88.5288849,4.10666648 88.6311071,3.98666649 C88.7114246,3.89238078 88.8411298,3.86120164 88.9512367,3.90175234 L92.0622181,0.199999991 L90.2444404,0.199999991 L87.3762173,3.617 L87.8272173,4.154 L90.3859714,1.10197028 C90.3650097,1.06553918 90.3516458,1.02457908 90.3466626,0.982222178 C90.339996,0.925555514 90.3533293,0.86888885 90.3810376,0.819722186 L90.4133293,0.773333299 C90.4622182,0.715555524 90.5333293,0.67999997 90.6088848,0.671111081 C90.6844404,0.662222193 90.7599959,0.688888858 90.8177737,0.737777745 C90.9377737,0.839999962 90.9555515,1.02222218 90.8533293,1.14222217 C90.8044404,1.19999995 90.7333293,1.2355555 90.6577737,1.24444439 L90.6311071,1.24444439 C90.5966985,1.24444439 90.5622899,1.23852463 90.5303255,1.22668511 L87.9492173,4.3 L88.3955504,4.8311109 L88.3542173,4.88 L92.6399959,9.94222178 L90.3333293,9.94222178 L87.8504337,6.98111311 C87.8176305,6.99370416 87.7821466,6.99999969 87.7466627,6.99999969 C87.6666627,6.99999969 87.5822183,6.96444413 87.5244405,6.89777747 C87.4755516,6.83999969 87.4533294,6.76444414 87.4577739,6.68888859 C87.4622183,6.61333304 87.5022183,6.54222193 87.5599961,6.49333304 C87.6177739,6.44444416 87.6933294,6.42222194 87.768885,6.42666638 C87.8444405,6.43111082 87.9155516,6.47111082 87.9644405,6.5288886 C88.0448907,6.62333015 88.0510142,6.75631149 87.9914771,6.8585039 L90.4222182,9.75555512 L92.2355514,9.75555512 L88.2312173,5.027 L87.8622173,5.467 L90.6389499,8.81066328 C90.676094,8.79825422 90.7158228,8.79321818 90.7555515,8.79555516 C90.8311071,8.80444405 90.9022182,8.8399996 90.951107,8.89777738 C90.9999959,8.95555516 91.0222182,9.03111071 91.0177737,9.10666626 C91.0088848,9.18222181 90.9733293,9.25333292 90.9155515,9.30222181 C90.8666626,9.3422218 90.7999959,9.36888847 90.7333293,9.36888847 L90.7066626,9.36888847 C90.6562922,9.36296254 90.6078972,9.34518477 90.5667449,9.31687201 L90.5111071,9.26666625 C90.4277362,9.16879613 90.4241867,9.02953715 90.490814,8.92604613 L87.7402173,5.613 L84.279995,9.74222179 L82.2222173,9.74222179 L86.3377727,4.8311109 L82.2844395,-2.14050999e-13 L84.3422172,-2.14050999e-13 Z" id="Combined-Shape" fill="#98A5AE" fill-rule="nonzero"></path>
                <path d="M91.7599959,9.09333293 C98.2711067,9.08888848 104.782218,9.08444404 111.293328,9.07999959 L130.284439,9.07999959 L130.284439,9.51111069 L130.284439,9.94222178 L111.293328,9.94222178 L92.3022181,9.94222178 C92.2799959,9.82222178 92.2577737,9.70666623 92.2355514,9.58666624 C92.0799959,9.4222218 91.9199959,9.25777736 91.7599959,9.09333293 Z" id="Path" fill="url(#linearGradient-1)" fill-rule="nonzero"></path>
                <path d="M0,8.90222169 C14.1219291,8.89777725 28.2438582,8.8933328 42.3657874,8.88888836 L83.5555506,8.88888836 L83.5555506,9.31999945 L83.5555506,9.75111054 L42.3657874,9.75111054 L1.17602413,9.75111054 C1.12782642,9.63111055 1.07962871,9.515555 1.031431,9.395555 C0.694047028,9.23111057 0.347023514,9.06666613 0,8.90222169 Z" id="Path-Copy-3" fill="url(#linearGradient-2)" fill-rule="nonzero" transform="translate(41.777775, 9.319999) scale(-1, 1) translate(-41.777775, -9.319999) "></path>
                <path d="M91.7599959,0.0133333327 C98.2711067,0.00888888849 104.782218,0.00444444425 111.293328,-8.28473043e-14 L130.284439,-8.28473043e-14 L130.284439,0.431111092 L130.284439,0.862222184 L111.293328,0.862222184 L92.3022181,0.862222184 C92.2799959,0.742222189 92.0955431,0.628662583 92.0733209,0.508662588 C91.9177654,0.344218151 91.9199959,0.17777777 91.7599959,0.0133333327 Z" id="Path-Copy-2" fill="url(#linearGradient-1)" fill-rule="nonzero" transform="translate(111.022217, 0.431111) scale(1, -1) translate(-111.022217, -0.431111) "></path>
                <path d="M0,0.0133333327 C14.1219291,0.00888888849 28.2438582,0.00444444425 42.3657874,-8.28966476e-14 L83.5555506,-8.28966476e-14 L83.5555506,0.431111092 L83.5555506,0.862222184 L42.3657874,0.862222184 L1.17602413,0.862222184 C1.12782642,0.742222189 0.727767402,0.628662583 0.679569691,0.508662588 C0.342185719,0.344218151 0.347023514,0.17777777 0,0.0133333327 Z" id="Path-Copy-4" fill="url(#linearGradient-2)" fill-rule="nonzero" transform="translate(41.777775, 0.431111) scale(-1, -1) translate(-41.777775, -0.431111) "></path>
                <text id="BERKELEY-BLOCKCHAIN" font-family="Helvetica" font-size="6.22222194" font-weight="normal" fill="#98A5AE">
                    <tspan x="6.22222185" y="6.88888884">BERKELEY BLOCKCHAIN</tspan>
                </text>
                <text id="CELERATOR" font-family="Helvetica" font-size="6.22222194" font-weight="normal" fill="#98A5AE">
                    <tspan x="91.1111057" y="7.33333325">CELERATOR</tspan>
                </text>
            </g>
        </g>
    </g>
</svg>