<svg width="48" height="24" viewBox="0 0 48 24" fill="none" xmlns="http://www.w3.org/2000/svg">
<path fill-rule="evenodd" clip-rule="evenodd" d="M0 5.25C0 2.352 2.352 0 5.25 0H42.75C45.648 0 48 2.352 48 5.25V18.75C48 20.1424 47.4469 21.4777 46.4623 22.4623C45.4777 23.4469 44.1424 24 42.75 24H5.25C3.85761 24 2.52226 23.4469 1.53769 22.4623C0.553123 21.4777 0 20.1424 0 18.75L0 5.25ZM12 9C11.2044 9 10.4413 9.31607 9.87868 9.87868C9.31607 10.4413 9 11.2044 9 12C9 12.7956 9.31607 13.5587 9.87868 14.1213C10.4413 14.6839 11.2044 15 12 15C12.7956 15 13.5587 14.6839 14.1213 14.1213C14.6839 13.5587 15 12.7956 15 12C15 11.2044 14.6839 10.4413 14.1213 9.87868C13.5587 9.31607 12.7956 9 12 9ZM21 12C21 11.2044 21.3161 10.4413 21.8787 9.87868C22.4413 9.31607 23.2044 9 24 9C24.7956 9 25.5587 9.31607 26.1213 9.87868C26.6839 10.4413 27 11.2044 27 12C27 12.7956 26.6839 13.5587 26.1213 14.1213C25.5587 14.6839 24.7956 15 24 15C23.2044 15 22.4413 14.6839 21.8787 14.1213C21.3161 13.5587 21 12.7956 21 12V12ZM36 9C35.2044 9 34.4413 9.31607 33.8787 9.87868C33.3161 10.4413 33 11.2044 33 12C33 12.7956 33.3161 13.5587 33.8787 14.1213C34.4413 14.6839 35.2044 15 36 15C36.7956 15 37.5587 14.6839 38.1213 14.1213C38.6839 13.5587 39 12.7956 39 12C39 11.2044 38.6839 10.4413 38.1213 9.87868C37.5587 9.31607 36.7956 9 36 9Z" fill="#98A5AE"/>
</svg>
