<?xml version="1.0" encoding="UTF-8"?>
<svg width="135.666666px" height="22px" viewBox="0 0 148 24" version="1.1" xmlns="http://www.w3.org/2000/svg" xmlns:xlink="http://www.w3.org/1999/xlink">
    <title>画板</title>
    <defs>
        <filter id="filter-1">
            <feColorMatrix in="SourceGraphic" type="matrix" values="0 0 0 0 0.596078 0 0 0 0 0.647059 0 0 0 0 0.682353 0 0 0 1.000000 0"></feColorMatrix>
        </filter>
    </defs>
    <g id="画板" stroke="none" stroke-width="1" fill="none" fill-rule="evenodd">
        <g filter="url(#filter-1)" id="Coinbase_Ventures">
            <g transform="translate(1.000000, 1.000000)">
                <path d="M7.45789109,14.4067327 C7.7349604,15.0128218 8.09240594,15.5603168 8.51922772,16.0401782 C7.57823762,16.546505 6.5920495,16.7722772 5.51709901,16.7722772 C2.3200198,16.7722772 0,14.6656139 0,11.3032079 C0,7.9169505 2.43851485,5.81028713 5.51709901,5.81028713 C6.61263366,5.81028713 7.47651485,6.04814851 8.3470396,6.51341584 C7.94112871,7.01179208 7.60633663,7.57725743 7.35192079,8.19979208 C6.82664356,7.98959406 6.28622772,7.89375248 5.72958416,7.89375248 C3.83529703,7.89375248 2.36717822,9.10135644 2.36717822,11.3032079 C2.36717822,13.3866733 3.78824752,14.7127723 5.82477228,14.7127723 C6.40820792,14.7127723 6.94688119,14.6071287 7.45789109,14.4067327 Z M13.8874455,5.81028713 C17.0361683,5.81028713 19.3093564,8.03609901 19.3093564,11.3032079 C19.3093564,14.5472277 17.0361683,16.7722772 13.8874455,16.7722772 C10.7625743,16.7722772 8.48971287,14.5472277 8.48971287,11.3032079 C8.48971287,8.03609901 10.7626832,5.81028713 13.8874455,5.81028713 L13.8874455,5.81028713 Z M13.8874455,7.82274257 C12.1356139,7.82274257 10.8568911,9.17269307 10.8568911,11.3032079 C10.8568911,13.4108515 12.135505,14.7598218 13.8874455,14.7598218 C15.6873069,14.7598218 16.9420693,13.4108515 16.9420693,11.3032079 C16.9420693,9.17269307 15.6874158,7.82274257 13.8874455,7.82274257 Z M20.8013267,16.5356139 L20.8013267,6.04684158 L23.1445446,6.04684158 L23.1445446,16.5356139 L20.8013267,16.5356139 Z M20.4928911,2.82678218 C20.4928911,2.02193069 21.1801188,1.38273267 21.9610099,1.38273267 C22.7426634,1.38273267 23.4291287,2.0220396 23.4291287,2.82689109 C23.4291287,3.65570297 22.7426634,4.3189703 21.9610099,4.3189703 C21.1801188,4.3189703 20.4928911,3.65570297 20.4928911,2.82689109 L20.4928911,2.82678218 Z M25.1894554,6.71021782 C26.6575743,6.1420297 28.4574356,5.81028713 29.9956931,5.81028713 C32.6716337,5.81028713 34.3763069,6.82849505 34.3763069,9.78793069 L34.3763069,16.5356139 L32.0562871,16.5356139 L32.0562871,10.001396 C32.0562871,8.4860099 31.1090891,7.94080198 29.8065149,7.94080198 C28.977703,7.94080198 28.1498713,8.05929703 27.5335446,8.24869307 L27.5335446,16.5357228 L25.1894554,16.5357228 L25.1894554,6.71021782 L25.1894554,6.71021782 Z M36.339099,0.435643564 L38.6824257,0.435643564 L38.6824257,6.33142574 C39.179495,6.07091089 40.1505446,5.81039604 41.0735644,5.81039604 C44.1042277,5.81039604 46.377198,7.75151485 46.377198,11.1139208 C46.377198,14.499198 44.1281881,16.7721683 40.2457327,16.7721683 C38.7304554,16.7721683 37.4045743,16.464495 36.339099,16.0858119 L36.339099,0.435643564 Z M38.6824257,14.5472277 C39.1323366,14.688703 39.724703,14.7598218 40.3158713,14.7598218 C42.4705644,14.7598218 44.0100198,13.5762871 44.0100198,11.1609703 C44.0100198,9.12455446 42.5658614,7.91705941 40.7899604,7.91705941 C39.8668317,7.91705941 39.156297,8.15437624 38.6824257,8.41489109 L38.6824257,14.5473366 L38.6824257,14.5472277 Z M53.1479703,9.50356436 C53.1479703,8.3669703 52.295198,7.84681188 51.1355149,7.84681188 C49.9279109,7.84681188 48.9808218,8.20153465 48.1049604,8.69871287 L48.1049604,6.66207921 C49.0279802,6.1420297 50.2116238,5.81028713 51.5144158,5.81028713 C53.8103663,5.81028713 55.4440297,6.75737624 55.4440297,9.38506931 L55.4440297,16.3222574 C54.4498911,16.5827723 53.0296931,16.7489703 51.8460495,16.7489703 C49.1231683,16.7489703 47.1339109,15.9202673 47.1339109,13.5522178 C47.1339109,11.4215941 48.9568614,10.3801881 51.9874158,10.3801881 L53.1479703,10.3801881 L53.1479703,9.50345545 L53.1479703,9.50356436 Z M53.1479703,11.9426238 L52.1536139,11.9426238 C50.519297,11.9426238 49.4540396,12.4156238 49.4540396,13.481099 C49.4540396,14.5703168 50.4489406,14.9963762 51.8692475,14.9963762 C52.2249505,14.9963762 52.7220198,14.9493267 53.1478614,14.8779901 L53.1478614,11.9426238 L53.1479703,11.9426238 Z M57.1488119,13.6944554 C58.1198614,14.4281881 59.2794356,14.8782079 60.3446931,14.8782079 C61.3869703,14.8782079 62.0735446,14.5231584 62.0735446,13.6944554 C62.0735446,12.8416832 61.4580891,12.5340099 60.1082475,12.1791782 C57.9303564,11.6821089 57.0064653,10.8062475 57.0064653,8.98307921 C57.0064653,6.85169307 58.6169307,5.81050495 60.7475545,5.81050495 C61.931198,5.81050495 62.8782871,6.07091089 63.7541485,6.61513861 L63.7541485,8.76972277 C62.8312376,8.10721782 61.931198,7.70446535 60.8187822,7.70446535 C59.8005743,7.70446535 59.2563465,8.20153465 59.2563465,8.88810891 C59.2563465,9.57446535 59.705495,9.93016832 60.913099,10.2610396 C63.3051089,10.7820693 64.3465149,11.6821089 64.3465149,13.5762871 C64.3465149,15.7779208 62.6656931,16.7721683 60.3927228,16.7721683 C59.1611584,16.7721683 57.9303564,16.441297 57.1488119,15.9202673 L57.1488119,13.6944554 L57.1488119,13.6944554 Z M67.5544851,11.8244554 L67.5544851,11.871505 C67.6968317,13.741505 69.3064257,14.7598218 70.9398713,14.7598218 C72.3840297,14.7598218 73.426198,14.4281881 74.467495,13.741505 L74.467495,15.802099 C73.5205149,16.464495 72.1235149,16.7721683 70.7745446,16.7721683 C67.5073267,16.7721683 65.2816238,14.688703 65.2816238,11.3744356 C65.2816238,8.03609901 67.459297,5.81039604 70.3484851,5.81039604 C73.4023465,5.81039604 74.846505,7.77558416 74.846505,10.6399406 L74.846505,11.8243465 L67.5544851,11.8243465 L67.5544851,11.8244554 Z M72.6446535,10.3090693 C72.597495,8.67464356 71.7926436,7.77558416 70.2773663,7.77558416 C68.9275248,7.77558416 67.9333861,8.72267327 67.625604,10.3090693 L72.6446535,10.3090693 Z" id="形状" fill="#0667D0" fill-rule="nonzero"></path>
                <rect id="矩形" fill="#AAB4C0" fill-rule="nonzero" x="83.2079208" y="0" width="1" height="22" rx="0.381188119"></rect>
                <g id="编组" transform="translate(91.702970, 5.990099)" fill="#202A36" fill-rule="nonzero">
                    <path d="M5.41352475,10.5643564 L4.10790099,10.5643564 L0.0675247525,0.0840792079 L1.24964356,0.0840792079 L4.77835644,9.47045545 L8.30706931,0.0840792079 L9.45390099,0.0840792079 L5.41352475,10.5643564 Z M15.8733267,6.7709901 L10.0509505,6.7709901 L10.0509505,6.80627723 C10.0509505,8.69413861 11.409396,9.80568317 12.909099,9.80568317 C14.003,9.80568317 14.7616733,9.52338614 15.5379901,8.94114851 L15.5379901,9.99976238 C14.8498911,10.5114257 13.8618515,10.7407921 12.909099,10.7407921 C10.6860099,10.7407921 8.99222772,9.22344554 8.99222772,6.71805941 C8.99222772,4.40675248 10.5801485,2.69532673 12.6444455,2.69532673 C14.5852376,2.69532673 15.8732178,3.85980198 15.8732178,6.04760396 L15.8732178,6.7709901 L15.8733267,6.7709901 Z M10.1214158,5.88881188 L14.814604,5.88881188 C14.7440297,4.28324752 13.879495,3.63043564 12.5915149,3.63043564 C11.3917525,3.63043564 10.4213564,4.4420396 10.1214158,5.88881188 Z M17.052505,10.5643564 L17.052505,3.27756436 C18.0757228,2.9070495 19.240198,2.69532673 20.2811683,2.69532673 C22.2219604,2.69532673 23.4040792,3.454 23.4040792,5.37714851 L23.4040792,10.5643564 L22.3454653,10.5643564 L22.3454653,5.58887129 C22.3454653,4.01859406 21.2339208,3.68336634 20.1929505,3.68336634 C19.3814554,3.68336634 18.6580693,3.82451485 18.1111188,3.96566337 L18.1111188,10.5643564 L17.052505,10.5643564 L17.052505,10.5643564 Z M24.0540594,3.77158416 L24.0540594,2.87176238 L25.2361782,2.87176238 L25.2361782,1.00154455 L26.2947921,1.00154455 L26.2947921,2.87176238 L28.4649505,2.87176238 L28.4649505,3.77158416 L26.2947921,3.77158416 L26.2947921,8.46477228 C26.2947921,9.45281188 26.6829505,9.8409703 27.4063366,9.8409703 C27.9003564,9.8409703 28.3061584,9.68217822 28.8354653,9.41752475 L28.8354653,10.3526337 C28.3767327,10.582 27.8474257,10.7407921 27.1769703,10.7407921 C26.0654257,10.7407921 25.2361782,10.1585545 25.2361782,8.57063366 L25.2361782,3.77158416 L24.0540594,3.77158416 L24.0540594,3.77158416 Z M35.8370198,2.87176238 L35.8370198,10.4761386 C34.9019109,10.6525743 33.9491584,10.7407921 33.155198,10.7407921 C30.9321089,10.7407921 29.6617723,9.98211881 29.6617723,8.0589703 L29.6617723,2.87176238 L30.7203861,2.87176238 L30.7203861,8.0060396 C30.7203861,9.45281188 31.8672178,9.82332673 33.0846238,9.82332673 C33.6139307,9.82332673 34.2138119,9.7880396 34.7784059,9.71746535 L34.7784059,2.87176238 L35.8370198,2.87176238 L35.8370198,2.87176238 Z M38.6923366,4.14209901 L38.6923366,10.5643564 L37.6337228,10.5643564 L37.6337228,3.57750495 C38.4453267,3.06584158 39.4333663,2.74825743 40.4919802,2.74825743 C40.9154257,2.74825743 41.3388713,2.80118812 41.7799604,2.9070495 L41.7799604,3.9480198 C41.3212277,3.78922772 40.7742772,3.75394059 40.4214059,3.75394059 C39.6627327,3.75394059 39.0981386,3.91273267 38.6923366,4.14209901 L38.6923366,4.14209901 Z M48.6403663,6.7709901 L42.8179901,6.7709901 L42.8179901,6.80627723 C42.8179901,8.69413861 44.1765446,9.80568317 45.6762475,9.80568317 C46.7701485,9.80568317 47.5288218,9.52338614 48.3051386,8.94114851 L48.3051386,9.99976238 C47.6170396,10.5114257 46.629,10.7407921 45.6762475,10.7407921 C43.4531584,10.7407921 41.7593762,9.22344554 41.7593762,6.71805941 C41.7593762,4.40675248 43.347297,2.69532673 45.4115941,2.69532673 C47.3523861,2.69532673 48.6403663,3.85980198 48.6403663,6.04760396 L48.6403663,6.7709901 Z M42.8885644,5.88881188 L47.5817525,5.88881188 C47.5111782,4.28324752 46.6466436,3.63043564 45.3586634,3.63043564 C44.158901,3.63043564 43.188505,4.4420396 42.8885644,5.88881188 Z M49.4491386,10.1232673 L49.4491386,8.92350495 C50.1019505,9.50574257 50.7724059,9.8409703 51.619297,9.8409703 C52.5896931,9.8409703 53.2072178,9.47045545 53.2072178,8.60592079 C53.2072178,7.68845545 52.5367624,7.44144554 51.3193564,7.03564356 C49.960802,6.57691089 49.3785644,6.01231683 49.3785644,4.77726733 C49.3785644,3.41871287 50.4018911,2.69532673 51.7957327,2.69532673 C52.5544059,2.69532673 53.2954356,2.85411881 53.8953168,3.27756436 L53.8953168,4.42439604 C53.2954356,3.93037624 52.6779109,3.59514851 51.7957327,3.59514851 C50.9488416,3.59514851 50.4018911,4.05388119 50.4018911,4.77726733 C50.4018911,5.4830099 50.8253366,5.85352475 52.0074554,6.2240396 C53.3483663,6.62984158 54.2481881,7.14150495 54.2481881,8.53534653 C54.2481881,10.0526931 53.0660693,10.7407921 51.619297,10.7407921 C50.7547624,10.7407921 49.9255149,10.4937822 49.4491386,10.1232673 L49.4491386,10.1232673 Z" id="logo_svg__a"></path>
                    <path d="M5.41352475,10.5643564 L4.10790099,10.5643564 L0.0675247525,0.0840792079 L1.24964356,0.0840792079 L4.77835644,9.47045545 L8.30706931,0.0840792079 L9.45390099,0.0840792079 L5.41352475,10.5643564 Z M15.8733267,6.7709901 L10.0509505,6.7709901 L10.0509505,6.80627723 C10.0509505,8.69413861 11.409396,9.80568317 12.909099,9.80568317 C14.003,9.80568317 14.7616733,9.52338614 15.5379901,8.94114851 L15.5379901,9.99976238 C14.8498911,10.5114257 13.8618515,10.7407921 12.909099,10.7407921 C10.6860099,10.7407921 8.99222772,9.22344554 8.99222772,6.71805941 C8.99222772,4.40675248 10.5801485,2.69532673 12.6444455,2.69532673 C14.5852376,2.69532673 15.8732178,3.85980198 15.8732178,6.04760396 L15.8732178,6.7709901 L15.8733267,6.7709901 Z M10.1214158,5.88881188 L14.814604,5.88881188 C14.7440297,4.28324752 13.879495,3.63043564 12.5915149,3.63043564 C11.3917525,3.63043564 10.4213564,4.4420396 10.1214158,5.88881188 Z M17.052505,10.5643564 L17.052505,3.27756436 C18.0757228,2.9070495 19.240198,2.69532673 20.2811683,2.69532673 C22.2219604,2.69532673 23.4040792,3.454 23.4040792,5.37714851 L23.4040792,10.5643564 L22.3454653,10.5643564 L22.3454653,5.58887129 C22.3454653,4.01859406 21.2339208,3.68336634 20.1929505,3.68336634 C19.3814554,3.68336634 18.6580693,3.82451485 18.1111188,3.96566337 L18.1111188,10.5643564 L17.052505,10.5643564 L17.052505,10.5643564 Z M24.0540594,3.77158416 L24.0540594,2.87176238 L25.2361782,2.87176238 L25.2361782,1.00154455 L26.2947921,1.00154455 L26.2947921,2.87176238 L28.4649505,2.87176238 L28.4649505,3.77158416 L26.2947921,3.77158416 L26.2947921,8.46477228 C26.2947921,9.45281188 26.6829505,9.8409703 27.4063366,9.8409703 C27.9003564,9.8409703 28.3061584,9.68217822 28.8354653,9.41752475 L28.8354653,10.3526337 C28.3767327,10.582 27.8474257,10.7407921 27.1769703,10.7407921 C26.0654257,10.7407921 25.2361782,10.1585545 25.2361782,8.57063366 L25.2361782,3.77158416 L24.0540594,3.77158416 L24.0540594,3.77158416 Z M35.8370198,2.87176238 L35.8370198,10.4761386 C34.9019109,10.6525743 33.9491584,10.7407921 33.155198,10.7407921 C30.9321089,10.7407921 29.6617723,9.98211881 29.6617723,8.0589703 L29.6617723,2.87176238 L30.7203861,2.87176238 L30.7203861,8.0060396 C30.7203861,9.45281188 31.8672178,9.82332673 33.0846238,9.82332673 C33.6139307,9.82332673 34.2138119,9.7880396 34.7784059,9.71746535 L34.7784059,2.87176238 L35.8370198,2.87176238 L35.8370198,2.87176238 Z M38.6923366,4.14209901 L38.6923366,10.5643564 L37.6337228,10.5643564 L37.6337228,3.57750495 C38.4453267,3.06584158 39.4333663,2.74825743 40.4919802,2.74825743 C40.9154257,2.74825743 41.3388713,2.80118812 41.7799604,2.9070495 L41.7799604,3.9480198 C41.3212277,3.78922772 40.7742772,3.75394059 40.4214059,3.75394059 C39.6627327,3.75394059 39.0981386,3.91273267 38.6923366,4.14209901 L38.6923366,4.14209901 Z M48.6403663,6.7709901 L42.8179901,6.7709901 L42.8179901,6.80627723 C42.8179901,8.69413861 44.1765446,9.80568317 45.6762475,9.80568317 C46.7701485,9.80568317 47.5288218,9.52338614 48.3051386,8.94114851 L48.3051386,9.99976238 C47.6170396,10.5114257 46.629,10.7407921 45.6762475,10.7407921 C43.4531584,10.7407921 41.7593762,9.22344554 41.7593762,6.71805941 C41.7593762,4.40675248 43.347297,2.69532673 45.4115941,2.69532673 C47.3523861,2.69532673 48.6403663,3.85980198 48.6403663,6.04760396 L48.6403663,6.7709901 Z M42.8885644,5.88881188 L47.5817525,5.88881188 C47.5111782,4.28324752 46.6466436,3.63043564 45.3586634,3.63043564 C44.158901,3.63043564 43.188505,4.4420396 42.8885644,5.88881188 Z M49.4491386,10.1232673 L49.4491386,8.92350495 C50.1019505,9.50574257 50.7724059,9.8409703 51.619297,9.8409703 C52.5896931,9.8409703 53.2072178,9.47045545 53.2072178,8.60592079 C53.2072178,7.68845545 52.5367624,7.44144554 51.3193564,7.03564356 C49.960802,6.57691089 49.3785644,6.01231683 49.3785644,4.77726733 C49.3785644,3.41871287 50.4018911,2.69532673 51.7957327,2.69532673 C52.5544059,2.69532673 53.2954356,2.85411881 53.8953168,3.27756436 L53.8953168,4.42439604 C53.2954356,3.93037624 52.6779109,3.59514851 51.7957327,3.59514851 C50.9488416,3.59514851 50.4018911,4.05388119 50.4018911,4.77726733 C50.4018911,5.4830099 50.8253366,5.85352475 52.0074554,6.2240396 C53.3483663,6.62984158 54.2481881,7.14150495 54.2481881,8.53534653 C54.2481881,10.0526931 53.0660693,10.7407921 51.619297,10.7407921 C50.7547624,10.7407921 49.9255149,10.4937822 49.4491386,10.1232673 L49.4491386,10.1232673 Z" id="logo_svg__a"></path>
                </g>
            </g>
        </g>
    </g>
</svg>