<?xml version="1.0" encoding="UTF-8"?>
<svg width="54px" height="30px" viewBox="0 0 72 40" version="1.1" xmlns="http://www.w3.org/2000/svg" xmlns:xlink="http://www.w3.org/1999/xlink">
    <title>Group 59 Copy 2</title>
    <defs>
        <polygon id="path-1" points="9.56573443e-06 0.0166013321 71.7430082 0.0166013321 71.7430082 28.301378 9.56573443e-06 28.301378"></polygon>
        <polygon id="path-3" points="0.0106179652 0.0164450362 69.6013598 0.0164450362 69.6013598 4.61546686 0.0106179652 4.61546686"></polygon>
    </defs>
    <g id="优化" stroke="none" stroke-width="1" fill="none" fill-rule="evenodd">
        <g id="ACALA-Copy-8" transform="translate(-397.000000, -8953.000000)">
            <g id="Group-59-Copy-2" transform="translate(397.000000, 8953.000000)">
                <g id="Group-3">
                    <mask id="mask-2" fill="white">
                        <use xlink:href="#path-1"></use>
                    </mask>
                    <g id="Clip-2"></g>
                    <path d="M71.5873833,0.483480915 L58.2814706,23.3214088 L71.7430178,23.3214088 L71.7430178,27.7177964 L50.1500702,27.7177964 L63.4560068,4.84095992 L50.8892863,4.84095992 L50.8892863,0.483480915 L71.5873833,0.483480915 Z M41.3572711,0.483480915 L46.4539661,0.483480915 L46.4539661,27.7177964 L42.5633667,27.7177964 L28.3626035,9.7820683 L28.3626035,27.7177964 L23.2659084,27.7177964 L23.2659084,0.483480915 L27.1954165,0.483480915 L41.3572711,18.4581177 L41.3572711,0.483480915 Z M9.76545261,0.0166013321 C14.395292,0.0166013321 17.468882,2.97348942 18.8305882,5.65799321 L15.0566908,7.87564134 C13.6171673,5.73581046 12.060918,4.52971484 9.76545261,4.52971484 C7.58671311,4.52971484 6.03046378,5.81362771 6.03046378,7.56439625 C6.03046378,9.23737146 7.04201628,10.2100153 9.37639028,11.0659573 L11.2438847,11.7662647 C17.0409111,13.8283022 19.5698043,16.3571954 19.5698043,20.2478188 C19.5698043,25.5390569 14.5509026,28.301378 9.92108711,28.301378 C5.05779599,28.301378 1.2449899,25.422355 9.56573443e-06,21.609525 L3.92951761,19.5475113 C4.9021854,21.7262508 6.7307712,23.6715625 9.92108711,23.6715625 C12.3332545,23.6715625 14.2785661,22.5043755 14.2785661,20.325636 C14.2785661,18.107964 12.8779513,17.1353201 9.84326986,16.0070417 L8.09247741,15.3845515 C4.04624349,13.9061195 0.972653442,11.8829905 0.972653442,7.36987704 C0.972653442,3.09019138 4.9021854,0.0166013321 9.76545261,0.0166013321 L9.76545261,0.0166013321 Z" id="Fill-1" fill="#98A5AE" mask="url(#mask-2)"></path>
                </g>
                <g id="Group-6" transform="translate(1.267460, 34.508387)">
                    <mask id="mask-4" fill="white">
                        <use xlink:href="#path-3"></use>
                    </mask>
                    <g id="Clip-5"></g>
                    <path d="M66.9125515,2.36904501 L68.1152513,2.36904501 C68.5023287,2.36904501 68.910116,2.09254745 68.910116,1.58797888 C68.910116,1.08338638 68.5023287,0.813823988 68.1152513,0.813823988 L66.9125515,0.813823988 L66.9125515,2.36904501 Z M68.8548499,4.5394384 C68.827205,3.91735478 68.4332163,3.53027734 67.8664226,3.06024106 L66.9125515,3.06024106 L66.9125515,4.5394384 L66.2213554,4.5394384 L66.2213554,0.122604018 L66.698279,0.122604018 L66.9125515,0.122604018 L68.1152513,0.122604018 C68.30879,0.122604018 68.4884823,0.157184148 68.6682225,0.219385336 C68.8410274,0.288521682 69.0068973,0.392190329 69.1382348,0.516616619 C69.4354661,0.793090259 69.6013598,1.17325646 69.6013598,1.58797888 C69.6013598,2.00961253 69.4354661,2.38977874 69.1382348,2.65936505 C69.027631,2.76994494 68.8963174,2.85287985 68.7580686,2.9220162 C68.8755837,3.03950733 68.9861636,3.15702238 69.0898561,3.29524724 C69.3801762,3.66852611 69.5253123,4.06942604 69.546046,4.51179343 L69.546046,4.5394384 L68.8548499,4.5394384 Z M63.6500382,3.84130719 L65.5232003,3.84130719 L65.5232003,4.53252716 L62.9588421,4.53252716 L62.9588421,0.115692775 L65.3642417,0.115692775 L65.3642417,0.806912745 L63.6500382,0.806912745 L63.6500382,1.8298963 L65.2398393,1.8298963 L65.2398393,2.52109235 L63.6500382,2.52109235 L63.6500382,3.84130719 Z M61.486556,0.122604018 L62.1846872,0.122604018 C62.2192434,0.675599125 62.1639535,1.22857032 62.0257047,1.80225133 C61.8598349,2.45891508 61.6110062,3.02568485 61.3898225,3.52336609 C61.2239049,3.91044354 61.0718575,4.24911836 61.0027212,4.5394384 L60.0695838,4.5394384 C60.0074065,4.26294085 59.9037139,3.9380646 59.7861989,3.56483355 C59.6687078,3.19160251 59.5442815,2.78376742 59.4267903,2.34140003 C59.3092753,2.81141239 59.1710265,3.23304605 59.0466002,3.6201235 C58.9360203,3.97264473 58.8323278,4.27676334 58.7701266,4.5394384 L57.8577229,4.5394384 C57.7817232,4.24911836 57.6365392,3.91044354 57.4637581,3.52336609 C57.2425745,3.02568485 56.9937219,2.45891508 56.8347394,1.80225133 C56.6896033,1.22857032 56.6342894,0.675599125 56.6688456,0.122604018 L57.3669768,0.122604018 C57.2771307,1.38061767 57.7264093,2.40360122 58.0996403,3.24686854 C58.1687767,3.40585105 58.2310018,3.55101107 58.2931791,3.70305841 C58.320824,3.60630101 58.3554042,3.50951969 58.3899604,3.40585105 C58.6802804,2.50726987 59.0327777,1.40826264 59.0742452,0.122604018 L59.7723764,0.122604018 C59.8138439,1.33915021 60.1663651,2.45200384 60.44975,3.35747234 C60.4843062,3.48187472 60.5257976,3.59938977 60.5603538,3.70996966 C60.6225789,3.55792231 60.6847801,3.40585105 60.7608037,3.24686854 C61.1271475,2.40360122 61.5833373,1.38061767 61.486556,0.122604018 L61.486556,0.122604018 Z M55.1412696,3.51643094 C55.355542,3.25377978 55.4661458,2.83905737 55.4661458,2.32757755 C55.4661458,1.80916257 55.355542,1.4013514 55.1412696,1.13870024 C54.9269971,0.876025176 54.5952335,0.737800314 54.1528661,0.737800314 C53.7173861,0.737800314 53.3856225,0.876025176 53.17135,1.13870024 C52.9570776,1.4013514 52.8395626,1.80916257 52.8395626,2.32757755 C52.8395626,2.83905737 52.9570537,3.25377978 53.17135,3.51643094 C53.3856225,3.779106 53.7173861,3.91044354 54.1528661,3.91044354 C54.5952335,3.91044354 54.9269971,3.779106 55.1412696,3.51643094 L55.1412696,3.51643094 Z M55.673507,0.703244098 C55.991472,1.09720887 56.1573658,1.64326882 56.1573658,2.32757755 C56.1573658,3.01186236 55.991472,3.55792231 55.673507,3.95188708 C55.500726,4.16615953 55.2795423,4.32516595 55.0237784,4.43574584 C54.7680385,4.54634965 54.4777185,4.60163959 54.1528422,4.60163959 C53.8279899,4.60163959 53.5376938,4.54634965 53.2819299,4.43574584 C53.02619,4.32516595 52.8050063,4.16615953 52.6322013,3.95188708 C52.3142602,3.55792231 52.1483665,3.01186236 52.1483665,2.32757755 C52.1483665,1.64326882 52.3142602,1.09720887 52.6322013,0.703244098 C52.8050063,0.488971647 53.02619,0.323053983 53.2819299,0.212474093 C53.5376938,0.101870289 53.8279899,0.0466042581 54.1528422,0.0466042581 C54.4777185,0.0466042581 54.7680385,0.101870289 55.0237784,0.212474093 C55.2795423,0.323053983 55.500726,0.488971647 55.673507,0.703244098 L55.673507,0.703244098 Z M50.1853343,2.36904501 C50.5655244,2.36904501 50.9802229,2.09948261 50.9802229,1.58797888 C50.9802229,1.07647514 50.5655244,0.806912745 50.1853343,0.806912745 L48.9826345,0.806912745 L48.9826345,2.36904501 L50.1853343,2.36904501 Z M51.2083179,0.516616619 C51.5055252,0.786179015 51.6714429,1.17325646 51.6714429,1.58797888 C51.6714429,2.00961253 51.5055252,2.38977874 51.2083179,2.66627629 C51.0700691,2.79067866 50.9111105,2.89437123 50.7313943,2.96345974 C50.5585893,3.02568485 50.3719618,3.06024106 50.1853343,3.06024106 L48.9826345,3.06024106 L48.9826345,4.5394384 L48.2914385,4.5394384 L48.2914385,0.115692775 L50.1853343,0.115692775 C50.3719618,0.115692775 50.5585893,0.150272905 50.7313943,0.219385336 C50.9111105,0.288521682 51.0700691,0.385279086 51.2083179,0.516616619 L51.2083179,0.516616619 Z M43.4045917,4.5394384 L42.7064844,4.5394384 L43.1626743,0.115692775 L44.2962377,0.115692775 L45.1464402,3.52336609 L45.9966427,0.115692775 L47.1302061,0.115692775 L47.586396,4.5394384 L46.8882887,4.5394384 L46.5150577,0.869113933 L45.5473401,4.5394384 L44.7455403,4.5394384 L43.7847818,0.869113933 L43.4045917,4.5394384 Z M40.2872623,3.84130719 L42.1604245,3.84130719 L42.1604245,4.53252716 L39.5960424,4.53252716 L39.5960424,0.115692775 L42.001442,0.115692775 L42.001442,0.806912745 L40.2872623,0.806912745 L40.2872623,1.8298963 L41.8770157,1.8298963 L41.8770157,2.52109235 L40.2872623,2.52109235 L40.2872623,3.84130719 Z M35.7667593,3.51643094 C35.9810318,3.25377978 36.0916117,2.83905737 36.0916117,2.32757755 C36.0916117,1.80916257 35.9810318,1.4013514 35.7667593,1.13870024 C35.5524869,0.876025176 35.2206994,0.737800314 34.778332,0.737800314 C34.3428758,0.737800314 34.0110883,0.876025176 33.7968159,1.13870024 C33.5825434,1.4013514 33.4650523,1.80916257 33.4650523,2.32757755 C33.4650523,2.83905737 33.5825434,3.25377978 33.7968159,3.51643094 C34.0110883,3.779106 34.3428758,3.91044354 34.778332,3.91044354 C35.2206994,3.91044354 35.5524869,3.779106 35.7667593,3.51643094 L35.7667593,3.51643094 Z M36.2989729,0.703244098 C36.6169379,1.09720887 36.7828555,1.64326882 36.7828555,2.32757755 C36.7828555,3.01186236 36.6169379,3.55792231 36.2989729,3.95188708 C36.1261918,4.16615953 35.9050081,4.32516595 35.6492443,4.43574584 C35.3935044,4.54634965 35.1031843,4.60163959 34.778332,4.60163959 C34.4534796,4.60163959 34.1631596,4.54634965 33.9074197,4.43574584 C33.6516798,4.32516595 33.4304961,4.16615953 33.2576911,3.95188708 C32.9397261,3.55792231 32.7738323,3.01186236 32.7738323,2.32757755 C32.7738323,1.64326882 32.9397261,1.09720887 33.2576911,0.703244098 C33.4304961,0.488971647 33.6516798,0.323053983 33.9074197,0.212474093 C34.1631596,0.101870289 34.4534796,0.0466042581 34.778332,0.0466042581 C35.1031843,0.0466042581 35.3935044,0.101870289 35.6492443,0.212474093 C35.9050081,0.323053983 36.1261918,0.488971647 36.2989729,0.703244098 L36.2989729,0.703244098 Z M32.3176425,0.115692775 L32.3176425,0.806912745 L31.239345,0.806912745 L31.239345,4.5394384 L30.548149,4.5394384 L30.548149,0.806912745 L29.4767628,0.806912745 L29.4767628,0.115692775 L32.3176425,0.115692775 Z M26.9607833,0.115692775 L26.9607833,0.806912745 L25.8825098,0.806912745 L25.8825098,4.5394384 L25.1912899,4.5394384 L25.1912899,0.806912745 L24.1199276,0.806912745 L24.1199276,0.115692775 L26.9607833,0.115692775 Z M23.207524,3.64779238 C23.2766603,3.62703474 23.3388615,3.60630101 23.3872402,3.59247852 L23.5876902,4.25602961 C23.5393115,4.26985209 23.4840215,4.28369849 23.4217964,4.30443222 C23.1453228,4.3943023 22.7306003,4.53252716 22.288233,4.58781711 C22.1499842,4.60855084 22.0186467,4.61548599 21.8942443,4.61548599 C21.4864092,4.61548599 21.1546456,4.52561592 20.8988818,4.33898844 C20.5048931,4.05557964 20.3113783,3.57865604 20.3113783,2.92892744 L20.3113783,1.70549392 C20.3113783,1.05574141 20.5048931,0.578817807 20.8988818,0.295432925 C21.2375805,0.0535155013 21.7007056,-0.0363545737 22.288233,0.0466042581 C22.7306003,0.101870289 23.1453228,0.24014298 23.4217964,0.329965226 C23.4840215,0.35072287 23.5393115,0.364545356 23.5876902,0.378367842 L23.3872402,1.04191893 C23.3388615,1.02809644 23.2766603,1.00738662 23.207524,0.98662898 C22.9586953,0.903694063 22.5785291,0.779267772 22.1983629,0.73088907 C21.797463,0.675599125 21.4933204,0.717066584 21.3067169,0.855291447 C21.1062669,1.00045147 21.0025743,1.29074759 21.0025743,1.70549392 L21.0025743,2.92892744 C21.0025743,3.34364986 21.1062669,3.6339699 21.3067169,3.779106 C21.4933204,3.91735478 21.797463,3.95882224 22.1983629,3.90353229 C22.5785291,3.85515359 22.9586953,3.73070339 23.207524,3.64779238 L23.207524,3.64779238 Z M17.7746412,3.84130719 L19.6478272,3.84130719 L19.6478272,4.53252716 L17.0834451,4.53252716 L17.0834451,0.115692775 L19.4888447,0.115692775 L19.4888447,0.806912745 L17.7746412,0.806912745 L17.7746412,1.8298963 L19.3644184,1.8298963 L19.3644184,2.52109235 L17.7746412,2.52109235 L17.7746412,3.84130719 Z M15.4383779,0.115692775 L16.129574,0.115692775 L16.129574,4.5394384 L15.3554191,4.5394384 L13.4615233,1.33915021 L13.4615233,4.5394384 L12.7703033,4.5394384 L12.7703033,0.115692775 L13.1504695,0.115692775 L13.1573807,0.115692775 L13.5444582,0.115692775 L15.438354,3.32291613 L15.438354,0.115692775 L15.4383779,0.115692775 Z M11.1874373,0.115692775 L11.8786573,0.115692775 L11.8786573,4.5394384 L11.1044785,4.5394384 L9.21058262,1.33915021 L9.21058262,4.5394384 L8.51938657,4.5394384 L8.51938657,0.115692775 L8.89955277,0.115692775 L8.90646401,0.115692775 L9.29351754,0.115692775 L11.1874373,3.32291613 L11.1874373,0.115692775 Z M6.81900553,3.51643094 C7.03327798,3.25377978 7.14388179,2.83905737 7.14388179,2.32757755 C7.14388179,1.80916257 7.03327798,1.4013514 6.81900553,1.13870024 C6.60473308,0.876025176 6.27294558,0.737800314 5.83057819,0.737800314 C5.39512205,0.737800314 5.06333455,0.876025176 4.8490621,1.13870024 C4.63478965,1.4013514 4.51729851,1.80916257 4.51729851,2.32757755 C4.51729851,2.83905737 4.63478965,3.25377978 4.8490621,3.51643094 C5.06333455,3.779106 5.39512205,3.91044354 5.83057819,3.91044354 C6.27294558,3.91044354 6.60473308,3.779106 6.81900553,3.51643094 L6.81900553,3.51643094 Z M7.35124299,0.703244098 C7.66920801,1.09720887 7.83510176,1.64326882 7.83510176,2.32757755 C7.83510176,3.01186236 7.66920801,3.55792231 7.35124299,3.95188708 C7.178438,4.16615953 6.95725431,4.32516595 6.7015144,4.43574584 C6.44575057,4.54634965 6.15545445,4.60163959 5.83057819,4.60163959 C5.50572585,4.60163959 5.21540581,4.54634965 4.9596659,4.43574584 C4.70390208,4.32516595 4.48271838,4.16615953 4.3099373,3.95188708 C3.99197229,3.55792231 3.82607854,3.01186236 3.82607854,2.32757755 C3.82607854,1.64326882 3.99197229,1.09720887 4.3099373,0.703244098 C4.48271838,0.488971647 4.70390208,0.323053983 4.9596659,0.212474093 C5.21540581,0.101870289 5.50572585,0.0466042581 5.83057819,0.0466042581 C6.15545445,0.0466042581 6.44575057,0.101870289 6.7015144,0.212474093 C6.95725431,0.323053983 7.178438,0.488971647 7.35124299,0.703244098 L7.35124299,0.703244098 Z M2.90678755,3.64779238 C2.97589998,3.62703474 3.03810117,3.60630101 3.08650378,3.59247852 L3.28695375,4.25602961 C3.23857505,4.26985209 3.18326119,4.28369849 3.12106,4.30443222 C2.84456245,4.3943023 2.42984003,4.53252716 1.98747264,4.58781711 C1.84922387,4.60855084 1.71791025,4.61548599 1.59348396,4.61548599 C1.18567278,4.61548599 0.853885284,4.52561592 0.598145374,4.33898844 C0.204156687,4.05557964 0.0106179652,3.57865604 0.0106179652,2.92892744 L0.0106179652,1.70549392 C0.0106179652,1.05574141 0.204156687,0.578817807 0.598145374,0.295432925 C0.936844116,0.0535155013 1.39994523,-0.0363545737 1.98747264,0.0466042581 C2.42984003,0.101870289 2.84456245,0.24014298 3.12106,0.329965226 C3.18326119,0.35072287 3.23857505,0.364545356 3.28695375,0.378367842 L3.08650378,1.04191893 C3.03810117,1.02809644 2.97589998,1.00738662 2.90678755,0.98662898 C2.65793497,0.903694063 2.27779268,0.779267772 1.89762648,0.73088907 C1.49672655,0.675599125 1.19258403,0.717066584 1.00595655,0.855291447 C0.805506582,1.00045147 0.701837935,1.29074759 0.701837935,1.70549392 L0.701837935,2.92892744 C0.701837935,3.34364986 0.805506582,3.6339699 1.00595655,3.779106 C1.19258403,3.91735478 1.49672655,3.95882224 1.89762648,3.90353229 C2.27779268,3.85515359 2.65793497,3.73070339 2.90678755,3.64779238 L2.90678755,3.64779238 Z" id="Fill-4" fill="#98A5AE" mask="url(#mask-4)"></path>
                </g>
            </g>
        </g>
    </g>
</svg>