<svg width="48" height="48" viewBox="0 0 48 48" fill="none" xmlns="http://www.w3.org/2000/svg">
<circle cx="24" cy="24" r="24" fill="url(#paint0_linear)"/>
<path fill-rule="evenodd" clip-rule="evenodd" d="M34 17.9166C33.2641 18.2417 32.4734 18.4615 31.6433 18.5602C32.4905 18.0544 33.1412 17.2533 33.4475 16.2989C32.6547 16.7673 31.7766 17.1074 30.8419 17.2908C30.0934 16.4964 29.027 16 27.8469 16C25.5807 16 23.7435 17.8301 23.7435 20.0872C23.7435 20.4076 23.7798 20.7195 23.8497 21.0187C20.4396 20.8482 17.4161 19.221 15.3924 16.7482C15.0392 17.3518 14.8368 18.054 14.8368 18.803C14.8368 20.221 15.5612 21.4721 16.6622 22.2051C15.9896 22.1839 15.3569 22 14.8037 21.6938C14.8034 21.7109 14.8033 21.728 14.8033 21.7452C14.8033 23.7256 16.2177 25.3776 18.0948 25.7531C17.7505 25.8464 17.388 25.8963 17.0138 25.8963C16.7493 25.8963 16.4923 25.8708 16.2418 25.823C16.764 27.4469 18.2793 28.6286 20.0748 28.6617C18.6705 29.7579 16.9013 30.4112 14.9788 30.4112C14.6476 30.4112 14.321 30.3919 14 30.3542C15.8159 31.5139 17.9727 32.1905 20.2899 32.1905C27.8373 32.1905 31.9644 25.9624 31.9644 20.5612C31.9644 20.384 31.9604 20.2077 31.9526 20.0324C32.7542 19.4562 33.4499 18.7363 34 17.9166Z" fill="white"/>
<defs>
<linearGradient id="paint0_linear" x1="72.1311" y1="31.4056" x2="35.534" y2="-11.4124" gradientUnits="userSpaceOnUse">
<stop stop-color="#645AFF"/>
<stop offset="0.637566" stop-color="#E40C5B"/>
<stop offset="1" stop-color="#FF4C3B"/>
</linearGradient>
</defs>
</svg>
